<?xml version="1.0" standalone="no"?>
<!DOCTYPE svg PUBLIC "-//W3C//DTD SVG 1.1//EN" "http://www.w3.org/Graphics/SVG/1.1/DTD/svg11.dtd" >
<svg xmlns="http://www.w3.org/2000/svg" xmlns:xlink="http://www.w3.org/1999/xlink" version="1.1">
<metadata>
Created by FontForge 20170924 at Sat Apr 12 16:29:36 2014
 By www-data
Copyright (c) 2014 by Fontfirma. All rights reserved.
</metadata>
<defs>
<font id="Nord" horiz-adv-x="470" >
  <font-face 
    font-family="Nord"
    font-weight="400"
    font-stretch="normal"
    units-per-em="1000"
    panose-1="0 0 0 0 0 0 0 0 0 0"
    ascent="750"
    descent="-250"
    x-height="465"
    cap-height="725"
    bbox="49.5 -378.2 961 973"
    underline-thickness="50"
    underline-position="-100"
    unicode-range="U+0020-20AC"
  />
<missing-glyph horiz-adv-x="500" 
 />
    <glyph glyph-name=".notdef" horiz-adv-x="500" 
 />
    <glyph glyph-name=".null" horiz-adv-x="0" 
 />
    <glyph glyph-name="nonmarkingreturn" horiz-adv-x="333" 
 />
    <glyph glyph-name="space" unicode=" " horiz-adv-x="500" 
 />
    <glyph glyph-name="exclam" unicode="!" horiz-adv-x="833" 
d="M417 139q29 0 50 -21t21 -50t-21 -50t-50 -21q-28 0 -49 21t-21 50t20.5 50t49.5 21zM357 617v4v45q0 23 17 40t40 17t40 -17t17 -40v-45v-4v-3v-3q-1 -4 -1 -14q-3 -41 -7 -123l-9 -150q-2 -24 -4 -72q-2 -17 -11 -25q-9 -11 -25 -11q-14 0 -25 11q-10 9 -10 25
q-1 6 -1 19q-2 21 -4.5 62.5t-3.5 61.5l-9 149q-2 46 -4 69v2v2z" />
    <glyph glyph-name="numbersign" unicode="#" horiz-adv-x="833" 
d="M685 467q17 0 30 -12.5t13 -29.5q0 -18 -13 -30.5t-30 -12.5h-34h-39l-9 -27q-2 -6 -6.5 -20t-7.5 -21h59q17 0 30 -13t13 -30t-13 -30t-30 -13h-34h-53q-3 -9 -4 -11l-21 -63q-5 -18 -19 -25q-16 -10 -33 -5q-16 5 -25.5 21t-4.5 32q12 34 17 51h-84q-1 -3 -3 -11
l-21 -63q-7 -18 -20 -25q-16 -10 -33 -5q-16 5 -25.5 21t-3.5 32q5 17 17 51h-35q-18 0 -30.5 13t-12.5 30t12.5 30t30.5 13h33h30l18 53q1 5 5 15h-49q-17 0 -30 12.5t-13 30.5q0 17 13 29.5t30 12.5h34h43q8 26 13 39l20 63q6 17 20 25q16 10 33 5q16 -5 25.5 -21t4.5 -32
q-5 -12 -19 -55q-2 -8 -8 -24h1h83q5 13 13 39l21 63q6 17 20 25q15 10 32 5t26 -21t4 -32l-18 -55q-1 -4 -3.5 -12t-4.5 -12h45zM517 367q4 10 5 15h-4h-80l-9 -27q-2 -8 -7 -22.5t-6 -18.5h13h71z" />
    <glyph glyph-name="dollar" unicode="$" horiz-adv-x="833" 
d="M349 -8v1v17q-18 4 -26 8q-29 14 -38 20q-12 8 -34 28l-12 12q-16 20 -25 35q-11 20 -18 40q-4 15 -8 43q-3 17 14 34q13 13 33 13q19 0 34 -13q9 -9 12 -21v-4q3 -17 9 -32q7 -15 15 -26q5 -6 16 -17q4 -3 12 -11l8 -4t8 -5v43v147v22q-39 8 -67 30q-22 16 -31 26
q-12 11 -25 31q-10 13 -15 25q-11 28 -13 38q-18 71 17 141q14 27 38 51q23 22 51 36q18 10 35 14q1 0 4.5 1t5.5 2v27q0 19 14 33t33 14t33.5 -14t14.5 -33v-1v-26q16 -4 23 -7q28 -13 36 -18q34 -24 56 -57q10 -15 5 -36q-5 -19 -22 -28q-18 -11 -36 -5q-18 4 -29 22
q0 1 -2 3q-8 9 -17 17q-3 1 -7.5 4t-6.5 5v-35v-146v-36q1 -1 4 -1q20 -6 40 -15q32 -13 56 -38q16 -16 25 -30q11 -18 17 -36q11 -28 13 -64q0 -32 -9 -62q-9 -29 -26 -56q-21 -30 -41 -46q-15 -12 -30 -21q-17 -9 -34 -15q-3 -1 -8 -2.5t-7 -2.5v-19q0 -20 -14 -34
t-34 -14q-19 0 -33 14.5t-14 33.5zM485 270q-7 9 -16 16t-25 14v1v-22v-143v-24q10 6 15 10q11 9 21 21q8 11 15 26q4 9 8 29q2 14 0 28q-1 9 -7 25q-5 12 -11 19zM309 454q7 -8 23 -22q8 -7 17 -11v36v142v18q-14 -8 -20 -12q-11 -9 -20 -20q-9 -12 -14 -24q-6 -18 -8 -28
v-27q4 -18 8 -27q7 -13 14 -25z" />
    <glyph glyph-name="percent" unicode="%" horiz-adv-x="656" 
d="M334 45h-4h9h-5zM413 419l-78 -133l-72 -123l-53 -89q-2 -4 -9 -16.5t-11 -18.5q-10 -17 -28.5 -22t-35.5 5t-22 28.5t5 35.5q3 6 9.5 16t9.5 16l52 88l71 122l78 133l72 123l52 90l21 35q9 16 28 21t35 -4q17 -10 22 -28.5t-5 -35.5q-12 -22 -19 -33l-51 -88zM137 421
q-21 8 -33 16q-2 2 -6 5t-7 5.5t-5 4.5q-3 3 -5.5 6t-5 6.5t-4.5 5.5q-21 28 -21 69v49v66q0 21 4 38q8 21 16 33q5 9 15 19q7 8 18 15q11 8 32 16q19 6 38 5q24 0 37 -6q16 -6 23 -10q3 -2 9 -6.5t9 -6.5q14 -11 24 -28q10 -14 15 -33q4 -17 4 -37v-115q0 -30 -15 -58
q-6 -12 -17 -23q-8 -9 -21 -19q-14 -8 -16 -9q-18 -8 -28 -10q-36 -5 -60 2zM143 549v-14q2 -6 2 -8q2 -2 4 -6l5 -5q1 -1 7 -4q1 0 3.5 -1t3.5 -1h8q1 0 3.5 1t3.5 1q4 2 6 4q2 1 6 5l3 6q2 6 2 8v3v11v69v31v13q0 2 -2 8l-3 6q-4 4 -6 5q-2 2 -6 4q-1 1 -3.5 1t-3.5 1h-8
q-1 -1 -3.5 -1t-3.5 -1q-6 -3 -7 -4l-5 -5q-2 -4 -4 -6q0 -2 -2 -8v-13v-69v-31zM646 242v-114q-2 -31 -15 -58q-5 -8 -17 -24q-3 -3 -6.5 -6t-8 -6.5t-6.5 -5.5q-8 -6 -16 -9q-18 -8 -28 -10q-36 -5 -60 2q-21 8 -33 16t-19 15q-6 6 -14 18q-21 28 -21 68v50v65q0 22 4 38
q8 24 15 34q15 18 16 19q8 8 17 14q11 9 33 17q20 5 38 5q19 0 37 -6q13 -5 22 -10q7 -4 19 -14q10 -7 24 -27q10 -14 15 -34q4 -16 4 -37zM552 124v4v10v70v31v13q0 3 -2 7q-3 6 -4 7l-5 5q-4 2 -6 4q-2 0 -8 2h-7q-6 -2 -8 -2q-2 -2 -6 -4l-5 -5q0 -1 -1.5 -3.5t-2.5 -3.5
t-1.5 -3.5t-0.5 -3.5v-13v-70v-31v-14q1 -1 1 -3.5t1 -3.5q0 -1 1.5 -3t2.5 -3t2.5 -3t2.5 -3l6 -3q6 -2 8 -2h7q2 0 8 2l6 3q4 4 5 6q2 2 4 6t2 7z" />
    <glyph glyph-name="ampersand" unicode="&#x26;" horiz-adv-x="650" 
d="M593 451q19 0 33 -14t14 -34q0 -19 -14 -33t-33 -14h-11h-70v-47v-69q0 -38 -5 -66q-12 -61 -59 -111q-46 -47 -108 -64q-35 -8 -65 -7q-37 2 -65 11q-32 11 -57 28q-29 21 -47 41q-23 31 -34 53q-11 25 -13 36q-3 10 -7 37q-7 64 23 128q27 55 82 91q-14 16 -21 25
q-18 23 -28 57q-4 18 -6 38q-1 9 1 28q2 21 7 37q6 19 15 35q9 17 21 30q9 11 18 18q20 16 30 22q16 9 35 15q16 5 37 7q14 3 29 1q43 -3 79 -23q19 -11 32 -24q13 -10 27 -30q11 -16 5 -37q-7 -20 -22 -28q-16 -10 -37 -5q-12 3 -21 12q0 1 -2 3q-7 10 -19 20q-12 8 -19 11
q-10 4 -22 6q-12 1 -24 0q-12 -2 -22 -6q-3 -1 -20 -11q-11 -11 -15 -16q-7 -8 -12 -20q-4 -14 -6 -22q-1 -12 0 -24l6 -22q4 -9 12 -19q2 -3 15 -16q17 -10 20 -11q5 -2 22 -7h12q19 0 33 -14t14 -34q0 -11 -4 -18q-4 -16 -17 -26t-29 -10q-3 0 -9 -0.5t-9 -0.5
q-10 -2 -35 -10q-10 -5 -30 -17q-13 -12 -25 -25q-12 -20 -17 -30q-8 -25 -10 -35q-1 -18 0 -37q2 -13 10 -34q5 -11 17 -31q13 -15 25 -24q15 -11 30 -18q19 -6 35 -9q18 -3 37 0t34 9q15 7 31 18q13 11 24 24q11 16 18 31q6 17 9 34q1 11 1 34v53v112q0 19 14.5 33.5
t33.5 14.5h10h118z" />
    <glyph glyph-name="parenleft" unicode="(" horiz-adv-x="274" 
d="M61 466q25 120 107 215q13 17 25 27q12 13 29.5 12.5t29.5 -12.5t12 -29t-12 -29q-13 -13 -35 -39q-31 -42 -52 -89q-21 -53 -28 -103q-6 -54 0 -108q7 -50 28 -103q22 -49 52 -89q22 -26 35 -38q12 -12 12 -29.5t-12 -29.5t-29.5 -12t-29.5 12q-90 90 -123 208
q-34 114 -9 236z" />
    <glyph glyph-name="parenright" unicode=")" horiz-adv-x="274" 
d="M253 466q25 -122 -9 -236q-33 -118 -123 -208q-12 -12 -29.5 -12t-29.5 12t-12 29.5t12 29.5q13 12 35 38q30 40 52 89q21 53 28 103q6 54 0 108q-7 50 -28 103q-21 47 -52 89q-22 26 -35 39q-12 12 -12 29t12 29t29.5 12.5t29.5 -12.5q12 -10 25 -27q82 -95 107 -215z
" />
    <glyph glyph-name="plus" unicode="+" horiz-adv-x="442" 
d="M388 291h-80h-24v-29v-74q0 -18 -12.5 -31t-30.5 -13t-30.5 13t-12.5 31v80v23h-30h-74q-18 0 -31 13t-13 31t13 30.5t31 12.5h80h24v30v74q0 18 12.5 31t30.5 13t30.5 -13t12.5 -31v-81v-23h30h74q18 0 31 -12.5t13 -30.5t-13 -31t-31 -13z" />
    <glyph glyph-name="comma" unicode="," horiz-adv-x="195" 
d="M150 92q19 -5 28 -22q11 -19 5 -37l-38 -101q-2 -9 -12 -21q-8 -6 -10 -8q-19 -10 -37 -4q-18 4 -29 22q-11 19 -4 37l38 100q3 13 12 22l10 7q17 10 37 5z" />
    <glyph glyph-name="hyphen" unicode="-" horiz-adv-x="442" 
d="M388 378q18 0 31 -12.5t13 -30.5t-13 -31t-31 -13h-80h-140h-74q-18 0 -31 13t-13 31t13 30.5t31 12.5h80h140h74z" />
    <glyph glyph-name="period" unicode="." horiz-adv-x="156" 
d="M98 94q20 0 34 -14t14 -34t-14 -34t-34 -14t-34 14t-14 34t14 34t34 14z" />
    <glyph glyph-name="slash" unicode="/" horiz-adv-x="394" 
d="M136 31q-7 -19 -20 -26q-16 -10 -33 -5q-18 5 -26 20q-11 19 -5 34q0 1 1 3.5t2 3.5l27 72l48 124l57 149l54 142q24 61 41 107q6 14 16 42q9 19 20 26q15 9 34 4q17 -5 26 -20q10 -18 4 -33q0 -3 -2 -7l-28 -72q-38 -99 -47 -125l-57 -148l-55 -142q-8 -22 -41 -107
q-10 -28 -16 -42z" />
    <glyph glyph-name="zero" unicode="0" horiz-adv-x="464" 
d="M252 724q83 0 142 -58.5t60 -141.5v-323q0 -84 -59 -143t-143 -59q-83 0 -142.5 59t-59.5 143v323q1 83 60 141.5t142 58.5zM328 125q31 31 31 76v323q0 43 -31 74q-33 31 -76 31q-44 0 -75 -31q-30 -30 -32 -74v-323q0 -46 32 -76q31 -31 75 -31q45 0 76 31z" />
    <glyph glyph-name="one" unicode="1" horiz-adv-x="356" 
d="M322 718q24 -14 24 -41v-45v-116v-152v-152v-118v-47q0 -19 -14 -33t-33 -14q-20 0 -34 14t-14 33v45v116v152v152v51l-57 -57l-63 -63q-13 -13 -33 -13t-34 13t-14 33t14 34l33 33l105 105l63 62q11 11 27 13.5t30 -5.5z" />
    <glyph glyph-name="two" unicode="2" 
d="M412 96q20 0 34 -14t14 -34q0 -19 -14 -33t-34 -14h-70h-151h-84q-20 0 -34 14q-12 12 -14 33q-2 43 10 81q5 19 24 63q-2 -4 -3 -7q14 35 28 56q23 32 43 52q19 20 74 65.5t80 75.5q17 24 26 43q7 21 12 42q2 17 0 32l-6 23q-8 14 -10 16q-6 8 -14 14q-11 8 -26 15
q-25 8 -35 10q-18 1 -34 0q-20 -4 -29 -8q-8 -4 -17 -10q-16 -14 -23 -23q-4 -6 -12 -20q-1 -1 -1.5 -4t-0.5 -4v-1q0 -19 -13.5 -33t-33.5 -14t-34 14t-14 33q0 33 20 65q15 26 39 49q25 24 47 32q25 11 36 13q18 4 38 6q34 3 72 -7q17 -5 39 -14q21 -11 27 -15
q35 -24 54 -54q4 -7 16 -33q5 -12 6 -25q7 -35 3 -62q-5 -39 -15 -63q-14 -34 -29 -57q-24 -33 -42 -50q-20 -21 -75 -66.5t-80 -75.5q-19 -28 -27 -48q-1 -3 -3.5 -9t-4.5 -9q4 8 5 11q-14 -34 -18 -51h19h151h84z" />
    <glyph glyph-name="three" unicode="3" horiz-adv-x="518" 
d="M431 400q49 -43 68 -105q9 -32 9 -66q0 -33 -9 -65q-13 -37 -27 -57q-16 -26 -41 -48q-53 -46 -113 -55q-20 -3 -39 -3t-39 3q-29 5 -61 20q-56 26 -93 83q-34 54 -36 122q0 19 14 33.5t34 14.5q19 0 33 -14t14 -34q0 -3 0.5 -9t0.5 -9q4 -20 10 -34q6 -15 17 -29
q9 -12 24 -25q20 -12 30 -17q15 -6 34 -9q18 -3 36 0q17 3 34 9q14 6 30 17q15 13 24 25q10 13 18 29q6 16 9 34q2 18 0 36q-3 16 -9 35q-8 16 -18 29q-9 12 -24 25q-16 11 -30 17q-17 6 -34 9q-6 1 -18 1v0q-19 0 -33 14t-14 34q0 25 20 38q12 9 27 9q8 0 12 1q10 1 22 6
q10 5 19 11l15 15q6 9 11 20q4 11 6 21q2 12 0 24q-2 10 -6 21q-5 12 -11 19q-2 3 -15 16q-9 6 -19 11q-12 5 -22 6q-12 2 -23 0q-11 -1 -22 -6q-7 -3 -19 -11q-3 -2 -15 -14q-6 -11 -16 -15q-2 -1 -5.5 -2.5t-5.5 -2.5q-21 -5 -37 5t-21 28q-6 23 4 37q13 18 30 33
q24 18 38 25q28 12 43 15q30 4 46 3q26 -2 38 -6q14 -4 35 -13q14 -7 22 -14q18 -12 28 -24q13 -14 23 -29q9 -17 15 -34q5 -11 7 -26q4 -24 4 -38q-3 -73 -51 -122q8 -6 22 -18z" />
    <glyph glyph-name="four" unicode="4" horiz-adv-x="568" 
d="M511 299q19 0 33 -13.5t14 -33.5t-14 -34t-33 -14h-58h-18v-106v-48q0 -19 -14.5 -33t-33.5 -14t-33 14t-14 33v44v110h-29h-146h-67q-26 0 -41 24q-15 25 0 48q12 17 25 37l71 104l88 129l74 109q5 8 15.5 23.5t15.5 23.5q12 17 29 21q13 5 25 0q15 -4 25 -16.5
t10 -28.5v-44v-115v-151v-69h9h67zM298 299h42v61v153v11q-1 -2 -3.5 -6t-4.5 -6l-87 -128l-57 -85h110z" />
    <glyph glyph-name="five" unicode="5" horiz-adv-x="504" 
d="M469 345q15 -29 20 -61q9 -53 0 -106q-6 -31 -22 -60q-14 -26 -37 -51q-23 -23 -50 -38q-32 -18 -59 -23q-35 -8 -66 -5q-36 3 -63 14q-20 8 -34 16q-20 14 -30 22q-24 20 -41 47q-37 54 -37 122q0 19 14 33t33 14q20 0 34 -14t14 -33q0 -12 1 -17q2 -11 8 -33
q8 -15 17 -28q11 -12 23 -23q18 -12 28 -16q17 -6 32 -9q18 -1 34 0q15 3 33 9q10 4 28 16q12 11 23 23q9 13 17 28q6 22 8 32q1 10 1 30q0 19 -1 29q-3 15 -9 32q-4 10 -16 28q-11 12 -23 23q-18 12 -28 16q-18 6 -33 9q-2 0 -5 0.5t-5 0.5h-6h-11h-118q-19 0 -33 14
t-14 33v22v141v94q0 20 14 33.5t33 13.5h38h147h90q20 0 33.5 -13.5t13.5 -33.5t-14 -34t-33 -14h-38h-147h-42v-115v-47h74q2 1 6 1q30 0 55 -7q32 -8 59 -24q30 -18 49 -40q22 -24 35 -51z" />
    <glyph glyph-name="six" unicode="6" horiz-adv-x="491" 
d="M469 304q11 -33 11 -65q2 -59 -11 -95q-13 -35 -29 -56q-14 -20 -23 -28q-4 -4 -29 -24q-24 -17 -56 -28q-33 -11 -65 -11q-35 0 -65 10q-30 9 -57 27q-30 21 -46 42l-21 30q-8 14 -15 34q-11 30 -13 64v31q0 33 11 68q9 24 18 39l2 4l19 38l62 123l67 131l15.5 31
l15.5 31q9 17 28 22q20 5 37 -5q17 -9 22 -28q4 -18 -5 -37l-9.5 -19l-9.5 -19l-62 -123q-4 -7 -22 -43q18 2 27 2q37 -2 65 -11q34 -10 57 -28q17 -13 28 -23q8 -8 24 -28q16 -21 29 -56zM339 117q13 11 21 22q11 15 16 26q7 17 8 31q1 9 1 28q0 18 -1 27q-1 15 -8 30
q-5 12 -16 27q-8 11 -21 22q-9 6 -27 16q-20 6 -31 8q-15 2 -32 0q-13 -3 -31 -8q-18 -10 -26 -16q-16 -14 -22 -22q-8 -10 -16 -27q-4 -8 -8 -30q-1 -5 -1 -16q0 -26 1 -39q2 -11 8 -31q10 -18 16 -26t22 -22q8 -6 26 -16q18 -5 31 -8q17 -2 32 0q11 2 31 8q18 10 27 16z
" />
    <glyph glyph-name="seven" unicode="7" horiz-adv-x="525" 
d="M467 724q26 0 41 -23q12 -22 0 -48q-6 -12 -10 -18q-13 -27 -41 -81l-62 -123l-71 -140l-66 -131l-49 -97l-9.5 -19l-9.5 -19q-9 -17 -29 -22q-18 -5 -36 5q-17 9 -22 28q-5 17 5 37l9 18l41 81l62 123l71 140l66 131l33 63h-69h-150h-73q-20 0 -34 14.5t-14 33.5t14 33
t34 14h20h125h151h73z" />
    <glyph glyph-name="eight" unicode="8" horiz-adv-x="505" 
d="M408 398q40 -30 63.5 -77t23.5 -100q0 -92 -65 -157t-157 -65t-157.5 65t-65.5 157q0 57 26 105t71 79q-53 55 -53 131q0 78 55 133t132 55q78 0 132.5 -55t54.5 -133q0 -81 -60 -138zM216 602q-27 -27 -27 -66t27 -65q27 -27 65 -27t65 27q28 26 28 65q0 38 -28 66
q-27 27 -65 27t-65 -27zM363 131q37 37 37 90q0 52 -37 91q-37 37 -90 37q-54 0 -91 -37q-37 -39 -37 -91q0 -53 37 -90t91 -37q53 0 90 37z" />
    <glyph glyph-name="nine" unicode="9" horiz-adv-x="488" 
d="M478 518v-30q0 -35 -10 -64q-5 -20 -19 -44l-1 -1v-2q-12 -24 -19 -36l-61 -122l-67 -132l-32 -62q-8 -17 -28 -22q-18 -5 -36 5q-17 9 -22 28q-5 17 5 37q12 24 18 37l62 122l22 43q-4 0 -10 -0.5t-10 -0.5q-19 0 -28 1q-27 5 -37 7q-33 9 -58 27q-32 23 -47 42
q-16 20 -21 30q-8 14 -16 34q-10 26 -12 64q-4 57 9 95q12 34 28 57q10 15 23 29q18 16 28 24q52 38 121 40q20 0 39 -3q12 -1 26 -6q33 -10 57 -27q30 -20 47 -42q12 -14 21 -30q8 -14 16 -34q10 -30 12 -64zM248 369q17 -2 32 0q16 3 31 9q15 7 26 15q12 10 22 22
q8 11 15 26q6 15 9 31v16v12v14.5v11.5q-3 16 -9 31q-7 15 -15 26q-10 12 -22 22q-11 8 -26 15q-17 7 -31 8q-15 2 -32 0q-13 -1 -30 -8q-14 -6 -27 -15q-18 -18 -21 -22q-6 -8 -16 -26q-6 -20 -8 -30q-1 -10 -1 -28q0 -19 1 -28q2 -10 8 -30q10 -18 16 -26q3 -4 21 -22
q13 -9 27 -15q15 -6 30 -9z" />
    <glyph glyph-name="colon" unicode=":" horiz-adv-x="144" 
d="M92 461q17 0 29.5 -12t12.5 -29t-12.5 -29.5t-29.5 -12.5t-29.5 12.5t-12.5 29.5t12.5 29t29.5 12zM92 266q17 0 29.5 -12.5t12.5 -29.5t-12.5 -29t-29.5 -12t-29.5 12t-12.5 29t12.5 29.5t29.5 12.5z" />
    <glyph glyph-name="semicolon" unicode=";" horiz-adv-x="179" 
d="M127 461q17 0 29.5 -12t12.5 -29t-12.5 -29.5t-29.5 -12.5t-29.5 12.5t-12.5 29.5t12.5 29t29.5 12zM133 267q15 -3 25 -19q10 -18 4 -32q-20 -52 -29 -78q-6 -17 -20 -25q-14 -9 -32 -4q-17 3 -25 19q-10 18 -4 32q20 52 29 78q6 17 20 25q14 9 32 4z" />
    <glyph glyph-name="less" unicode="&#x3c;" horiz-adv-x="253" 
d="M237 520l-52 -82l-44 -70l39 -61l57 -91q9 -14 4 -31.5t-19 -25.5q-15 -9 -31.5 -4.5t-25.5 19.5l-52 83l-57 90q-12 21 0 42l52 83l57 90q9 15 25.5 19.5t31.5 -4.5q14 -8 19 -25t-4 -32z" />
    <glyph glyph-name="equal" unicode="=" horiz-adv-x="442" 
d="M388 466q18 0 31 -12.5t13 -30.5t-13 -31t-31 -13h-80h-140h-74q-18 0 -31 13t-13 31t13 30.5t31 12.5h80h140h74zM388 318q18 0 31 -12.5t13 -30.5t-13 -31t-31 -13h-80h-140h-74q-18 0 -31 13t-13 31t13 30.5t31 12.5h80h140h74z" />
    <glyph glyph-name="question" unicode="?" horiz-adv-x="404" 
d="M188 136q29 0 50 -21t21 -50t-21 -50t-50 -21t-50 21t-21 50t21 50t50 21zM375 649q17 -35 18 -71q1 -8 -1 -26q-5 -32 -7 -37q-8 -30 -27 -60q-20 -33 -44 -58q-9 -10 -31 -31.5t-32 -34.5l-9 -12q-2 -2 -4 -6t-4 -6q0 -2 -1 -7t-2 -7q-2 -19 -2 -58q0 -19 -14.5 -33.5
t-33.5 -14.5t-33 14t-14 34q0 33 1 49q4 49 19 73q19 30 41 55l33 32q16 16 31 34q21 28 30 49q6 15 9 32q2 12 0 24t-4 16q-4 8 -7 11q-4 6 -10 10q-9 6 -19 11q-9 4 -27 8h-26l-21 -6q-5 -3 -11 -7q-6 -5 -18 -17q-6 -10 -8 -15q-1 0 -1 -2t-1 -2q0 -20 -13.5 -33.5
t-33.5 -13.5t-34 14t-13 33q0 34 22 66q10 15 23 29q9 8 27 22q8 5 31 16q8 3 26 7q24 4 38 4t38 -4q20 -4 30 -8q20 -8 37 -19q35 -24 52 -54z" />
    <glyph glyph-name="at" unicode="@" horiz-adv-x="788" 
d="M776 394q2 -18 2 -55q-2 -42 -8 -69q-4 -17 -14 -37q-4 -10 -21 -33q-23 -29 -62 -42q-32 -12 -72 -4q-34 6 -63 33q-16 15 -25 32q-28 -22 -59 -33q-6 -2 -38 -7q-18 -2 -27 -1q-19 2 -37 6q-24 8 -35 14q-14 7 -22 14q-21 16 -27 24q-24 26 -37 62q-6 19 -7 26
q-4 26 -3 39q2 25 6 37q5 21 13 35q3 8 13 22q14 20 23 28q55 52 126 49q53 -2 93 -28q14 26 42 26q19 0 32.5 -14t14.5 -33q1 0 0 -53v-52q0 -75 1 -84q1 -13 6 -25q3 -5 7 -11q3 -4 7 -7q6 -4 9 -5q2 0 5 -1t5 -2h12q1 1 4.5 2t5.5 1q5 2 10 5q6 6 9 10l9 15q4 10 8 32
q2 15 2 46q0 29 -2 43q-7 37 -19 68q-13 32 -35 60q-21 28 -49 49q-27 21 -60 35q-31 12 -68 19q-37 5 -73 0q-37 -7 -68 -19q-33 -14 -60 -35q-28 -21 -49 -49q-22 -28 -35 -60q-12 -31 -19 -68q-5 -37 0 -73q7 -37 19 -68q13 -30 35 -60q21 -28 49 -49q27 -21 60 -35
q31 -12 68 -19q36 -5 73 0q37 7 68 19q16 7 32 16q17 10 35.5 5t28.5 -22t5 -35.5t-22 -28.5q-28 -16 -54 -26q-32 -12 -65 -18q-45 -7 -77 -6q-63 3 -115 23q-30 12 -57 27q-29 18 -51 37q-43 36 -74 85q-14 23 -28 56q-13 36 -16 50q-15 65 -8 119q3 37 11 64q7 24 23 60
q24 52 64 93q16 18 47 41q16 14 43 28q56 30 109 38q33 6 66 6q34 0 65 -6q58 -11 109 -39q23 -13 52 -35q20 -15 37 -34q43 -46 64 -94q16 -36 22 -60q8 -27 11 -64zM451 289l15 15q6 9 11 19q4 14 6 22v11v11q-2 8 -6 22q-5 10 -11 19l-15 15q-9 6 -19 11q-14 4 -22 6h-22
q-8 -2 -22 -6q-6 -3 -18 -11q-6 -5 -16 -15q-6 -9 -11 -19q-4 -14 -6 -22v-22q2 -8 6 -22q5 -10 11 -19q10 -10 16 -15q12 -8 18 -11q14 -4 22 -6h22q8 2 22 6q10 5 19 11z" />
    <glyph glyph-name="A" unicode="A" horiz-adv-x="547" 
d="M86 2q-18 5 -28.5 22.5t-4.5 35.5q0 2 1 3l19 61l37 121l47 147l45 144l34 110q2 7 6.5 21.5t6.5 21.5q12 35 46 35q35 0 46 -35q0 -2 1 -2l18 -61q16 -49 37 -121l46 -147l44 -145l34 -109q2 -8 6.5 -22t6.5 -22q6 -18 -4.5 -35.5t-28.5 -22.5q-19 -5 -36 4.5t-23 28.5
v2q-7 21 -19 61l-37 120q0 2 -2 7t-2 7h-99h-77q-4 -15 -14 -45l-34 -109q-2 -7 -6.5 -21.5t-6.5 -21.5q-6 -19 -23 -28.5t-36 -4.5zM283 479l-46 -147q0 -1 -1 -3v-2h81h36l-12 39l-45 145v2q-1 2 -1 3z" />
    <glyph glyph-name="B" unicode="B" horiz-adv-x="464" 
d="M98 0q-20 0 -34 14t-14 33v44v116v152v153v118v47q0 19 14 33t34 14h11h133h19q19 -2 39 -6q14 -4 35 -13q26 -10 53 -34q25 -23 39 -50q18 -32 23 -59q4 -26 4 -39q0 -19 -3 -39q-4 -29 -21 -61q-17 -30 -38 -50q-2 -2 -6 -5.5t-6 -5.5q2 -1 5.5 -4t5.5 -5q8 -8 24 -28
q7 -10 14 -22q17 -32 21 -61q4 -24 4 -39q0 -14 -4 -38q-6 -30 -22 -61q-16 -29 -39 -49q-26 -24 -52 -35q-19 -9 -35 -14q-19 -4 -38 -6h-48h-118zM316 117q8 6 20 20q10 13 15 25q6 18 7 28q1 14 0 29q-1 10 -7 28q-5 12 -15 25q-12 14 -20 20q-9 7 -24 14q-18 6 -28 8
h-37h-82v-102v-117h75h44q12 3 28 8q15 7 24 14zM264 629h-48h-71v-112v-107h75h13.5h16h14.5q12 3 28 8q15 7 24 14q8 6 20 20q10 13 15 25q6 18 7 28q1 15 0 29q-1 10 -7 28q-5 12 -15 25q-12 14 -20 20q-9 7 -24 14q-16 5 -28 8z" />
    <glyph glyph-name="C" unicode="C" 
d="M76 105q-18 33 -22 60q-4 28 -4 41v12v125v143v34q0 54 27 101q16 29 39 49q26 24 52 35q25 11 36 13q18 4 38 6q34 3 66 -6q30 -8 58 -26q29 -19 47 -41q19 -26 21 -31q9 -17 15 -34q11 -33 11 -65q0 -19 -14 -33t-33 -14q-20 0 -34 13.5t-14 33.5q0 9 -1 14
q-1 10 -7 28q-6 12 -15 24q-12 14 -20 20q-6 5 -24 14q-8 4 -28 8q-15 1 -30 0q-20 -4 -28 -8q-16 -8 -24 -14q-11 -9 -20 -20q-6 -8 -14 -24q-4 -11 -8 -29q0 -2 -0.5 -6.5t-0.5 -7.5v-94v-152v-54q0 -21 1 -31q4 -20 8 -28q8 -16 14 -24q9 -11 20 -20q8 -6 24 -14
q8 -4 28 -8q15 -1 30 0q20 4 28 8q18 9 24 14q8 6 20 20q9 12 15 24q6 17 7 28q1 5 1 15q0 20 14.5 34t33.5 14t33 -14.5t14 -33.5q0 -54 -26 -101q-26 -44 -70 -73q-29 -18 -58 -25q-35 -8 -66 -5q-20 2 -39 6q-9 2 -35 13q-24 11 -52 36q-21 20 -38 50z" />
    <glyph glyph-name="D" unicode="D" horiz-adv-x="438" 
d="M50 207v152v153v118v47q0 19 14 33t33 14h3h120q61 0 109 -29q28 -18 48 -41q10 -12 22 -30q6 -10 16 -34q11 -28 13 -64v-25v-129v-52v-110q0 -59 -27 -106q-16 -29 -39 -49q-25 -23 -52 -36q-21 -9 -35 -13q-19 -4 -38 -6q-8 -1 -23 -1h-117q-19 0 -33 14t-14 34v44
v116zM237 628q-7 1 -23 1h-69v-112v-152v-153v-117h43h49q10 2 28 8q9 4 25 14q17 17 20 21q5 6 14 24q4 8 8 28q1 9 1 26v49v107v112q0 42 -1 50q-4 20 -8 28q-9 18 -14 24q-6 8 -20 20q-13 10 -25 15q-18 6 -28 7z" />
    <glyph glyph-name="E" unicode="E" horiz-adv-x="411" 
d="M98 0q-20 0 -34 14t-14 34v44v116v152v153v118v47q0 19 14 33t34 14h20h140h95q20 0 34 -14t14 -33q0 -20 -14.5 -34t-33.5 -14h-20h-140h-48v-112v-95h113h95q19 0 33.5 -14.5t14.5 -33.5t-14 -33t-34 -14h-20h-140h-48v-115v-118h113h95q19 0 33.5 -14t14.5 -33
q0 -20 -14.5 -34t-33.5 -14h-20h-140h-95z" />
    <glyph glyph-name="F" unicode="F" horiz-adv-x="405" 
d="M97 0q-19 0 -33 14t-14 33v43v116v152v153v118v47q0 20 14 34t33 14h17h137h96q19 0 33.5 -14t14.5 -34q0 -19 -14 -33t-34 -14h-16h-138h-48v-111v-75h106h96q19 0 33.5 -14.5t14.5 -33.5t-14.5 -33.5t-33.5 -14.5h-16h-138h-48v-134v-118v-48q0 -19 -14.5 -33
t-33.5 -14z" />
    <glyph glyph-name="G" unicode="G" horiz-adv-x="471" 
d="M51 324v148q0 86 11 115q7 19 15 34q12 18 22 30q19 25 47 42q29 18 58 25q33 9 67 6q23 -2 40 -7q17 -4 37 -14q32 -17 53 -39q58 -58 60 -143q0 -19 -14 -33t-34 -14q-19 0 -33 14t-14 33q0 3 -0.5 7t-0.5 7q-4 18 -8 28q-4 8 -14 24q-9 11 -20 20q-16 10 -24 14t-28 8
q-15 1 -30 0q-20 -4 -28 -8q-12 -5 -24 -14q-8 -6 -20 -20q-9 -12 -15 -24q-6 -21 -7 -29q-1 -4 -1 -14v-94v-152v-54q0 -21 1 -31q1 -11 7 -28q6 -12 15 -24q12 -14 20 -20q8 -7 24 -14q8 -4 28 -8q15 -1 30 0q18 4 28 8q16 8 24 14q11 9 20 20q10 16 14 24t8 28q1 8 1 24
v69h-57q-20 0 -34 14t-14 33t14.5 33.5t33.5 14.5h104q19 0 33.5 -14.5t14.5 -33.5v-98v-24q0 -20 -5 -45q-6 -31 -22 -60q-18 -30 -40 -49q-26 -24 -52 -35q-25 -11 -36 -13q-18 -4 -38 -6q-36 -2 -66 7q-35 10 -58 26q-30 21 -47 42q-19 26 -21 31q-9 17 -15 34
q-10 29 -10 71v114z" />
    <glyph glyph-name="H" unicode="H" horiz-adv-x="520" 
d="M236 404h151h28v109v118v47q0 20 14.5 34t33.5 14t33 -14t14 -34v-45v-117v-152v-6v-1v-2v-144v-118v-47q0 -20 -14 -34t-33 -14t-33.5 14t-14.5 34v45v117v101h-82h-151h-37v-98v-118v-47q0 -20 -14.5 -34t-33.5 -14t-33 14t-14 34v45v117v152v153v118v47q0 20 14 34
t33 14t33.5 -14t14.5 -34v-45v-117v-112h91z" />
    <glyph glyph-name="I" unicode="I" horiz-adv-x="156" 
d="M98 -2q-20 0 -34 14t-14 34v45v117v152v153v118v47q0 19 14 33t34 14t34 -14t14 -33v-45v-117v-152v-153v-118v-47q0 -20 -14 -34t-34 -14z" />
    <glyph glyph-name="J" unicode="J" horiz-adv-x="471" 
d="M366 477v140v13h-115q-19 0 -33.5 14t-14.5 33t14.5 33.5t33.5 14.5h46h117q19 0 33 -14.5t14 -33.5v-20v-113v-155v-133v-37q0 -27 -4 -50q-4 -28 -21 -60q-17 -30 -38 -50q-24 -23 -52 -37q-30 -16 -61 -20q-26 -4 -39 -3q-18 0 -41 5q-18 4 -27 8q-24 10 -35 16
q-32 21 -51 43q-16 20 -23 31q-6 11 -16 35q-7 17 5 37q9 17 28 22q21 5 37 -5q11 -6 17 -17q2 -4 3 -7q4 -10 16 -28q9 -12 21 -21q10 -8 25 -15q10 -4 30 -8q15 -2 31 0q20 4 29 8q15 7 26 15q12 9 21 21q8 11 15 26q4 9 8 29q1 9 1 28v102v153z" />
    <glyph glyph-name="K" unicode="K" horiz-adv-x="579" 
d="M50 677q0 20 14 34t33 14t33.5 -14.5t14.5 -33.5v-43v-116v-82h65h81l43 70l80 130l40 65q10 17 29 22t36 -5t22 -29t-5 -36q-1 -1 -2.5 -3.5t-1.5 -3.5l-59 -95l-79 -130q-5 -8 -14.5 -22.5t-11.5 -18.5l6 -9l72 -115l79 -126l37 -59q10 -17 5 -36t-22 -29t-35.5 -5
t-29.5 22q-14 22 -21 32l-72 116l-79 126l-27 44h-79h-57v-128v-118v-48q0 -19 -14 -33t-34 -14q-19 0 -33 14t-14 33v44v115v153v153v118v47z" />
    <glyph glyph-name="L" unicode="L" horiz-adv-x="422" 
d="M145 365v-153v-118h125q15 0 47 0.5t48 0.5q19 0 33 -14t14 -34t-14 -34t-33 -14h-57h-97h-114q-19 0 -33 14t-14 34v44v116v152v153v118v47q0 20 14 34t33 14t33.5 -14.5t14.5 -33.5v-44v-116v-152z" />
    <glyph glyph-name="M" unicode="M" horiz-adv-x="694" 
d="M325 245q-2 4 -3 7q-2 2 -5 6.5t-4 6.5l-63 95l-86 130q-16 24 -19 29v-1v-152v-153v-118v-48q0 -19 -14.5 -33t-33.5 -14t-33 14t-14 33v43v116v152v153v118v47q0 17 9.5 29.5t25.5 16.5q18 6 36 -4q12 -7 17 -18q3 -3 8 -10.5t6 -9.5l63 -95l86 -129l66 -100l35 52
l86 130l75 114l33 48q11 18 28 22q12 5 25 0q16 -4 25.5 -16.5t9.5 -29.5v-43v-115v-152v-153v-118v-48q0 -19 -14 -33t-33 -14t-33.5 14t-14.5 33v43v116v152v153v8l-74 -111l-75 -114l-28 -42q-1 -3 -3 -7q-14 -24 -41 -24h-2q-27 0 -41 24z" />
    <glyph glyph-name="N" unicode="N" horiz-adv-x="624" 
d="M521 30l-40 54l-72 97l-90 120l-94 126l-80 107v-16v-152v-153v-118v-47q0 -20 -14.5 -34t-33.5 -14t-33 14t-14 34v43v115v152v153v118v47q0 16 10 29t25 17q18 6 36 -5q11 -6 17 -17l5 -5q3 -4 17.5 -24t22.5 -31l72 -96l90 -121l94 -125l80 -107v13v152v153v119v47
q0 19 14.5 33.5t33.5 14.5t33 -14t14 -34v-41v-115v-152v-153v-118v-48q0 -16 -9.5 -29t-25.5 -17q-18 -5 -36 5q-10 5 -17 17q-1 1 -2.5 3t-2.5 3z" />
    <glyph glyph-name="O" unicode="O" horiz-adv-x="499" 
d="M413 700q50 -42 67 -105q9 -33 9 -66v-110v-153v-76q0 -50 -24 -100q-8 -18 -28 -41q-12 -15 -27 -27q-16 -15 -30 -22q-14 -8 -34 -16q-28 -11 -64 -13q-31 -3 -66 5q-31 8 -59 25q-26 15 -49 39q-25 28 -36 52q-15 34 -19 62q-3 18 -3 37v96v153v94q0 59 29.5 110.5
t80.5 80.5q32 18 60 23q33 8 66 5q18 -1 38 -6q12 -3 36 -13t53 -34zM368 113q8 12 16 28q6 15 9 32v17v12v120v150v50v29q-3 17 -9 32q-13 24 -16 28q-7 8 -23 22q-18 12 -28 16q-15 6 -31 9q-16 1 -34 0q-17 -3 -31 -9q-10 -4 -28 -16q-16 -14 -22 -22q-5 -7 -17 -28
q-4 -10 -8 -32q-1 -9 -1 -28v-119v-151v-49q0 -21 1 -32q4 -22 8 -31q9 -17 17 -28q6 -8 22 -22q18 -12 28 -16q14 -6 31 -9q18 -1 34 0q16 3 31 9q14 6 28 16q16 14 23 22z" />
    <glyph glyph-name="P" unicode="P" horiz-adv-x="525" 
d="M97 0q-19 0 -33 14t-14 33v43v116v152v153v118v48q0 19 14 33t33 14h2h128h47q70 -7 122 -40q54 -36 86 -90q31 -57 33 -125q0 -67 -32 -125q-31 -55 -86 -91q-52 -35 -121 -41h-49h-82v-118v-47q0 -19 -14 -33t-34 -14zM280 628q-11 1 -66 1h-69v-111v-153v-58h13h75
q39 0 47 1q20 3 41 11q19 9 36 21q15 14 29 29q12 18 21 36q8 21 11 41q3 22 0 44q-2 17 -11 41q-10 20 -21 35q-12 15 -29 30q-17 12 -36 21q-13 5 -41 11z" />
    <glyph glyph-name="Q" unicode="Q" horiz-adv-x="541" 
d="M490 24q17 0 29 -12t12 -29q0 -26 -13 -55q-4 -9 -16 -23q-4 -7 -12 -13q-6 -6 -18 -13q-4 -2 -19 -9q-14 -6 -35 -8q-28 -3 -61 13q-12 6 -23 15.5t-24 22t-21 18.5q-4 3 -14 9q-6 2 -9 2h-11q-1 0 -4 -1t-5 -1q-1 0 -3 -1.5t-3 -2.5q-3 -1 -4 -4q-12 -12 -29.5 -11.5
t-28.5 11.5q-12 12 -12 29t12 29q0 1 1 1q0 2 2 2q-10 4 -28 14q-29 19 -47 38q-24 28 -34 50q-15 32 -19 59q-3 18 -3 36v91v147v90q0 56 28.5 105.5t77.5 76.5q26 15 57 23q34 7 63 4q25 -2 36 -6q17 -4 34 -12q27 -12 51 -32q47 -40 65 -101q8 -28 8 -63v-105v-146v-74
q0 -49 -23 -95q-10 -19 -26 -39q-14 -18 -26 -26q-15 -13 -29 -21q-4 -3 -25 -13q8 -6 22.5 -20t22.5 -20t13 -8q4 -2 7 -2h9q2 0 5.5 1t5.5 2q1 0 8 5q4 3 7 7q5 7 5 8t3 11v5q1 17 13 29t28 12zM166 115q9 -12 21 -21q15 -10 27 -16q10 -4 30 -8q16 -1 32 0q20 4 30 8
q12 6 27 16q12 9 21 21q12 18 16 27q4 10 8 30q1 5 1 16v12v115v143v48q0 19 -1 28q-4 20 -8 30q-5 12 -16 27q-9 12 -21 21q-20 13 -27 16q-10 4 -30 8q-16 1 -32 0q-20 -4 -30 -8q-7 -3 -27 -16q-12 -9 -21 -21q-11 -15 -16 -27q-4 -10 -8 -30q-1 -9 -1 -27v-114v-144v-47
q0 -20 1 -30q4 -20 8 -30q4 -9 16 -27z" />
    <glyph glyph-name="R" unicode="R" horiz-adv-x="505" 
d="M481 400q-25 -66 -70 -104q-12 -10 -18 -14l54 -124l36 -84q7 -10 7 -24q-1 -2 -1.5 -6.5t-0.5 -6.5q-5 -19 -22 -28q-18 -10 -36 -5q-22 6 -29 22l-13 31l-59 134l-22 51q-6 -2 -9 -2q-27 -5 -49 -5h-21h-83v-122v-65q0 -19 -14.5 -33t-33.5 -14t-33 14t-14 33v58v141
v150v83v86q1 36 1 109q0 19 14.5 33.5t33.5 14.5h79h65q48 0 84 -12q32 -11 57 -28q32 -22 48 -41q25 -31 35 -52q17 -31 22 -60q6 -35 5 -66q-3 -36 -13 -64zM398 459q2 20 0 40q-2 15 -10 38q-11 21 -20 33q-12 15 -27 27q-14 11 -33 19t-37 11q-18 1 -54 1h-71v-52
q-1 -32 -1 -95v-76v-75h2h75q33 0 49 1q18 3 37 11t33 19q15 12 27 27q9 12 20 33q8 23 10 38z" />
    <glyph glyph-name="S" unicode="S" 
d="M460 212q0 -35 -7 -63q-10 -33 -27 -57q-13 -20 -23 -29q-8 -9 -28 -25q-28 -19 -56 -28q-29 -10 -63 -10q-32 0 -62 6q-71 15 -124 71q-13 15 -13 34q0 18 13 33q14 14 34 14t34 -14q6 -7 20 -19q10 -7 32 -19q23 -8 37 -10q23 -2 44 0q21 5 28 7q12 6 24 15q7 5 19 19
q6 8 14 24q4 10 8 28q2 15 0 31q-4 18 -8 28q-8 16 -14 24q-9 10 -19 19q-13 10 -24 14q-10 4 -28 8q-3 0 -9 0.5t-9 0.5q-24 0 -41 4q-20 4 -28 8q-24 10 -35 17q-28 16 -48 40q-15 16 -22 30q-10 15 -16 34q-11 28 -13 64q0 33 7 60q4 19 13 36q4 9 12 23q19 29 42 47
q20 16 30 21q14 8 34 15q33 11 65 11q4 0 6 -1q103 -3 170 -76q14 -16 14 -34q0 -20 -14 -34q-14 -13 -33.5 -13.5t-33.5 13.5q-6 7 -20 19q-13 10 -32 19q-15 6 -37 10q-7 1 -20 1h-4h-10q-18 -4 -28 -8q-16 -8 -24 -14q-10 -9 -19 -19q-6 -8 -14 -24q-4 -10 -8 -28
q-2 -17 0 -33q4 -18 8 -27q7 -16 14 -24q8 -10 19 -20q16 -10 24 -14q18 -6 27 -7q7 -1 21 -1q20 0 43 -5q9 -2 25 -8q24 -10 34 -16q29 -18 48 -41q14 -16 22 -29t16 -34q11 -30 13 -64z" />
    <glyph glyph-name="T" unicode="T" horiz-adv-x="561" 
d="M257 512v118h-91h-68q-20 0 -34 14t-14 33t14 33.5t34 14.5h50h140h147h69q19 0 33 -14.5t14 -33.5t-14 -33t-33 -14h-50h-102v-113v-152v-153v-118v-47q0 -20 -14 -34t-33 -14t-33.5 14.5t-14.5 33.5v44v116v152v153z" />
    <glyph glyph-name="U" unicode="U" horiz-adv-x="518" 
d="M508 228q0 -16 -4 -48q-4 -27 -20 -61q-16 -30 -37 -51q-23 -24 -49 -39q-34 -18 -60 -23q-51 -10 -108 -2q-33 6 -61 21q-24 11 -52 36q-21 20 -38 50q-17 27 -23 59q-6 28 -6 56v96v151v141v62q0 20 14 34t34 14t34 -14t14 -34v-13v-105v-154v-136v-39v-28q3 -17 9 -31
q4 -9 16 -27q10 -12 22 -22q5 -4 27 -16q11 -4 31 -8q9 -1 28 -1t28 1q20 4 31 8q22 12 27 16q12 10 22 22q12 18 16 27q6 14 9 31v25v96v151v141v62q0 19 14 33t34 14t34 -14t14 -33v-14v-106v-154v-135v-39z" />
    <glyph glyph-name="V" unicode="V" horiz-adv-x="545" 
d="M500 722q18 -5 28 -22.5t5 -36.5q0 -1 -0.5 -1t-0.5 -1l-19 -61l-37 -120l-46 -147l-45 -145q-8 -25 -34 -109l-14 -44q-11 -35 -46 -35q-34 0 -46 35v3q-3 10 -9.5 30t-9.5 30q-24 80 -37 120l-45 148l-44 144l-34 110q-2 7 -6.5 21.5t-6.5 21.5q-6 19 4 36.5t29 22.5
t36 -5t22 -29q1 0 1 -2q12 -40 19 -60l36 -120l46 -148l44 -144q0 -1 1 -2.5t1 -2.5q2 6 5 17.5t5 17.5l46 147l45 144l34 110q9 24 14 43q6 19 23 29t36 5z" />
    <glyph glyph-name="W" unicode="W" horiz-adv-x="936" 
d="M890 723q18 -5 28.5 -22.5t4.5 -35.5q0 -2 -1 -3q-3 -11 -9.5 -32t-9.5 -31l-38 -121l-46 -148l-44 -144q-15 -44 -34 -109q-3 -7 -7.5 -21.5t-6.5 -21.5q-11 -35 -46 -35q-34 0 -46 35v3q-7 20 -19 62q-13 40 -37 120l-46 148l-44 145l-1 2v2q-4 -12 -12 -38l-46 -148
l-45 -144l-34 -109q-2 -7 -6.5 -21.5t-6.5 -21.5q-12 -35 -46 -35q-16 0 -28.5 10t-17.5 25v1q-1 1 -1 2q-2 7 -9 28.5t-10 33.5l-37 120l-45 148l-45 145l-33 109q-6 19 -13 44q-6 18 4 35.5t29 22.5t36 -4.5t22 -28.5q1 -1 1 -3q9 -27 19 -62q16 -49 37 -121l46 -148
l44 -144l1 -2v-2q4 12 12 38l46 147l45 144l34 110q2 6 6.5 20.5t6.5 22.5q0 1 0.5 2.5t1.5 2.5q9 22 31 28q2 1 5 1t4 1h2h1h1h2q3 0 11 -2q20 -6 30 -26q0 -1 1 -1q0 -2 2 -6q0 -2 1 -3q10 -35 19 -62l37 -121l45 -148l44 -144l1 -2q1 -1 1 -2q2 7 5.5 20t5.5 18l46 147
l45 144l34 110q3 8 7.5 23t6.5 20q5 19 22 28.5t36 4.5z" />
    <glyph glyph-name="X" unicode="X" horiz-adv-x="504" 
d="M425 540l-73 -134q-16 -28 -23 -42l51 -94l71 -133l36 -66q9 -17 4.5 -36t-21.5 -29q-16 -10 -36 -5t-29 22q-16 30 -25 45l-69 128q-16 33 -38 71l-25 -45l-73 -133l-36 -66q-10 -17 -29.5 -22t-35.5 5q-17 10 -22 29t5 36q2 3 6 11l56 102l73 133q22 41 23 43l-51 94
l-72 133l-35 66q-10 17 -5 36t22 29q16 10 36 5t29 -22l24 -45l69 -128l39 -71q16 30 25 45l73 133l36 66q9 17 29 22t36 -5q17 -10 21.5 -29t-4.5 -36q-1 -2 -3 -5.5t-3 -5.5z" />
    <glyph glyph-name="Y" unicode="Y" horiz-adv-x="560" 
d="M526 719q17 -10 22 -29.5t-5 -35.5l-31 -57l-70 -127l-70 -127q-12 -20 -25 -46v-14v-145v-92q0 -19 -14 -33t-34 -14t-34 14t-14 33v31v145v74l-23 44l-69 127l-70 128l-32 59q-9 16 -4.5 35.5t21.5 29.5q16 10 36 4.5t29 -21.5l30 -56l69 -127l61 -111l60 108l70 128
l32 58q9 16 29 21.5t36 -4.5z" />
    <glyph glyph-name="Z" unicode="Z" 
d="M413 95q19 0 33 -14t14 -34q0 -19 -14 -33t-33 -14h-81h-152h-83q-26 0 -41 23q-6 12 -6 24q0 13 6 24q6 12 9 17l40 81l62 123l70 141l66 132l33 64h-3h-153h-82q-20 0 -34 14.5t-14 33.5t14 33t34 14h80h152h82q27 0 42 -23q6 -12 6 -24q0 -13 -6 -24l-9 -18
q-14 -26 -40 -80l-62 -123l-70 -141l-66 -132l-33 -64h4h153h82z" />
    <glyph glyph-name="bracketleft" unicode="[" horiz-adv-x="295" 
d="M135 210v-120v-5h108q17 0 29.5 -13t12.5 -30t-12.5 -29.5t-29.5 -12.5h-30h-121q-17 0 -29.5 12.5t-12.5 29.5v44v117v155v155v120v48q0 17 12.5 30t29.5 13h31h120q17 0 29.5 -13t12.5 -30t-12.5 -29.5t-29.5 -12.5h-30h-78v-1v-118v-154v-156z" />
    <glyph glyph-name="backslash" unicode="\" horiz-adv-x="394" 
d="M298 31q-6 14 -16 42q-33 85 -41 107l-55 142l-57 148q-9 26 -47 125l-28 72q-2 4 -2 7q-6 15 4 33q9 15 26 20q19 5 34 -4q11 -7 20 -26q10 -28 16 -42q17 -46 41 -107l54 -142l57 -149l48 -124l27 -72q1 -1 2 -3.5t1 -3.5q6 -15 -5 -34q-8 -15 -26 -20q-17 -5 -33 5
q-13 7 -20 26z" />
    <glyph glyph-name="bracketright" unicode="]" horiz-adv-x="295" 
d="M200 210v156v154v118v1h-78h-30q-17 0 -29.5 12.5t-12.5 29.5t12.5 30t29.5 13h120h31q17 0 29.5 -13t12.5 -30v-48v-120v-155v-155v-117v-44q0 -17 -12.5 -29.5t-29.5 -12.5h-121h-30q-17 0 -29.5 12.5t-12.5 29.5t12.5 30t29.5 13h108v5v120z" />
    <glyph glyph-name="underscore" unicode="_" horiz-adv-x="638" 
d="M602 50q10 0 18 -7.5t8 -17.5t-7.5 -17.5t-18.5 -7.5h-279h-162h-86q-11 0 -18 7t-7 18q0 10 7.5 17.5t17.5 7.5h94h161h272z" />
    <glyph glyph-name="a" unicode="a" horiz-adv-x="581" 
d="M86 115q-33 55 -35 121q-2 65 31 122q31 56 86 88q55 34 121 34.5t122 -32.5q21 -11 36 -25v15q0 17 12.5 30t30.5 13q17 0 30 -13t13 -30v-21v-141v-89q1 -3 2 -9t2 -9l32 -114q4 -17 -4.5 -32.5t-25.5 -20.5q-17 -4 -32.5 4.5t-20.5 25.5q-3 12 -14 50q-21 -25 -53 -46
q-55 -34 -121.5 -36t-122.5 30q-56 31 -89 85zM138 261q-3 -21 0 -42q3 -22 10 -39q8 -17 20 -35q15 -16 29 -28q10 -8 34 -20q13 -5 39 -11q21 -2 42 0q26 6 40 11q21 10 34 20q20 18 28 28q13 17 20 35q8 22 11 39q1 7 1 21t-1 21q-3 20 -11 39q-7 18 -20 35q-8 10 -28 28
q-13 10 -34 20q-22 8 -40 11q-21 2 -42 0q-17 -3 -39 -11q-24 -12 -34 -20q-14 -12 -29 -28q-12 -18 -20 -35q-6 -15 -10 -39z" />
    <glyph glyph-name="b" unicode="b" horiz-adv-x="486" 
d="M173 9q-68 23 -101 83q-22 40 -22 88v26v117v155v136v67q0 17 12.5 29.5t30.5 12.5q17 0 29.5 -12.5t12.5 -29.5v-44v-122v-56q53 23 113 19.5t109 -34.5q56 -34 86 -87q33 -58 33 -122v0q0 -36 -11 -71q-20 -62 -67 -104q-54 -45 -111 -55q-25 -4 -56 -4q-33 0 -58 8z
M253 392q-21 3 -43 0q-18 -3 -40 -11q-18 -7 -35 -20v-2v-132v-38q0 -16 1 -24q2 -7 6 -23q8 -14 12 -20q8 -9 17 -17q2 -1 6 -3.5t7.5 -4.5t7.5 -4q10 -4 23 -6q7 -1 22 -1q17 0 25 1q13 2 37 10q21 11 33 20q15 12 27 27q9 12 20 33q7 16 10 38q1 6 1 20v0q0 14 -1 21
q-3 20 -11 41q-10 20 -21 35q-11 14 -28 29q-22 15 -36 20q-22 8 -40 11z" />
    <glyph glyph-name="c" unicode="c" horiz-adv-x="491" 
d="M83 115q-33 56 -33 122v2v1q0 28 6 54q13 61 58 108.5t105 65.5q68 20 135 0q72 -22 115 -76q8 -8 11 -19q0 -2 0.5 -6t0.5 -5q0 -19 -12 -31t-31 -12q-20 0 -30 12q-16 20 -29 29q-15 12 -34 20q-12 5 -38 11q-21 1 -41 0q-26 -6 -38 -11t-34 -19q-16 -15 -27 -28
q-14 -19 -20 -34q-5 -12 -11 -38q0 -3 -0.5 -10t-0.5 -11v-1v-2q0 -4 0.5 -10.5t0.5 -9.5q5 -23 11 -39q6 -15 20 -34q12 -15 27 -27q13 -10 34 -20q16 -7 38 -10q20 -3 41 0q22 3 38 10q24 12 34 20q16 13 29 29q11 13 30 13q18 0 31 -13q12 -12 12 -30q0 -12 -6 -22l-6 -9
q-15 -18 -42 -39q-57 -43 -131 -46q-65 -3 -125 30q-56 31 -88 85z" />
    <glyph glyph-name="d" unicode="d" horiz-adv-x="580" 
d="M86 115q-33 55 -35 120q-2 66 31 123q30 54 85 87q55 34 121.5 34.5t121.5 -31.5q23 -14 36 -26v57v136v58q0 17 13 30t30 13t30 -13t13 -30v-27v-116v-155v-136v-53q1 -6 5 -18q20 -76 31 -114q4 -16 -4.5 -32t-25.5 -21q-17 -4 -32.5 4.5t-20.5 25.5q-4 17 -14 51
q-21 -25 -53 -46q-55 -34 -121 -36t-123 30q-53 30 -88 85zM138 261q-3 -21 0 -42q4 -24 10 -39q12 -24 20 -34q12 -14 28 -29q18 -12 35 -20q16 -7 39 -10q21 -3 41 0q22 3 40 10q12 6 34 20q20 18 28 29q12 15 20 34t11 39q0 4 0.5 11t0.5 10q0 4 -0.5 11t-0.5 10
q-3 17 -11 39q-6 15 -20 34q-12 16 -28 28q-19 14 -34 20q-22 8 -40 11q-20 2 -41 0q-19 -3 -39 -11q-18 -7 -35 -20q-10 -8 -28 -28q-10 -13 -20 -34q-7 -17 -10 -39z" />
    <glyph glyph-name="e" unicode="e" horiz-adv-x="507" 
d="M110 82q-43 50 -55 110q-12 72 9 128q25 64 70 101q52 44 111 54q38 7 67 3q20 -1 40 -6q13 -4 37 -14q61 -26 102 -87q10 -14 4 -33q-4 -13 -11 -19q-3 -2 -8 -7q-9 -6 -25 -18l-107 -78l-120 -89l-21 -15l27 -15q26 -8 40 -10q6 -1 20 -1q3 0 4 -1q1 1 4 1q13 0 20 1
q23 3 39 10q17 8 35 21q10 8 14 12q13 13 30.5 13t30.5 -13q12 -12 12 -30t-12 -30q-70 -70 -169 -70h-4h-4q-52 0 -105 24q-16 7 -36 22q-25 20 -39 36zM137 261q-1 -21 0 -42q3 -20 11 -39q0 -1 1 -2l106 78l120 88q6 4 16 12q-4 4 -7 6q-15 12 -34 20t-39 11q-21 1 -42 0
q-17 -3 -39 -11q-15 -6 -34 -20q-16 -12 -28 -28q-14 -19 -20 -34q-8 -22 -11 -39z" />
    <glyph glyph-name="f" unicode="f" horiz-adv-x="438" 
d="M50 521q0 32 10 61q4 15 14 33q9 14 20 29q17 22 46 41q29 18 58 25q73 17 139 -18q30 -17 51 -40q16 -20 22 -30q8 -13 16 -34q6 -16 -4 -33q-9 -15 -26 -20q-18 -5 -33 4q-9 6 -15 16l-3 6q-6 13 -15 27q-10 11 -20 19q-8 7 -24 14q-10 4 -28 8q-14 2 -29 0
q-18 -4 -27 -8q-16 -7 -24 -14q-11 -9 -20 -20q-7 -8 -14 -24q-4 -9 -8 -27q-1 0 0 -16v-17v-71h15h116q17 0 29.5 -12.5t12.5 -30.5q0 -17 -12.5 -29.5t-29.5 -12.5h-55h-76v-107v-137v-60q0 -18 -13 -30.5t-30 -12.5q-18 0 -30.5 12.5t-12.5 30.5v17v107v154v139v61z" />
    <glyph glyph-name="g" unicode="g" horiz-adv-x="583" 
d="M51 234q-2 65 31 122q31 56 85 88q56 33 122 33.5t122 -31.5q30 -17 54 -43l23 87q5 17 20.5 26t32.5 4q17 -4 26 -19.5t4 -32.5l-6 -24l-30 -109v-3v-100v-153v-136v-39q0 -26 -4 -49q-4 -29 -18 -60q-10 -25 -32 -53q-19 -24 -45 -42q-21 -16 -54 -30q-27 -11 -51 -14
q-26 -4 -38 -4q-15 0 -43 4q-72 12 -126 65q-13 13 -13 31t13 30q12 13 29.5 12.5t30.5 -12.5q2 -2 6.5 -6t6.5 -6q11 -8 35 -20q22 -8 40 -11q21 -1 42 0q19 3 40 11q21 10 34 20q16 13 29 29q14 19 20 34q8 21 11 40q1 15 1 45v118v22q-20 -16 -31 -23q-55 -34 -121 -36
t-122 29q-55 30 -89 85q-33 55 -35 121zM138 259q-3 -21 0 -42q3 -22 10 -39q6 -12 20 -34q18 -20 29 -28q15 -12 34 -20t39 -11q21 -1 42 0q17 3 39 11q15 6 34 20q16 12 28 28q14 19 20 34q8 22 11 39q1 7 1 21t-1 21q-3 20 -11 39t-20 34q-8 11 -28 29q-22 14 -34 20
q-17 7 -39 10q-21 3 -42 0q-24 -4 -39 -10q-19 -9 -34 -20q-16 -13 -29 -29q-10 -15 -20 -34q-6 -15 -10 -39z" />
    <glyph glyph-name="h" unicode="h" horiz-adv-x="453" 
d="M247 476q67 0 114 -34q17 -12 28 -23q8 -8 22 -28q19 -27 26 -57q6 -23 6 -60v-136v-97q0 -17 -12.5 -30t-30.5 -13q-17 0 -30 13t-13 30v21v141v64l1 17q0 16 -1 16q-4 18 -7 27q-6 11 -14 23q-9 10 -19 19q-13 9 -23 13q-9 4 -27 8q-20 2 -41 0q-18 -4 -27 -8
q-5 -2 -23 -13q-10 -9 -19 -19q-9 -13 -13 -23q-4 -9 -8 -27v-26v-136v-97q0 -17 -13 -30t-30 -13t-30 13t-13 30v99v120v3v52v141v147v80q0 17 12.5 29.5t30.5 12.5q17 0 30 -12.5t13 -29.5v-52v-153v-33q22 15 55 25q27 6 56 6z" />
    <glyph glyph-name="i" unicode="i" horiz-adv-x="275" 
d="M209 656q18 0 30.5 -13t12.5 -30t-12.5 -30t-30.5 -13q-17 0 -29.5 13t-12.5 30t12.5 30t29.5 13zM93 381q-18 0 -30.5 12.5t-12.5 30.5q0 17 12.5 30t30.5 13h5h5h50q45 -2 76 -30q14 -13 22 -28q5 -9 9 -22q2 -7 4 -23q1 -10 1 -29v-57v-152v-83q0 -18 -13 -30.5
t-30 -12.5t-30 12.5t-13 30.5v83v153v57v23q-1 1 -1 3t-1 3l-3 6l-5 5l-6 3q-1 1 -3 1t-3 1h-9.5h-12h-9.5h-33z" />
    <glyph glyph-name="j" unicode="j" horiz-adv-x="493" 
d="M317 548q-18 0 -30.5 13t-12.5 30q0 18 12.5 30.5t30.5 12.5q17 0 29.5 -12.5t12.5 -30.5q0 -17 -12.5 -30t-29.5 -13zM193 -292q8 2 22 6q6 3 18 11q9 7 15 15q6 7 11 19q5 11 6 21t1 29v135v122v87v107v68v18v4q0 12 3 24q2 8 8 22q7 17 20 29q13 15 29 22q20 8 22 9
q7 2 23 4h11h59q17 0 29.5 -13t12.5 -30t-12.5 -30t-29.5 -13h-35h-31q-3 0 -7 -2l-6 -3l-5 -5q-2 -4 -4 -6q0 -1 -0.5 -3.5t-0.5 -3.5q-1 -6 -1 -17v-41v-133v-86v-96v-147v-38q0 -22 -4 -39q-2 -12 -12 -34q-4 -10 -13 -23q-22 -31 -51 -49q-13 -9 -32 -16q-18 -6 -26 -7
q-26 -4 -39 -3q-24 2 -41 7q-41 14 -70 41q-13 13 -12.5 31t12.5 30q13 13 30.5 12.5t30.5 -12.5q4 -4 7 -6q7 -5 18 -11q14 -4 22 -6h22z" />
    <glyph glyph-name="k" unicode="k" horiz-adv-x="424" 
d="M392 527q16 -9 20 -26t-4 -32l-26 -47l-72 -132l-30 -54l43 -78l50 -90q9 -16 4.5 -33t-19.5 -26t-32.5 -4t-26.5 20l-55 100l-38 67h-70v-99v-47q0 -17 -13 -30t-30 -13t-30 13t-13 30v45v117v152v153v117v48q0 17 13 29.5t30 12.5t30 -12.5t13 -29.5v-45v-117v-152v-86
h69q5 8 15 26l72 131l42 77q8 15 26 19.5t32 -4.5z" />
    <glyph glyph-name="l" unicode="l" horiz-adv-x="146" 
d="M136 48q0 -18 -13 -30.5t-30 -12.5q-18 0 -30.5 12.5t-12.5 30.5v43v115v152v153v118v47q0 18 12.5 30.5t30.5 12.5q17 0 30 -12.5t13 -30.5v-43v-115v-152v-153v-118v-47z" />
    <glyph glyph-name="m" unicode="m" horiz-adv-x="971" 
d="M575 400q26 36 65 55q32 17 59 21q26 4 37 4h15q64 0 113 -30q31 -20 47 -40t21 -29q7 -12 16 -33q13 -31 13 -78v-127v-100q0 -18 -12.5 -30.5t-29.5 -12.5q-18 0 -30.5 12.5t-12.5 30.5v12v136v65q0 24 -1 36q-2 10 -8 30q-10 18 -16 26q-8 11 -21 22q-12 9 -27 15
q-9 4 -29 8q-9 1 -28 1q-17 0 -26 -1q-20 -4 -30 -8q-15 -7 -26 -15q-12 -10 -22 -22q-8 -11 -15 -26q-7 -17 -8 -30q-1 -6 -1 -16q0 -6 -1 -9v-124v-100q0 -18 -13 -30.5t-30 -12.5t-30 12.5t-13 30.5v12v136v65q0 30 -1 36q-1 13 -8 30q-7 15 -15 26q-10 12 -22 22
q-11 8 -26 15q-12 5 -30 8q-9 1 -27 1t-27 -1q-20 -4 -29 -8q-14 -6 -27 -15q-18 -18 -21 -22q-6 -8 -16 -26q-6 -20 -8 -30q0 -11 -1 -16v-6v-145v-82q0 -17 -12.5 -30t-30.5 -13q-17 0 -30 13t-13 30v1v92v153v56v23q0 2 -2 8q-2 4 -4 6q-1 2 -5 6q-1 0 -3.5 1.5t-3.5 2.5
t-4 1.5t-4 0.5h-32h-36q-18 0 -30.5 13t-12.5 30t12.5 30t30.5 13h19h36q26 0 42 -5q40 -12 65 -48q20 18 41 28q30 17 59 21q24 4 37 4h15q63 0 112 -30q29 -18 47 -40q2 -1 5 -4.5t4 -5.5z" />
    <glyph glyph-name="n" unicode="n" horiz-adv-x="620" 
d="M271 125v-82q0 -17 -12.5 -30t-30.5 -13q-17 0 -30 13t-13 30v1v93v153v56v23q0 3 -2 7q-1 3 -3 7q-1 1 -3 2.5t-3 2.5t-3 2.5t-3 1.5q-2 0 -4 1t-4 1h-32h-35q-18 0 -30.5 12.5t-12.5 30.5q0 17 12.5 30t30.5 13h18h37q26 0 42 -5q39 -14 62 -47q15 14 40 28
q35 16 60 20q18 3 35 3h16q65 0 113 -31q28 -18 46 -40q14 -18 21 -29q9 -17 15 -33q12 -32 12 -75v-129v-99q0 -18 -13 -30.5t-30 -12.5t-30 12.5t-13 30.5v13v137v65q0 24 -1 36q-1 14 -8 29t-15 26q-9 12 -21 21q-13 10 -25 15q-10 4 -30 8q-9 1 -26 1q-18 0 -27 -1
q-18 -4 -29 -8q-15 -7 -26 -15q-10 -9 -21 -21q-5 -8 -15 -26q-6 -16 -8 -29q0 -3 -0.5 -8.5t-0.5 -7.5v-5v-148z" />
    <glyph glyph-name="o" unicode="o" horiz-adv-x="539" 
d="M499 123q-28 -50 -79 -85q-55 -35 -120 -38q-66 -3 -123 29q-56 29 -90 83q-34 56 -36 120q-2 67 30 123q31 55 85 88q55 34 121 35t122 -31q55 -33 87 -86q33 -55 33 -122q0 -63 -30 -116zM442 218q1 7 1 21t-1 21q-3 22 -10 39q-10 21 -20 34q-13 15 -28 28
q-13 10 -34 20q-17 7 -39 10q-21 3 -42 0q-22 -3 -39 -10q-21 -10 -34 -20q-15 -13 -28 -28q-14 -22 -20 -34q-7 -17 -10 -39q-3 -21 0 -42q3 -22 10 -38q6 -13 20 -35q13 -15 28 -28q22 -14 34 -20q17 -7 39 -10q21 -3 42 0q22 3 39 10q12 6 34 20q15 13 28 28q11 14 20 35
q7 16 10 38z" />
    <glyph glyph-name="p" unicode="p" horiz-adv-x="697" 
d="M654 386q32 -58 33 -122q0 -64 -29 -124q-14 -25 -35 -51q-16 -20 -46 -41q-21 -16 -54 -30q-22 -9 -52 -14q-35 -6 -69 -3q-28 4 -42 8q-19 4 -39 14q-26 11 -56 34v-46v-151v-114v-45q0 -18 -13 -30.5t-30 -12.5t-30 12.5t-13 30.5v4v70v129v155v150v112v21v3v8v13
q0 1 -2 7q-1 1 -3 5l-5 5q-1 1 -2.5 2t-2.5 1q-6 2 -7 2h-9.5h-12h-9.5h-33q-17 0 -30 13t-13 30t13 30t30 13h44q25 0 38 -2q17 -3 34 -13q18 -11 28 -23q11 13 22 21q31 26 58 37q36 17 66 21q34 6 70 3q37 -5 62 -14q38 -16 56 -28q53 -36 83 -90zM600 236q3 24 0 47
q-5 24 -12 44q-8 19 -23 39q-14 17 -32 32q-22 15 -38 22q-21 9 -44 12q-24 3 -47 0q-22 -3 -45 -12q-16 -7 -38 -22q-17 -15 -32 -32q-6 -10 -14 -20q-2 -3 -5.5 -9t-4.5 -7v-37v-120q9 -9 25 -23q20 -20 31 -29q22 -14 38 -22q23 -9 45 -12q23 -3 47 0q23 3 44 12
q16 7 38 22q18 15 32 32q15 20 23 39q7 20 12 44z" />
    <glyph glyph-name="q" unicode="q" horiz-adv-x="702" 
d="M649 481q17 0 30 -12.5t13 -30.5q0 -17 -13 -30t-30 -13h-34h-30q-1 0 -3.5 -0.5t-3.5 -0.5t-3 -2t-3 -2l-4 -4q0 -1 -2 -3t-2 -3t-0.5 -3t-0.5 -4q0 -1 -0.5 -3t-0.5 -3v-67v-127v-155v-150v-115v-45q0 -17 -12.5 -30t-29.5 -13q-18 0 -30.5 13t-12.5 30v7v75v131v133
h-1q-18 -15 -34 -24q-19 -11 -37 -18q-65 -26 -142 -13q-26 4 -60 19q-22 10 -45 26q-32 26 -45 42q-22 28 -34 52q-30 59 -28 124q3 68 35 121q29 52 84 89q53 34 119 40q68 7 136 -25q30 -14 57 -38q2 -2 8 -7t8 -8q6 9 7 10q14 16 28 22q27 15 58 15h58zM449 145l28 26
v55v93q-10 14 -15 22q-11 17 -13 20q-20 22 -32 31q-15 12 -38 22q-20 8 -45 13q-23 2 -47 0q-26 -5 -44 -13q-23 -10 -38 -22q-21 -18 -32 -32q-14 -19 -23 -38q-8 -22 -12 -45q-2 -23 0 -47q5 -24 12 -44q9 -19 23 -38q14 -18 32 -32q19 -14 38 -23q20 -7 44 -12
q24 -3 47 0q22 5 45 12q19 9 38 23q1 1 32 29z" />
    <glyph glyph-name="r" unicode="r" horiz-adv-x="455" 
d="M167 392q-3 0 -7 2h-32h-35q-18 0 -30.5 12.5t-12.5 30.5q0 17 12.5 29.5t30.5 12.5h18h37q29 0 42 -5q42 -14 64 -49l2 -4q10 10 27 22q55 36 120 36q17 0 29.5 -13t12.5 -30t-12.5 -30t-29.5 -13q-12 0 -18 -1q-19 -4 -33 -9q-20 -9 -30 -17q-14 -12 -23 -24
q-10 -13 -18 -29q-6 -17 -9 -33q0 -3 -0.5 -9t-0.5 -9v-8v-130v-81q0 -18 -13 -30.5t-30 -12.5q-18 0 -30.5 12.5t-12.5 30.5v1v93v153v56v23q-1 1 -1 3.5t-1 3.5q0 1 -1.5 3.5t-2.5 3.5l-5 5q-4 2 -7 4z" />
    <glyph glyph-name="s" unicode="s" horiz-adv-x="340" 
d="M136 343v-7v-2v-1v-7q2 -8 4 -14q4 -8 7 -12q6 -6 10 -9q3 -3 11 -7q5 -2 13 -4h15q22 -2 33 -5q26 -8 55 -30q46 -40 46 -104v-1v-1q0 -60 -40 -98q-41 -41 -98 -41h-4h-3q-70 0 -118 51q-13 15 -13 31q0 17 13 30q12 12 30 12.5t30 -12.5l11 -11q3 -2 8.5 -5.5
t8.5 -4.5q15 -4 20 -5h10q2 0 3 -1q1 1 4 1h7q10 2 13 4q8 4 12 7t10 9q1 2 3.5 6t3.5 6t2 7t2 7v7v1v1v7q0 1 -1.5 6t-2.5 8q-1 2 -7 11q-4 6 -10 10q-4 3 -12 7q-2 0 -6 1.5t-7 2.5h-14q-23 2 -33 5q-31 9 -55 30q-47 39 -47 104v1v2q0 57 41 98q40 40 98 40h5
q68 -2 114 -51q12 -13 12 -30q0 -19 -12 -31t-30.5 -12.5t-30.5 12.5q-1 2 -3 3.5t-4.5 4l-3.5 3.5q-5 4 -17 10q-11 4 -19 5q-2 0 -5.5 0.5t-5.5 0.5h-3h-4q-2 -1 -7 -2t-7 -2t-11 -7q-6 -4 -10 -10q-3 -4 -7 -12q-2 -3 -4 -13z" />
    <glyph glyph-name="t" unicode="t" horiz-adv-x="314" 
d="M88 92q-36 50 -38 115v2v13v102v153v139v61q0 18 13 30.5t30 12.5t30 -12.5t13 -30.5v-12v-102v-101h9h116q18 0 30.5 -12.5t12.5 -29.5q0 -18 -12.5 -30.5t-30.5 -12.5h-49h-76v-107v-58q0 -11 1 -17q4 -22 8 -31q9 -17 16 -27q14 -16 22 -22q18 -12 28 -16q15 -6 31 -9
q11 0 16 -1q17 0 30 -12.5t13 -29.5q0 -18 -13 -30.5t-30 -12.5q-34 0 -64 10q-34 11 -55 28q-17 12 -28 23q-9 9 -23 27z" />
    <glyph glyph-name="u" unicode="u" horiz-adv-x="448" 
d="M395 479q18 0 30.5 -13t12.5 -30v-80v-142v-17q0 -17 -3 -34q-2 -25 -19 -60q-16 -28 -38 -49q-23 -23 -50 -35q-26 -11 -35 -13q-18 -5 -37 -6q-34 -2 -64 7q-36 11 -56 26q-17 12 -28 23q-9 8 -23 28q-17 23 -27 56q-8 28 -8 65v133v98q0 17 13 30t30 13t30 -13t13 -30
v-18v-140v-64q0 -23 1 -35q1 -9 7 -27q5 -12 14 -24q9 -11 20 -20q16 -10 24 -14q10 -4 28 -8q14 -2 29 0q18 4 27 8t25 14q7 6 19 20q7 8 14 24q4 9 8 27q1 9 1 26v133v98q0 17 12.5 30t29.5 13z" />
    <glyph glyph-name="v" unicode="v" horiz-adv-x="474" 
d="M432 481q17 -5 26 -20q10 -18 4 -33q-5 -13 -15 -36t-13 -31l-56 -136l-56 -133q-20 -49 -25 -61q-3 -11 -11 -19q-1 -1 -3.5 -3t-4.5 -3q-10 -6 -22 -6q-18 0 -30 12q-8 8 -11 19v1l-27 66l-56 136l-55 134q-16 40 -25 60q-6 14 5 33q7 15 25 20t33 -5q8 -4 16 -15
q1 -2 2.5 -5.5t1.5 -4.5l27 -67l56 -136q26 -62 38 -94l43 103l56 134q16 40 25 60q3 11 11 19q2 2 8 6q16 10 33 5z" />
    <glyph glyph-name="w" unicode="w" horiz-adv-x="797" 
d="M755 477q17 -5 26 -20q10 -17 4 -33l-27 -63l-56 -135l-55 -134q-11 -26 -25 -61q-5 -12 -11 -19l-9 -6q-10 -6 -22 -6q-18 0 -30 12q-8 10 -11 19l-26 63l-55 135l-40 97l-42 -100l-55 -134q-5 -12 -14.5 -34t-11.5 -27q-3 -11 -11 -19q-2 -2 -8 -6q-10 -6 -22 -6
q-18 0 -30 12q-8 10 -11 19l-26 63l-55 135l-55 135q-9 20 -25 60q-6 17 4 33q9 15 26 20q18 5 33 -4q9 -6 15 -16q0 -1 1.5 -4.5t2.5 -5.5q18 -42 26 -63l56 -135l38 -95l42 99l55 134q9 20 25 60q3 11 11 19q2 1 5 3.5t4 3.5q10 6 22 6h1q11 0 22 -6q9 -6 15 -16
q2 -4 4 -10q18 -42 26 -63l56 -135l39 -95q13 33 41 99l55 134q9 20 25 60q6 14 11 19q1 1 4 3.5t5 3.5q15 9 33 4z" />
    <glyph glyph-name="x" unicode="x" horiz-adv-x="365" 
d="M300 154l49 -90q8 -15 4 -32t-19 -26t-33 -4.5t-26 19.5q-1 1 -2.5 4t-2.5 4l-64 119q-2 4 -4 6q-7 -15 -23 -43l-49 -90q-8 -15 -26 -19.5t-33 4.5t-19 26t4 32q0 1 1 2l57 104l37 68l-47 87l-48 90q-8 16 -4 33t19 26q15 8 33 4t26 -19q0 -1 2 -4t2 -5l64 -118
q3 -4 4 -8l25 45l48 90q8 15 26 19t33 -4q15 -9 19 -26t-4 -33q-1 -1 -1 -2l-58 -106l-36 -69z" />
    <glyph glyph-name="y" unicode="y" horiz-adv-x="455" 
d="M423 460q15 -8 20 -25q3 -11 0 -23l-2.5 -5t-1.5 -5q-3 -6 -8 -17.5t-6 -13.5l-44 -100l-60 -138l-62 -140l-49 -110q-4 -9 -11 -25.5t-8 -18.5q-6 -14 -26 -20q-16 -4 -33 4q-15 10 -19 26q-3 11 0 23q1 2 2.5 5.5t1.5 4.5q2 5 6.5 15t6.5 15l45 101l26 59q-2 2 -4 8
l-52 119l-61 138l-29 65q-5 9 -5 22q0 1 0.5 5t0.5 6q5 17 20 26q17 8 33 4q20 -7 25 -20l12 -26l53 -120q17 -41 53 -121l50 113l48 110l20 44q5 13 25 20q17 5 33 -5z" />
    <glyph glyph-name="z" unicode="z" horiz-adv-x="449" 
d="M396 86q18 0 30.5 -13t12.5 -30q0 -18 -12.5 -30.5t-30.5 -12.5h-67h-152h-84q-26 0 -37 21q-6 10 -6 22t6 21l18 24l72 94l95 123l68 88h-131h-85q-17 0 -30 13t-13 30t13 30t30 13h66h152h85q24 0 37 -21q6 -10 6 -22t-6 -22q-6 -7 -18 -23l-72 -94l-95 -123l-69 -88
h133h84z" />
    <glyph glyph-name="braceleft" unicode="{" horiz-adv-x="365" 
d="M50 365v1q0 1 0.5 4.5t0.5 5.5l2 4q0 1 1 2v1q1 1 1 2q1 0 1 1q1 1 3 4q10 13 22 15q8 2 11 2h5h8q2 0 8 2q2 1 8 5q1 1 2.5 2t3 3t2.5 3q4 5 10 17q6 17 10 40q2 18 2 54v59v87v5q0 17 13 29.5t30 12.5h115h3q17 0 30 -12.5t13 -29.5t-13 -29.5t-30 -12.5h-76v-24v-58
q0 -40 -1 -60q-2 -65 -27 -112q-10 -16 -18 -25q8 -8 12 -16q13 -19 21 -43q13 -42 13 -120v-99h73h3q17 0 30 -12.5t13 -29.5q0 -18 -13 -30.5t-30 -12.5h-115h-3q-17 0 -30 12.5t-13 30.5v65v59v18v22v19q-1 4 -1 11t-1 10q-3 24 -10 41q-2 3 -5.5 9t-4.5 9l-9 9
q-3 1 -9 5q-3 0 -7 2h-12q-3 0 -11 2q-13 2 -21 13l-1 1q0 1 -1 1q0 1 -1 1l-1 1v2q-1 0 -1 1t-1 1v1v1l-1 1v1q-1 1 -1 2q0 2 -1 2q0 1 -0.5 4.5t-0.5 5.5v1v1z" />
    <glyph glyph-name="bar" unicode="|" horiz-adv-x="146" 
d="M136 48q0 -18 -13 -30.5t-30 -12.5q-18 0 -30.5 12.5t-12.5 30.5v43v115v152v153v118v47q0 18 12.5 30.5t30.5 12.5q17 0 30 -12.5t13 -30.5v-43v-115v-152v-153v-118v-47z" />
    <glyph glyph-name="braceright" unicode="}" horiz-adv-x="365" 
d="M355 365v-1v-1q0 -2 -0.5 -5.5t-0.5 -4.5l-1 -2q-1 -1 -1 -2v-1q0 -1 -1 -1v-1v-1l-1 -1l-1 -1q0 -1 -1 -3l-1 -1q-1 0 -1 -1l-1 -1q-8 -11 -21 -13q-8 -2 -11 -2h-12q-4 -2 -7 -2q-6 -4 -9 -5l-9 -9q-2 -3 -5.5 -9t-4.5 -9q-7 -17 -10 -41q0 -3 -1 -10t-1 -11v-19v-22
v-18v-59v-65q0 -18 -13 -30.5t-30 -12.5h-3h-115q-17 0 -30 12.5t-13 30.5q0 17 13 29.5t30 12.5h3h73v99q0 78 13 120q8 24 21 43q4 8 12 16q-8 9 -18 25q-25 47 -27 112q-1 20 -1 60v58v24h-76q-17 0 -30 12.5t-13 29.5t13 29.5t30 12.5h3h115q17 0 30 -12.5t13 -29.5v-5
v-87v-59q0 -36 2 -54q4 -23 10 -40q6 -12 10 -17l8 -8q6 -4 8 -5q6 -2 8 -2h8h5q3 0 11 -2q12 -2 22 -15q1 -1 3 -4l1 -1q0 -1 1 -2v-1q1 -1 1 -2l2 -4q0 -2 0.5 -5.5t0.5 -4.5v-1z" />
    <glyph glyph-name="cent" unicode="&#xa2;" horiz-adv-x="461" 
d="M304 -7v-33q0 -16 -11.5 -27.5t-27.5 -11.5t-27.5 11.5t-11.5 27.5v4v31q-38 8 -66 25q-49 28 -79 79q-31 53 -31 112v2v1q0 28 8 58q15 55 56.5 97t97.5 58q4 1 14 3v40q0 16 11.5 27.5t27.5 11.5t27.5 -11.5t11.5 -27.5v-4v-34q19 -3 32 -7q64 -21 104 -70q6 -7 10 -17
q0 -2 0.5 -5.5t0.5 -5.5q0 -16 -11 -27q-12 -12 -28 -12q-18 0 -28 12q-12 15 -27 27q-12 9 -31 18q-5 2 -22 7v-85v-142v-52q17 5 22 7q19 9 31 18q15 12 27 27q10 12 28 12q16 0 28 -12q11 -11 11 -27q0 -10 -5 -20q-1 -1 -3 -3.5t-3 -4.5q-19 -24 -46 -41
q-40 -28 -90 -36zM158 124q16 -18 26 -26q16 -11 31 -18q5 -2 11 -4v87v143v43q-6 -1 -11 -4q-15 -7 -31 -18q-10 -8 -26 -26q-10 -15 -19 -32q-6 -17 -9 -36q-1 -6 -1 -19v-1v-2q0 -13 1 -19q3 -20 9 -36q12 -22 19 -32z" />
    <glyph glyph-name="sterling" unicode="&#xa3;" horiz-adv-x="550" 
d="M496 200q18 0 31 -13t13 -30q0 -63 -44 -107q-43 -45 -107 -45q-16 0 -31 3q-17 5 -28 10q-15 7 -41 27q-9 7 -27 24.5t-29 25.5q-14 10 -22 14q-2 0 -7 1.5t-8 2.5h-17q-3 -1 -8.5 -2.5t-7.5 -1.5q-9 -6 -10 -7q-6 -3 -9 -9q-4 -6 -8 -13q-6 -17 -20 -25q-16 -10 -33 -5
q-19 5 -26 20q-11 18 -5 34q9 23 19 37q1 1 7 8.5t10 11.5q6 6 20 16q15 11 38 18h2v12v131v132v43v24q1 14 5 35q1 5 3 10.5t5 12t4 10.5q12 26 32 48q16 18 44 36q30 16 55 21q13 2 35 4q13 0 37 -4q31 -5 58 -21q15 -7 29 -20q9 -7 18 -17q11 -12 21 -29q9 -14 15 -32
q6 -14 -4 -34q-11 -16 -26 -20q-17 -5 -33 5q-10 6 -16 15l-3 6q-4 11 -14 25q-7 10 -18 18q-9 7 -22 13q-15 6 -25 7q-14 2 -27 0q-9 -1 -25 -7q-16 -8 -23 -13q-9 -8 -18 -18q-7 -9 -13 -22q-4 -12 -6 -25q-1 -8 -1 -24v-35v-40h16h105q17 0 30 -12.5t13 -30.5t-13 -31
t-30 -13h-57h-64v-1v-135v-27q9 -3 17 -7q18 -8 42 -27q8 -7 26.5 -24.5t28.5 -25.5q12 -9 20 -12q5 -2 13 -4h15q8 1 17 5q7 3 14 8l5 5q5 4 7 7q5 7 8 14q4 9 5 17v9q0 17 13 30t30 13z" />
    <glyph glyph-name="guillemotleft" unicode="&#xab;" horiz-adv-x="443" 
d="M230 145q-17 -10 -35.5 -4.5t-28.5 22.5l-52 82l-57 90q-15 24 0 48l52 83l57 90q10 17 28.5 22t35.5 -5t22 -29t-5 -36l-51 -82l-42 -67l37 -58q38 -60 56 -91q10 -17 5 -36t-22 -29zM236 335q-15 24 0 48l51 83l57 90q11 17 29.5 22t35.5 -5t22 -29t-5 -36l-52 -82
l-41 -67l36 -58l57 -91q10 -17 5 -36t-22 -29q-17 -9 -35.5 -4t-29.5 22l-52 82z" />
    <glyph glyph-name="guillemotright" unicode="&#xbb;" horiz-adv-x="443" 
d="M253 145q-17 10 -22 29t5 36q18 31 56 91l37 58l-42 67l-51 82q-10 17 -5 36t22 29t35.5 5t28.5 -22l57 -90l52 -83q15 -24 0 -48l-57 -90l-52 -82q-10 -17 -28.5 -22.5t-35.5 4.5zM247 335l-56 -90l-52 -82q-11 -17 -29.5 -22t-35.5 4q-17 10 -22 29t5 36l57 91l36 58
l-41 67l-52 82q-10 17 -5 36t22 29t35.5 5t29.5 -22l57 -90l51 -83q15 -24 0 -48z" />
    <glyph glyph-name="questiondown" unicode="&#xbf;" horiz-adv-x="404" 
d="M256 592q-29 0 -50 21t-21 50t21 50t50 21t50 -21t21 -50t-21 -50t-50 -21zM69 79q-17 35 -18 71q-1 8 1 26q5 32 7 37q8 30 27 60q20 33 44 58q9 10 31 31.5t32 34.5l9 12q2 2 4.5 6t3.5 6q0 2 1 7t2 7q2 19 2 58q0 19 14.5 33.5t33.5 14.5t33 -14t14 -34q0 -33 -1 -49
q-4 -49 -19 -73q-19 -30 -41 -55l-33 -32q-16 -16 -31 -34q-21 -28 -30 -49q-6 -15 -9 -32q-2 -12 0 -24t4 -16q4 -8 7 -11q4 -6 10 -10q9 -6 19 -11q9 -4 27 -8h26l21 6q5 3 11 7q6 5 18 17q6 10 8 15q1 0 1 2t1 2q0 20 13.5 33.5t33.5 13.5t34 -14t13 -33q0 -34 -22 -66
q-10 -15 -23 -29q-9 -8 -27 -22q-8 -5 -31 -16q-8 -3 -26 -7q-24 -4 -38 -4t-38 4q-20 4 -30 8q-20 8 -37 19q-35 24 -52 54z" />
    <glyph glyph-name="Agrave" unicode="&#xc0;" horiz-adv-x="546" 
d="M241 803l-42 98q-5 6 -5 18q0 1 0.5 4t0.5 5q3 15 16 21q13 7 28 4q17 -4 21 -16v-1l43 -97q5 -8 5 -18q0 -1 -1 -4t-1 -5q-3 -14 -16 -22q-14 -7 -28 -3q-15 4 -21 16zM144 26q-5 -18 -22 -28t-36 -5t-29 22.5t-4 36.5v2l20 62l37 120l46 148l45 144q8 25 34 109
q3 7 7.5 21.5t6.5 21.5q10 35 46 35q35 0 45 -35q1 -1 1 -2q9 -27 19 -62l37 -120l45 -147l45 -145l33 -109q2 -5 6.5 -20t7.5 -23q5 -19 -5 -36.5t-28 -22.5q-19 -5 -36 5t-23 28q0 2 -1 3q-14 47 -19 61q-24 80 -37 120q-1 5 -3 13h-99h-77l-14 -44l-34 -109zM283 471
l-46 -148q-1 -1 -1 -2.5t-1 -2.5h82h35l-12 40l-44 144q0 1 -1 2.5t-1 2.5q-3 -12 -11 -36z" />
    <glyph glyph-name="Aacute" unicode="&#xc1;" horiz-adv-x="546" 
d="M297 790q-12 8 -17 22q-3 9 0 19l4 8l42 98q6 12 22 16q15 3 27 -4q13 -6 16 -21q3 -9 0 -19q-2 -6 -3 -8v-1l-43 -97q-4 -12 -21 -16q-13 -4 -27 3zM206 223l-14 -44l-34 -109l-14 -44q-5 -18 -22 -28t-36 -5q-18 5 -28.5 23t-4.5 36v2l20 62l37 120l46 148l45 144
q8 25 34 109q3 7 7.5 21.5t6.5 21.5q10 35 46 35q34 0 46 -35v-2q9 -27 19 -62l37 -120l46 -147q14 -49 44 -145l33 -109q2 -5 6.5 -20t7.5 -23q5 -19 -5 -36.5t-28 -22.5q-19 -5 -36 5t-23 28q0 2 -1 3q-14 47 -19 61l-36 120q-2 5 -4 13h-99h-77zM283 471l-46 -148
q-1 -1 -1 -2.5t-1 -2.5h82h35l-12 40l-44 144q0 1 -1 2.5t-1 2.5q-3 -12 -11 -36z" />
    <glyph glyph-name="Acircumflex" unicode="&#xc2;" horiz-adv-x="547" 
d="M86 -7q-18 5 -28.5 23t-4.5 36q1 1 1 2q3 10 9.5 30.5t9.5 31.5l38 120l46 148l45 144q26 84 34 109q2 7 6.5 21.5t6.5 21.5q12 35 46 35q36 0 46 -35q0 -1 1 -2q10 -35 19 -62l36 -120l46 -147l44 -145l34 -109q2 -8 6.5 -22.5t6.5 -20.5q6 -18 -4.5 -36t-28.5 -23
q-19 -5 -36 5t-23 28v3q-5 14 -19 61l-37 120q-1 3 -2.5 7t-1.5 6h-99h-77q-3 -10 -14 -44q-19 -65 -34 -109q-2 -8 -6.5 -22.5t-6.5 -21.5q-6 -18 -23 -28t-36 -5zM283 471l-46 -148q0 -1 -0.5 -2.5t-0.5 -2.5h81h36q-7 24 -13 40l-44 144q0 1 -0.5 2.5t-0.5 2.5zM214 797
q-11 -10 -25.5 -10t-25.5 10q-10 10 -10 25t10 25t15 14l86 82q26 22 51 0l14 -14l87 -82q10 -10 10 -25t-10 -25q-11 -10 -25.5 -10t-25.5 10q-2 2 -4 4.5t-5 5t-5 4.5l-61 57q-26 -23 -76 -71z" />
    <glyph glyph-name="Atilde" unicode="&#xc3;" horiz-adv-x="547" 
d="M86 -7q-18 5 -28.5 23t-4.5 36q0 1 1 2q10 35 19 62l37 120l46 148l45 144l35 109q2 7 6.5 21.5t6.5 21.5q10 35 46 35q34 0 46 -35v-2q9 -27 19 -62q13 -40 37 -120l46 -147q14 -49 44 -145q26 -84 34 -109q2 -8 6.5 -22.5t6.5 -20.5q6 -18 -4.5 -36t-28.5 -23
q-19 -5 -36 5t-23 28v3q-5 14 -19 61q-13 40 -37 120q-2 5 -4 13h-99h-77l-14 -44l-34 -109q-2 -8 -6.5 -22.5t-6.5 -21.5q-6 -18 -23 -28t-36 -5zM283 471l-46 -148q0 -1 -0.5 -2.5t-0.5 -2.5h81h36q-5 14 -13 40l-44 144q0 1 -0.5 2.5t-0.5 2.5zM180 774q-14 0 -24.5 11
t-10.5 25v2q2 43 27 68q15 14 34 21q20 5 34 4q21 -1 38 -10q13 -5 25 -17q5 -4 14.5 -13t14.5 -13q6 -4 9 -5q1 -1 4 -1h5q2 0 6 2q3 0 6 3l4 4q0 1 1 2.5t2 2.5t1 3t1 3v4q0 14 10.5 24.5t24.5 10.5q15 0 25.5 -10.5t10.5 -24.5q0 -43 -29 -69q-17 -15 -36 -22
q-17 -5 -33 -5q-20 1 -37 10q-9 4 -24 17q-1 1 -29 26l-9 6q-1 0 -3 0.5t-3 0.5h-6q-1 0 -3 -0.5t-3 -0.5q-2 -2 -3 -2l-3 -3q-1 -1 -2 -2.5t-1 -2.5t-1 -3.5t-1 -4.5v-5q0 -14 -10.5 -25t-25.5 -11z" />
    <glyph glyph-name="Adieresis" unicode="&#xc4;" horiz-adv-x="547" 
d="M145 26q-6 -18 -23 -28t-36 -5q-18 5 -28.5 23t-4.5 36q1 1 1 2q3 10 9.5 30.5t9.5 31.5l38 120l46 148l45 144q26 84 34 109q2 7 6.5 21.5t6.5 21.5q12 35 46 35q36 0 46 -35q0 -1 1 -2q10 -35 19 -62l36 -120l46 -147l44 -145l34 -109q2 -8 6.5 -22.5t6.5 -20.5
q6 -18 -4.5 -36t-28.5 -23q-19 -5 -36 5t-23 28v3q-5 14 -19 61l-37 120q-1 3 -2.5 7t-1.5 6h-99h-77q-3 -10 -14 -44q-19 -65 -34 -109q-2 -8 -6.5 -22.5t-6.5 -21.5zM283 471l-46 -148q0 -1 -0.5 -2.5t-0.5 -2.5h81h36l-12 40l-45 144q0 1 -0.5 2.5t-0.5 2.5zM204 834
q-14 0 -25 10.5t-11 25.5q0 14 11 24.5t25 10.5t25 -10.5t11 -24.5q0 -15 -11 -25.5t-25 -10.5zM369 834q-15 0 -25.5 10.5t-10.5 25.5q0 14 10.5 24.5t25.5 10.5q14 0 24.5 -10.5t10.5 -24.5q0 -15 -10.5 -25.5t-24.5 -10.5z" />
    <glyph glyph-name="Aring" unicode="&#xc5;" horiz-adv-x="547" 
d="M521 95q2 -8 6.5 -22.5t6.5 -20.5q6 -18 -4.5 -36t-28.5 -23q-19 -5 -36 5t-23 28v3q-5 14 -19 61l-37 120q-1 3 -2.5 7t-1.5 6h-99h-77q-3 -10 -14 -44q-19 -65 -34 -109q-2 -8 -6.5 -22.5t-6.5 -21.5q-6 -18 -23 -28t-36 -5q-18 5 -28.5 23t-4.5 36q1 1 1 2
q3 10 9.5 30.5t9.5 31.5l38 120l46 148l45 144q26 84 34 109q2 7 6.5 21.5t6.5 21.5q12 35 46 35q36 0 46 -35q0 -1 1 -2q10 -35 19 -62l36 -120l46 -147l44 -145zM317 318h36l-12 40l-45 144q0 1 -0.5 2.5t-0.5 2.5l-12 -36l-46 -148q0 -1 -0.5 -2.5t-0.5 -2.5h81zM266 771
q-38 11 -60 45q-21 33 -13 75q3 17 13 32q8 12 13 17q2 3 7.5 7.5t7.5 6.5q12 8 31 15q21 6 35 3q23 -2 42 -11q17 -9 26 -21q28 -30 28 -68v-2q0 -20 -5 -34q-10 -22 -22 -36q-12 -13 -27 -21q-38 -20 -76 -8zM262 874v-8q2 -6 2 -8q1 -2 2.5 -4t2.5 -4l5 -5q3 -2 7 -4
q6 -2 8 -3h9q2 0 4.5 1t3.5 2q6 3 7 4t3 2.5t3 2.5q1 2 2 4.5t2 3.5t1.5 4t0.5 4v4v4q-1 2 -1 4t-1 4q0 1 -1 2.5t-2 2.5t-1 2l-6 6q-1 0 -3.5 1.5t-3.5 2.5q-6 2 -8 2h-9q-2 0 -8 -2q-1 0 -3 -1.5t-4 -2.5q-4 -4 -5 -6q-1 -1 -5 -7q0 -2 -2 -8z" />
    <glyph glyph-name="AE" unicode="&#xc6;" horiz-adv-x="854" 
d="M543 629v-112v-105h17h151h85q20 0 34 -14t14 -33t-14 -33.5t-34 -14.5h-64h-151h-38v-105v-117h11h151h86q19 0 33.5 -14.5t14.5 -33.5t-14 -33t-34 -14h-58h-151h-86q-20 0 -34 14t-14 33v44v116v25h-101h-79l-52 -84l-55 -90q-3 -4 -22 -34q-11 -17 -29.5 -22t-35.5 5
q-17 9 -22 28.5t5 36.5q2 3 9.5 15.5t12.5 19.5l55 90l76 122l83 134l76 123l56 90l21 34q16 26 44 24h6h64h151h85q20 0 34 -14t14 -34q0 -19 -14.5 -33t-33.5 -14h-64h-151h-38zM389 327h59v32v153v11l-73 -119l-48 -77h62z" />
    <glyph glyph-name="Ccedilla" unicode="&#xc7;" 
d="M412 255q20 0 34 -14.5t14 -33.5q0 -56 -27 -101q-26 -46 -71 -74q-27 -16 -59 -24q-8 -2 -24 -4q-14 -38 -20 -57q14 -8 21 -16q26 -28 28 -67v-1q-2 -31 -16 -52q-8 -12 -18 -20q-4 -4 -14 -10q-5 -3 -15 -7q-27 -11 -56 -3q-29 6 -48 30q-10 12 -10 25q0 16 10 25
q11 11 25 11q17 0 25 -11l7 -7q4 -2 5 -3t3 -1t3 -1h7q1 1 3 1t3 1t2.5 2t2.5 1l4 4l3 6q2 4 2 6v3v1v3q0 2 -2 6l-3 6l-4 4q-1 1 -2.5 2t-2.5 1t-3 1t-3 1h-3q-21 0 -31 17q-9 14 -4 28l27 75q-1 0 -3 1t-3 1q-14 4 -35 13q-25 12 -51 36q-26 26 -38 50q-17 32 -22 61
q-3 20 -3 39v12v126v143v33q0 55 26 102q18 29 39 49q29 25 53 35q21 9 35 13q19 4 38 6q30 3 66 -6q35 -10 59 -26q30 -19 46 -42q18 -22 22 -30q8 -14 15 -34q11 -33 11 -65q0 -19 -14 -33.5t-34 -14.5q-19 0 -33 14t-14 34q0 9 -1 13q-4 18 -8 28q-7 16 -14 25
q-9 11 -20 20q-16 10 -24 14q-10 4 -28 8q-15 1 -30 0q-18 -4 -28 -8q-9 -4 -25 -14q-11 -9 -20 -20q-10 -16 -14 -25q-6 -18 -8 -28v-14v-95v-152v-54v-31q2 -9 8 -27q4 -9 14 -25q9 -11 20 -20q9 -7 25 -14q10 -4 28 -8q15 -2 30 0q18 4 28 8q16 8 24 14q11 9 20 20
q7 9 14 25q4 10 8 28q1 4 1 14q0 20 14 34t33 14z" />
    <glyph glyph-name="Egrave" unicode="&#xc8;" horiz-adv-x="455" 
d="M216 803l-45 103q-5 10 -5 18q0 1 0.5 4.5t0.5 5.5q5 14 17 21q13 8 27 3q17 -4 21 -16q1 -1 1 -2q37 -84 46 -103q4 -8 4 -18q0 -7 -1 -10q-3 -13 -16 -21q-12 -8 -28 -4t-21 17q-1 1 -1 2zM50 361v0v147v118v47q0 19 14 33.5t34 14.5h63h152h85q19 0 33 -14t14 -34
t-14 -34t-33 -14h-64h-151h-38v-111v-105h16h152h85q19 0 33 -14t14 -34q0 -19 -13.5 -33t-33.5 -14h-64h-151h-38v-105v-118h11h151h86q20 0 34 -14t14 -33q0 -20 -14.5 -34t-33.5 -14h-59h-150h-86q-20 0 -34 14t-14 34v44v115v152v6z" />
    <glyph glyph-name="Eacute" unicode="&#xc9;" horiz-adv-x="455" 
d="M248 787q-11 7 -16 22q-3 9 0 19q1 4 4 8q0 2 1 2l45 104q4 12 21 16q13 4 28 -4q11 -6 16 -21q3 -9 0 -19q-2 -6 -4 -8q0 -2 -1 -2l-45 -104q-4 -12 -21 -16q-12 -4 -28 3zM145 625v-111v-105h16h151h86q19 0 33 -14t14 -34q0 -19 -13.5 -33t-33.5 -14h-64h-152h-37
v-105v-118h11h151h86q19 0 33 -13.5t14 -33.5t-14 -34t-33 -14h-59h-151h-86q-19 0 -33 14t-14 34v44v115v152v6v0v147v118v47q0 20 14 34t33 14h64h151h86q19 0 33 -14t14 -34t-14 -34t-33 -14h-64h-152h-37z" />
    <glyph glyph-name="Ecircumflex" unicode="&#xca;" horiz-adv-x="456" 
d="M164 796q-11 -10 -25.5 -10t-25.5 10q-10 10 -10 25t10 25q8 8 24 22l86 81q11 11 25 11t25 -11q16 -14 23 -22l86 -81q10 -10 10 -25t-10 -25q-11 -10 -25 -10t-25 10q-8 7 -23 22l-61 57zM98 -4q-20 0 -34 14t-14 34v44v115v152v153v118v47q0 19 14 33.5t34 14.5h63
h152h85q20 0 34 -14.5t14 -33.5t-14 -33.5t-34 -14.5h-64h-151h-38v-111v-105h16h152h85q20 0 34 -14.5t14 -33.5t-14 -33t-34 -14h-64h-151h-38v-105v-118h11h151h86q20 0 34 -14t14 -33q0 -20 -14.5 -34t-33.5 -14h-59h-150h-86z" />
    <glyph glyph-name="Edieresis" unicode="&#xcb;" horiz-adv-x="455" 
d="M159 837q-15 0 -25.5 10.5t-10.5 25.5q0 14 10.5 24.5t25.5 10.5q14 0 24.5 -10.5t10.5 -24.5q0 -15 -10.5 -25.5t-24.5 -10.5zM337 837q-15 0 -25.5 10.5t-10.5 25.5q0 14 10.5 24.5t25.5 10.5q14 0 24.5 -10.5t10.5 -24.5q0 -15 -10.5 -25.5t-24.5 -10.5zM145 625v-111
v-105h16h152h85q19 0 33 -14t14 -34q0 -19 -13.5 -33t-33.5 -14h-64h-151h-38v-105v-118h11h151h86q19 0 33 -13.5t14 -33.5t-14 -34t-33 -14h-59h-150h-87q-19 0 -33 14.5t-14 33.5v44v115v152v153v118v47q0 19 14 33.5t33 14.5h64h152h85q19 0 33 -14t14 -34t-14 -34
t-33 -14h-64h-151h-38z" />
    <glyph glyph-name="Igrave" unicode="&#xcc;" horiz-adv-x="195" 
d="M138 725q19 0 33 -14t14 -34v-44v-116v-152v-153v-118v-47q0 -20 -14 -34t-33 -14q-20 0 -34 14.5t-14 33.5v45v116v152v152v118v47q0 19 14 33.5t34 14.5zM97 811l-42 97q-5 10 -5 18q0 2 0.5 5t0.5 4q5 14 17 22q13 8 27 3q17 -4 21 -16q8 -18 43 -97q5 -10 5 -18
q0 -2 -0.5 -5t-1.5 -5q-3 -15 -16 -21q-12 -7 -27 -4q-15 4 -22 17z" />
    <glyph glyph-name="Iacute" unicode="&#xcd;" horiz-adv-x="186" 
d="M98 725q19 0 33 -14t14 -34v-44v-116v-152v-153v-118v-47q0 -20 -14 -34t-33 -14q-20 0 -34 14.5t-14 33.5v45v116v152v152v118v47q0 19 14 33.5t34 14.5zM158 957q12 -8 17 -22q1 -9 0 -18q-2 -3 -4 -9q-35 -79 -43 -97q-5 -13 -21 -17q-15 -3 -27 4q-12 6 -17 21
q-2 10 0 19q1 2 2 5t2 4l42 97q6 12 22 16q14 5 27 -3z" />
    <glyph glyph-name="Icircumflex" unicode="&#xce;" horiz-adv-x="334" 
d="M187 725q19 0 33.5 -14.5t14.5 -33.5v-44v-116v-152v-153v-118v-47q0 -19 -14.5 -33.5t-33.5 -14.5t-33 14t-14 34v45v116v152v152v118v47q0 20 14 34t33 14zM313 855q11 -10 11 -25t-11 -25q-11 -11 -25 -11t-25 11q-3 2 -8 6.5t-7 6.5q-1 1 -61 58q-50 -48 -76 -71
q-11 -11 -25 -11t-25 11q-11 10 -11 25t11 25q2 2 5 4.5t5 5t4 4.5l87 81q10 10 25 10t25 -10q3 -2 8 -6.5t7 -7.5z" />
    <glyph glyph-name="Idieresis" unicode="&#xcf;" horiz-adv-x="296" 
d="M168 725q20 0 34 -14.5t14 -33.5v-44v-116v-152v-153v-118v-47q0 -19 -14 -33.5t-34 -14.5q-19 0 -33 14t-14 34v45v116v152v152v118v47q0 20 14 34t33 14zM86 913q15 0 25.5 -10.5t10.5 -25.5q0 -14 -10.5 -24.5t-25.5 -10.5q-14 0 -25 10.5t-11 24.5q0 15 11 25.5
t25 10.5zM251 913q14 0 24.5 -10.5t10.5 -25.5q0 -14 -10.5 -24.5t-24.5 -10.5q-15 0 -25.5 10.5t-10.5 24.5q0 15 10.5 25.5t25.5 10.5z" />
    <glyph glyph-name="Eth" unicode="&#xd0;" horiz-adv-x="587" 
d="M577 527v-25v-129v-52v-109q0 -59 -26 -107q-18 -29 -39 -49q-29 -25 -53 -35q-21 -9 -35 -13q-6 -2 -38 -7h-23h-116q-20 0 -34 14t-14 33v44v116v107h-7h-94q-20 0 -34 14.5t-14 33.5t14 33t34 14h20h81v102v118v47q0 19 14.5 33.5t33.5 14.5h2h121q60 0 108 -30
q31 -19 48 -40q18 -22 22 -30q8 -14 16 -34q11 -28 13 -64zM439 119q14 12 20 20q9 12 15 24q6 18 7 29q1 8 1 25v49v107v112q0 41 -1 49q-1 10 -7 28q-5 12 -15 25q-9 11 -20 20q-12 9 -24 15q-10 3 -28 7q-8 1 -24 1h-69v-112v-108h59q19 0 33 -14t14 -33q0 -20 -14 -34
t-33 -14h-21h-38v-102v-117h44q40 0 48 1t29 7q12 6 24 15z" />
    <glyph glyph-name="Ntilde" unicode="&#xd1;" horiz-adv-x="595" 
d="M537 726q19 0 33.5 -14t14.5 -34v-42v-114v-152v-153v-118v-48q0 -16 -10 -28.5t-25 -16.5q-18 -6 -37 4q-10 7 -17 17v1l-1 2q-14 20 -34 47l-66 95l-85 121l-90 129l-75 107v-8v-152v-153v-118v-47q0 -20 -14 -34t-33 -14q-20 0 -34 14.5t-14 33.5v43v115v152v153v118
v47q0 16 10 29t25 17q19 6 37 -5q11 -6 17 -17q1 -1 1 -2q12 -16 34 -48l66 -94l85 -121l90 -129l75 -107v6v152v153v118v47q0 20 14 34t33 14zM411 905q0 15 10.5 25.5t24.5 10.5q15 0 25.5 -10.5t10.5 -25.5q0 -8 -2 -22q-9 -38 -42 -61q-16 -11 -32 -14q-19 -4 -42 -1
q-12 2 -24 8t-19 12.5t-19 17.5t-18 16q-2 1 -6 3.5t-6 3.5q-2 0 -6 2h-8q-4 -2 -7 -2q-1 -1 -4 -3q-2 -2 -4 -3l-3 -6q-2 -6 -2 -9q-1 -2 -1 -6q0 -15 -10.5 -25.5t-24.5 -10.5q-15 0 -25.5 10.5t-10.5 25.5q0 13 3 27q9 37 41 58q30 20 72 13q25 -5 53 -29q5 -4 14.5 -13
t14.5 -13q1 -1 5 -3t5 -3q1 0 2.5 -1t2.5 -1h7q1 0 3.5 1t3.5 2q3 1 7 3l5 5q2 4 4 7q0 3 2 7v4z" />
    <glyph glyph-name="Ograve" unicode="&#xd2;" 
d="M459 525v-25.5v-30.5v-26v-153v-82q0 -52 -25 -99q-24 -43 -67 -72q-26 -18 -58 -26q-35 -10 -65 -7q-17 0 -39 5q-10 2 -35 13q-26 10 -53 34q-24 23 -39 49q-17 28 -23 60q-5 23 -5 55v124v143v35q0 52 25 99q2 5 21 31q6 7 18 19q25 23 52 36q21 9 35 13q20 5 38 6
q29 4 66 -5q11 -2 36 -13q5 -2 13 -6.5t10 -5.5q32 -23 47 -42q12 -14 21 -30q8 -13 16 -34q11 -33 11 -65zM322 121q11 9 20 20q7 9 14 24q6 17 7 28q1 5 1 15v94v152v54q0 20 -1 30q-1 9 -7 27q-4 9 -14 25q-6 7 -20 19q-13 10 -25 15q-18 6 -28 7q-14 2 -29 0
q-10 -1 -28 -7q-16 -8 -24 -15q-10 -8 -20 -19q-7 -9 -14 -25q-4 -10 -8 -28q-1 -4 -1 -14v-94v-152v-53q0 -21 1 -31q4 -18 8 -28q9 -18 14 -24q9 -11 20 -20q6 -5 24 -14q10 -4 28 -8q15 -2 29 0q18 4 28 8q16 7 25 14zM225 948l43 -98q5 -8 5 -18q-1 -2 -1 -5t-1 -4
q-3 -15 -16 -21q-14 -8 -27 -4q-16 4 -22 16l-42 98q-5 6 -5 18q0 2 0.5 5t0.5 4q5 15 16 22q16 7 28 3q17 -4 21 -16z" />
    <glyph glyph-name="Oacute" unicode="&#xd3;" 
d="M309 11q-34 -10 -65 -7q-17 0 -39 5q-10 2 -35 13q-27 11 -53 34q-24 23 -39 49q-17 28 -23 60q-5 23 -5 55v124v143v35q0 53 26 99q8 15 21 31q5 7 17 19q25 23 52 36q21 9 35 13q19 4 38 6q29 4 66 -5q11 -2 36 -13q6 -2 23 -12q32 -23 47 -42q15 -16 22 -30
q8 -14 15 -34q11 -29 11 -65v-25.5v-30.5v-26v-153v-82q0 -52 -25 -99q-25 -45 -67 -72q-26 -18 -58 -26zM240 99q15 -1 30 0q18 4 27 8q16 7 25 14q11 9 20 20q7 9 14 24q5 16 8 28v15v94v152v54v30q-2 9 -8 27q-4 9 -14 25q-6 7 -20 19q-12 9 -24 15q-21 6 -28 7
q-15 1 -30 0q-11 -1 -28 -7q-12 -6 -24 -15q-14 -12 -20 -19q-10 -16 -14 -25q-4 -10 -8 -28q0 -2 -0.5 -6.5t-0.5 -7.5v-94v-152v-53q0 -21 1 -31q4 -18 8 -28q7 -15 14 -24q9 -11 20 -20q8 -6 24 -14q8 -4 28 -8zM315 961q13 -8 17 -21q3 -10 0 -19q0 -1 -2 -4t-2 -5
l-42 -97q-6 -12 -22 -16q-14 -5 -27 3q-12 7 -17 21q-1 10 0 19q2 3 4 9q35 79 43 97q4 11 21 17q15 3 27 -4z" />
    <glyph glyph-name="Ocircumflex" unicode="&#xd4;" horiz-adv-x="469" 
d="M434 109q-24 -43 -67 -72q-28 -18 -58 -26q-35 -10 -66 -7q-16 0 -38 5q-14 4 -35 13q-26 10 -53 34q-24 23 -39 49q-17 28 -23 60q-5 23 -5 55v124v143v35q0 52 25 99q2 5 21 31q12 13 18 19q25 23 52 36q21 9 35 13q18 4 38 6q29 4 66 -5q12 -3 36 -13q5 -2 13 -6.5
t10 -5.5q32 -23 47 -42q12 -14 21 -30q3 -6 16 -34q11 -33 11 -65v-82v-153v-82q0 -52 -25 -99zM322 121q7 6 19 20q7 8 15 24q6 17 7 28q1 5 1 15v94v152v54q0 20 -1 30q-1 9 -7 27q-5 12 -15 25q-9 10 -19 19q-13 10 -25 15q-18 6 -28 7q-14 1 -29 0q-10 -1 -28 -7
q-12 -5 -25 -15q-10 -9 -19 -19q-10 -13 -15 -25q-6 -18 -7 -28q-1 -4 -1 -14v-94v-152v-53q0 -21 1 -31q4 -18 7 -28q8 -16 15 -24q12 -14 20 -20q8 -7 24 -14q10 -4 28 -8q14 -1 29 0q18 4 28 8q16 7 25 14zM128 859q2 3 7 7.5t8 6.5l86 81q11 10 25.5 10t25.5 -10
q5 -4 14 -13l87 -82q10 -10 10 -25t-10 -25q-11 -10 -25.5 -10t-25.5 10q-2 2 -4.5 4t-5 5t-4.5 5l-61 57l-76 -71q-11 -10 -25.5 -10t-25.5 10q-10 10 -10 25t10 25z" />
    <glyph glyph-name="Otilde" unicode="&#xd5;" horiz-adv-x="469" 
d="M367 37q-28 -18 -58 -26q-35 -10 -66 -7q-18 0 -38 5q-12 3 -36 13q-25 11 -52 34q-22 19 -40 49q-18 32 -23 60q-4 24 -4 55v124v143v35q0 52 25 99q8 15 21 31q7 9 18 19q26 24 51 36q24 10 36 13q18 4 38 6q29 4 66 -5q14 -4 35 -13q6 -2 23 -12q32 -22 48 -42t21 -30
q8 -14 15 -34q12 -32 12 -65v-82v-153v-82q0 -53 -26 -99q-24 -44 -66 -72zM240 99q14 -2 29 0q18 4 28 8q18 9 24 14q8 6 20 20q5 6 14 24q4 8 8 28q1 5 1 15v94v152v54q0 20 -1 30q-4 18 -8 27q-7 16 -14 25q-10 11 -20 19q-11 9 -24 15q-18 6 -28 7q-15 2 -29 0
q-10 -1 -28 -7q-12 -5 -25 -15q-14 -12 -20 -19q-10 -16 -14 -25q-6 -18 -7 -28q-1 -4 -1 -14v-94v-152v-53q0 -21 1 -31t7 -28q7 -15 14 -24q2 -2 6 -6.5t7.5 -7.5t6.5 -6q9 -7 25 -14q10 -4 28 -8zM341 905q0 15 10.5 25.5t25.5 10.5t25.5 -10.5t9.5 -25.5q0 -8 -2 -22
q-8 -38 -42 -61q-14 -11 -31 -14q-20 -4 -43 -1q-12 2 -24 8t-19 12.5t-19 17.5t-18 16q-2 1 -5.5 3.5t-5.5 3.5q-3 0 -7 2h-8q-4 -2 -6 -2q-1 0 -2.5 -1t-2.5 -2l-3 -3q-2 -2 -4 -6q-2 -6 -2 -9v-6q0 -15 -10.5 -25.5t-25.5 -10.5q-14 0 -25 10.5t-11 25.5t4 27q7 35 40 58
q30 20 73 13q23 -5 53 -29q5 -4 14.5 -13t14.5 -13l9 -6q1 0 3 -1t3 -1h6q2 0 4.5 1t3.5 2l6 3l5 5q0 1 1.5 3t2.5 4q1 1 1 3.5t1 3.5v4z" />
    <glyph glyph-name="Odieresis" unicode="&#xd6;" horiz-adv-x="469" 
d="M459 290v-82q0 -53 -26 -99q-24 -44 -66 -72q-28 -18 -58 -26q-35 -10 -66 -7q-16 0 -38 5q-14 4 -35 13q-26 10 -53 34q-22 19 -40 49q-18 32 -23 60q-4 24 -4 55v124v143v35q0 52 25 99q8 15 21 31q7 9 18 19q26 24 51 36q24 10 36 13q18 4 38 6q29 4 66 -5
q14 -4 35 -13q6 -2 23 -12q32 -22 48 -42t21 -30q3 -6 16 -34q11 -33 11 -65v-82v-153zM321 121q8 6 20 20l15 24q2 7 7 28q1 5 1 15v94v152v54q0 20 -1 30q-4 18 -8 27q-7 16 -14 25q-10 11 -20 19q-11 9 -24 15q-18 6 -28 7q-15 2 -29 0q-10 -1 -28 -7q-12 -5 -25 -15
q-14 -12 -20 -19q-10 -16 -14 -25q-6 -18 -7 -28q-1 -4 -1 -14v-94v-152v-53q0 -21 1 -31t7 -28q7 -15 14 -24q2 -2 6 -6.5t7.5 -7.5t6.5 -6q9 -7 25 -14q10 -4 28 -8q14 -2 29 0q18 4 28 8q16 7 24 14zM172 917q15 0 25.5 -10.5t10.5 -24.5q0 -15 -10.5 -25.5t-25.5 -10.5
q-14 0 -25 10.5t-11 25.5q0 14 11 24.5t25 10.5zM337 846q-15 0 -25.5 10.5t-10.5 25.5q0 14 10.5 24.5t25.5 10.5q14 0 24.5 -10.5t10.5 -24.5q0 -15 -10.5 -25.5t-24.5 -10.5z" />
    <glyph glyph-name="multiply" unicode="&#xd7;" horiz-adv-x="356" 
d="M63 262l57 57q9 7 16 16q-6 7 -20 21l-53 52q-13 13 -13 31t13 31t31 13t31 -13l57 -57q3 -3 8 -8.5t8 -8.5l21 21l52 53q13 13 31 13t31 -13t13 -31t-13 -31l-57 -57q-3 -3 -8.5 -8t-8.5 -8l21 -21l53 -53q13 -12 13 -30t-13 -31t-31 -13t-31 13l-57 57l-16 16l-21 -21
l-52 -52q-13 -13 -31 -13t-31 13t-13 31t13 30v1z" />
    <glyph glyph-name="Ugrave" unicode="&#xd9;" horiz-adv-x="518" 
d="M389 23q-34 -16 -61 -20q-61 -9 -108 2q-30 6 -60 23q-28 16 -49 38q-25 27 -37 52q-16 35 -20 61q-4 32 -4 47v99v153v140v61q0 19 14 33t34 14t33.5 -14t13.5 -33v-16v-108v-154v-134v-40q0 -18 1 -27q3 -16 9 -31q5 -12 16 -27q9 -13 22 -22q15 -11 27 -16
q15 -6 31 -9q9 -1 28 -1q5 0 14 0.5t14 0.5q17 3 31 9q9 4 27 16q8 6 22 22q8 10 16 27q4 11 8 31q1 9 1 26v99v153v140v61q0 19 14 33t34 14t33.5 -14t13.5 -33v-20v-112v-155v-131q0 -67 -5 -92q-7 -30 -23 -60q-15 -26 -39 -49q-24 -24 -51 -37zM287 947l43 -97
q5 -10 5 -18q-1 -2 -1 -5t-1 -4q-3 -14 -16 -22q-12 -8 -28 -3q-15 4 -21 16l-42 97q-5 8 -5 18q0 2 0.5 5.5t0.5 4.5q3 15 16 21q13 7 28 4q16 -4 21 -17z" />
    <glyph glyph-name="Uacute" unicode="&#xda;" horiz-adv-x="518" 
d="M502 169q-7 -30 -23 -60q-18 -29 -39 -49q-23 -23 -51 -37q-37 -17 -61 -20q-62 -9 -108 2q-30 6 -60 23q-28 16 -49 38q-25 27 -37 52q-16 35 -20 61q-4 21 -4 47v99v153v140v61q0 19 14 33t34 14t33.5 -14t13.5 -33v-16v-108v-154v-134v-40q0 -18 1 -27q3 -16 9 -31
q6 -16 16 -27q8 -11 21 -22q18 -12 28 -16q15 -6 30 -9q10 -1 29 -1q4 0 13.5 0.5t14.5 0.5q15 3 30 9q10 4 28 16q8 6 22 22q8 10 16 27q6 20 8 31q1 9 1 26v99v153v140v61q0 19 14 33t33 14q20 0 34 -14t14 -33v-20v-112v-155v-131q0 -67 -5 -92zM339 960q12 -6 17 -21
q2 -9 0 -19q-2 -3 -4 -9q-35 -79 -43 -97q-4 -12 -21 -16q-14 -5 -27 3q-12 8 -17 22q-3 9 0 18q0 1 2 4t2 5l42 97q7 13 22 17q15 3 27 -4z" />
    <glyph glyph-name="Ucircumflex" unicode="&#xdb;" horiz-adv-x="518" 
d="M388 23q-35 -16 -61 -20q-60 -9 -107 2q-32 6 -60 23q-27 15 -50 38q-25 28 -36 52q-15 29 -21 61q-3 24 -3 47v99v153v140v61q0 19 14 33t33 14q20 0 34 -14t14 -33v-16v-108v-154v-134v-40q0 -18 1 -27q2 -11 8 -31q8 -17 16 -27q14 -16 22 -22q18 -12 27 -16
q14 -6 31 -9q10 -1 29 -1q5 0 14 0.5t13 0.5q16 3 31 9q12 5 27 16q13 9 22 22q11 15 16 27q6 15 9 31q1 9 1 26v99v153v140v61q0 19 14 33t33 14q20 0 34 -14t14 -33v-20v-112v-155v-131q0 -66 -6 -92q-6 -30 -23 -60q-16 -28 -38 -49q-24 -24 -52 -37zM404 858
q11 -10 11 -25t-11 -25t-25 -10t-25 10q-3 3 -8 7.5t-7 6.5l-61 57l-75 -71q-11 -10 -25.5 -10t-25.5 10q-10 10 -10 25t10 25t15 14l86 81q11 11 25.5 11t25.5 -11q9 -9 14 -13z" />
    <glyph glyph-name="Udieresis" unicode="&#xdc;" horiz-adv-x="518" 
d="M507 392v-131q0 -67 -5 -92q-7 -30 -23 -60q-18 -29 -39 -49q-23 -23 -51 -37q-37 -17 -61 -20q-62 -9 -108 2q-30 6 -60 23q-27 15 -50 38q-25 28 -36 52q-16 35 -20 61q-4 21 -4 47v99v153v140v61q0 19 14 33t34 14t33.5 -14t13.5 -33v-16v-108v-154v-134v-40
q0 -18 1 -27q3 -16 9 -31t15 -27q14 -16 22 -22q18 -12 28 -16q15 -6 30 -9q10 -1 29 -1q4 0 13.5 0.5t14.5 0.5q15 3 30 9q10 4 28 16q8 6 22 22q8 10 16 27q6 20 8 31q1 9 1 26v99v153v140v61q0 19 14 33t33 14q20 0 34 -14t14 -33v-20v-112v-155zM161 881q0 14 10.5 24.5
t24.5 10.5q15 0 25.5 -10.5t10.5 -24.5q0 -15 -10.5 -25.5t-25.5 -10.5q-14 0 -24.5 10.5t-10.5 25.5zM325 881q0 14 10.5 24.5t25.5 10.5q14 0 24.5 -10.5t10.5 -24.5q0 -15 -10.5 -25.5t-24.5 -10.5q-15 0 -25.5 10.5t-10.5 25.5z" />
    <glyph glyph-name="Yacute" unicode="&#xdd;" horiz-adv-x="589" 
d="M555 722q17 -10 22 -29t-4 -36q-2 -2 -2 -3l-43 -77l-74 -131l-69 -124l-24 -43v-32v-111v-89q0 -19 -14 -33t-33 -14t-33.5 14t-14.5 33v50v111v70q-7 13 -20.5 37t-17.5 31l-72 131l-69 125l-30 55q-10 17 -5 36t22 29q16 10 36 5t29 -22l1 -1q0 -2 1 -2l42 -76
l72 -131l58 -106q2 2 4 6l73 131l70 124l30 55q10 17 29.5 22t35.5 -5zM296 802q-12 7 -17 21q-3 10 0 19q1 1 2 4t2 5l42 97q7 13 22 17q15 3 27 -4q13 -8 16 -21q3 -10 0 -19l-3 -9l-43 -97q-4 -12 -21 -16q-14 -5 -27 3z" />
    <glyph glyph-name="Thorn" unicode="&#xde;" horiz-adv-x="597" 
d="M558 593q17 -31 22 -60q8 -32 6 -66q-4 -40 -12 -64q-23 -64 -69 -105q-31 -25 -52 -35q-31 -16 -61 -22q-28 -5 -51 -5h-19h-85v-20v-23h21h94q20 0 34 -14.5t14 -33.5t-14.5 -33t-33.5 -14h-20h-95v-47q0 -19 -13.5 -33t-33.5 -14t-34 14t-14 33v43v4h-44
q-19 0 -33.5 14t-14.5 33t14 33.5t34 14.5h20h24v15v28h-44q-19 0 -33.5 14t-14.5 33t14 33.5t34 14.5h43h1v29v152v118v47q0 19 14 33.5t34 14.5h79h65q47 0 83 -12q66 -23 105 -68q25 -28 36 -52zM490 460q3 21 0 41t-10 38q-12 22 -20 33q-12 15 -27 27q-12 9 -33 20
q-23 8 -38 10q-9 1 -55 1h-70v-110v-151v-38h2h75q40 0 48 1q15 2 38 10q21 11 33 20q15 12 27 27q6 8 20 33q7 16 10 38z" />
    <glyph glyph-name="agrave" unicode="&#xe0;" horiz-adv-x="596" 
d="M72 146q-14 34 -18 60q-5 40 -2 65q3 35 14 62q11 31 29 55q40 56 92 81q61 30 124 26q67 -3 120 -37q22 -16 32 -24v4q0 17 12.5 30t29.5 13q18 0 30.5 -13t12.5 -30v-21v-141v-89q1 -3 2.5 -8.5t2.5 -8.5q5 -21 16 -60t15 -55q5 -17 -4 -32.5t-26 -19.5q-16 -5 -31.5 4
t-20.5 26l-15 52q-1 -1 -2 -2.5t-2 -2.5q-41 -46 -103 -68q-56 -21 -128 -9q-26 5 -59 19q-22 11 -53 34q-20 16 -42 45q-16 21 -26 45zM137 269q-3 -22 0 -44q3 -20 11 -41q8 -18 21 -37q15 -17 30 -29q18 -14 36 -21q14 -6 42 -12q21 -2 44 0q28 6 41 12q20 7 36 21
q15 12 30 29q13 19 21 37q7 19 12 41q0 3 0.5 10.5t0.5 11.5q0 3 -0.5 11t-0.5 11q-5 22 -12 41q-8 18 -21 37q-15 17 -30 29q-16 14 -36 21q-13 6 -41 12q-23 2 -44 0q-28 -6 -42 -12q-18 -7 -36 -21q-15 -12 -30 -29q-13 -19 -21 -37q-8 -21 -11 -41zM246 599l-45 103
q-5 10 -5 18q0 2 1 5t1 4q3 14 16 22t27 3q16 -4 22 -16q0 -1 1 -2l45 -103q5 -10 5 -18q0 -2 -0.5 -5t-1.5 -5q-3 -15 -16 -21q-12 -7 -27 -4q-15 4 -22 17q0 1 -1 2z" />
    <glyph glyph-name="aacute" unicode="&#xe1;" horiz-adv-x="597" 
d="M73 141q-15 32 -19 60q-5 35 -2 65q6 41 14 62q13 32 29 55q39 55 92 81q62 30 125 26q68 -3 119 -37q22 -16 32 -24v4q0 17 13 30t30 13t30 -13t13 -30v-21v-141v-89q1 -8 5 -17q18 -69 31 -115q4 -16 -4.5 -31.5t-25.5 -20.5t-32.5 4t-20.5 26q-2 8 -7 26t-7 26l-5 -5
q-40 -46 -102 -68q-59 -22 -128 -9q-27 5 -60 19q-24 12 -52 34q-24 19 -42 45q-17 21 -26 45zM137 264q-1 -22 0 -44q5 -22 12 -41q8 -18 21 -37q15 -17 30 -29t36 -22q13 -5 41 -11q23 -2 44 0q28 6 42 11q23 12 36 22q15 12 30 29q13 19 21 37q8 21 11 41q1 7 1 22t-1 22
q-3 20 -11 41q-8 18 -21 37q-15 17 -30 29t-36 21q-14 6 -42 12q-21 2 -44 0q-28 -6 -41 -12q-20 -8 -36 -21q-15 -12 -30 -29q-13 -19 -21 -37q-7 -19 -12 -41zM303 579q-13 6 -16 21q-3 10 0 19l3 9q1 0 1 2l45 103q6 12 22 16q14 5 27 -3q12 -8 17 -22q2 -9 0 -18
q-2 -3 -4 -9q0 -1 -0.5 -1t-0.5 -1l-45 -103q-7 -13 -21 -17q-16 -3 -28 4z" />
    <glyph glyph-name="acircumflex" unicode="&#xe2;" horiz-adv-x="597" 
d="M73 141q-15 32 -19 60q-5 35 -2 65q6 41 14 62q13 32 29 55q39 55 92 81q62 30 125 26q68 -3 119 -37q22 -16 32 -24v4q0 17 13 30t30 13t30 -13t13 -30v-21v-141v-89q1 -8 5 -17q18 -69 31 -115q4 -16 -4.5 -31.5t-25.5 -20.5t-32.5 4t-20.5 26q-2 8 -7 26t-7 26l-5 -5
q-40 -46 -102 -68q-59 -22 -128 -9q-27 5 -60 19q-24 12 -52 34q-24 19 -42 45q-17 21 -26 45zM137 264q-1 -22 0 -44q5 -22 12 -41q8 -18 21 -37q15 -17 30 -29t36 -22q13 -5 41 -11q23 -2 44 0q28 6 42 11q23 12 36 22q15 12 30 29q13 19 21 37q8 21 11 41q1 7 1 22t-1 22
q-3 20 -11 41q-8 18 -21 37q-15 17 -30 29t-36 21q-14 6 -42 12q-21 2 -44 0q-28 -6 -41 -12q-20 -8 -36 -21q-15 -12 -30 -29q-13 -19 -21 -37q-7 -19 -12 -41zM235 586q-11 -10 -26 -10t-25 10t-10 25t10 25q8 7 23 22l86 81q11 11 25.5 11t25.5 -11q4 -3 11.5 -11
t11.5 -11l86 -81q11 -10 11 -25t-11 -25t-25 -10t-25 10q-16 14 -24 22l-60 57z" />
    <glyph glyph-name="atilde" unicode="&#xe3;" horiz-adv-x="597" 
d="M99 101q-15 17 -26 45q-15 32 -19 60q-5 35 -2 65q5 36 14 62q13 32 29 55q39 55 92 81q62 30 125 26q68 -3 119 -37q12 -8 32 -24v4q0 17 13 30t30 13t30 -13t13 -30v-21v-141v-89q1 -8 5 -17q18 -69 31 -115q4 -16 -4.5 -31.5t-25.5 -20.5t-33 4t-20 26q-5 22 -14 52
l-5 -5q-40 -46 -102 -68q-56 -21 -128 -9q-27 5 -60 19q-24 12 -52 34q-24 20 -42 45zM138 269q-3 -22 0 -44q3 -20 11 -41q8 -18 21 -37q15 -17 30 -29q16 -14 36 -21q13 -6 41 -12q23 -2 44 0q26 5 42 12q19 7 36 21q15 12 30 29q13 19 21 37q8 21 11 41q1 7 1 22t-1 22
q-3 20 -11 41q-8 18 -21 37q-15 17 -30 29q-17 14 -36 21q-16 7 -42 12q-21 2 -44 0q-28 -6 -41 -12q-20 -7 -36 -21q-15 -12 -30 -29q-13 -19 -21 -37q-8 -21 -11 -41zM196 571q-14 0 -25 11t-10 25q0 13 3 27q8 37 40 58q30 22 73 13q25 -4 53 -28l29 -27q6 -4 10 -6h2
q2 -1 3 -1h6q2 0 8 2q4 2 6 4q3 2 5 5q2 2 4 6q2 6 2 8v4q0 14 10.5 24.5t25.5 10.5q14 0 25 -10.5t11 -24.5q0 -11 -3 -23q-7 -36 -42 -61q-14 -9 -31 -14q-20 -4 -42 -1q-15 3 -28 10.5t-31 24t-22 19.5q-3 3 -11 7q-4 2 -7 2h-8q-2 0 -6 -2l-4 -2l-4 -4l-3 -6l-3 -9v-6
q0 -14 -10.5 -25t-25.5 -11z" />
    <glyph glyph-name="adieresis" unicode="&#xe4;" horiz-adv-x="597" 
d="M73 141q-15 32 -19 60q-5 40 -2 65q6 41 14 62q13 32 29 55q39 55 92 81q62 30 124 26q67 -3 120 -37q22 -16 32 -24v4q0 17 13 30t30 13t30 -13t13 -30v-21v-141v-89q1 -8 5 -17q18 -69 31 -115q4 -16 -4.5 -31.5t-25.5 -20.5t-32.5 4t-20.5 26q-2 8 -7 26t-7 26l-5 -5
q-42 -46 -102 -68t-128 -9q-27 5 -60 19q-24 12 -52 34q-24 19 -42 45q-17 21 -26 45zM137 264q-1 -22 0 -44q5 -22 12 -41q8 -18 21 -37q15 -17 30 -29t36 -22q13 -5 41 -11q23 -2 44 0q28 6 42 11q23 12 36 22q15 12 30 29q13 19 21 37q8 21 11 41q1 7 1 22t-1 22
q-3 20 -11 41q-8 18 -21 37q-15 17 -30 29t-36 21q-14 6 -42 12q-21 2 -44 0q-28 -6 -41 -12q-20 -8 -36 -21q-15 -12 -30 -29q-13 -19 -21 -37q-7 -19 -12 -41zM206 657q-14 0 -24.5 10.5t-10.5 24.5q0 15 10.5 25.5t24.5 10.5q15 0 25.5 -10.5t10.5 -25.5
q0 -14 -10.5 -24.5t-25.5 -10.5zM384 657q-14 0 -24.5 10.5t-10.5 24.5q0 15 10.5 25.5t24.5 10.5q15 0 25.5 -10.5t10.5 -25.5q0 -14 -10.5 -24.5t-25.5 -10.5z" />
    <glyph glyph-name="aring" unicode="&#xe5;" horiz-adv-x="596" 
d="M72 146q-14 34 -18 60q-5 40 -2 65q3 35 14 62q14 36 29 55q39 55 92 81q61 30 124 26q67 -3 120 -37q22 -16 32 -24v4q0 17 12.5 30t30.5 13q17 0 29.5 -13t12.5 -30v-21v-141v-89q4 -12 5 -17l31 -115q5 -17 -4 -32.5t-26 -19.5q-16 -5 -31.5 4t-20.5 26l-15 52
q-1 -1 -2 -2.5t-2 -2.5q-41 -46 -103 -68q-57 -21 -127 -9q-27 5 -60 19q-24 12 -52 34q-21 16 -43 45q-16 21 -26 45zM137 269q-1 -22 0 -44q3 -20 11 -41q9 -20 22 -37q12 -15 29 -29q18 -14 36 -21q14 -6 42 -12q22 -1 44 0q28 6 41 12q18 7 37 21q15 14 29 29
q14 19 21 37q6 13 12 41q1 7 1 22t-1 22q-6 28 -12 41q-7 18 -21 37q-14 15 -29 29q-19 14 -37 21q-13 6 -41 12q-22 1 -44 0q-28 -6 -42 -12q-18 -7 -36 -21q-17 -14 -29 -29q-13 -17 -22 -37q-8 -21 -11 -41zM260 582q-35 22 -45 59q-12 37 2 70q8 20 22 36q10 11 26 21
q37 18 77 11q19 -5 32 -13q18 -12 26 -22q14 -18 21 -36q5 -14 5 -35v-2q0 -43 -31 -74q-10 -12 -27 -20q-11 -5 -20 -8q-7 -2 -21 -4q-37 -3 -67 17zM323 710h-10l-9 -3q-3 -1 -9 -5l-6 -6q-4 -6 -5 -9l-3 -9v-10l3 -9q1 -3 5 -9l6 -6q6 -4 9 -5l9 -3h10q6 2 10 3q2 1 8 5
q4 4 7 6q0 2 2 5t2 4l3 9v5v5l-3 9q0 2 -2 5t-2 4q-3 2 -7 6q-6 4 -8 5q-4 1 -10 3z" />
    <glyph glyph-name="ccedilla" unicode="&#xe7;" horiz-adv-x="495" 
d="M442 166q19 0 31 -12q12 -14 12 -31q0 -12 -6 -21l-6 -9q-22 -25 -46 -42q-44 -32 -105 -42l-22 -63q13 -8 23 -18q29 -27 29 -70v-1q0 -32 -16 -54q-17 -26 -40 -35q-12 -6 -18 -7l-18 -3q-16 -2 -31 3q-31 8 -51 31q-10 13 -10 25q0 14 10 26q12 10 26 10q16 0 25 -10
q2 -3 7 -8l2 -1q3 -2 5 -3q1 0 7 -2h7q4 2 7 2q1 1 3 2t3 2l5 5q2 2 4 6q0 1 0.5 3.5t1.5 3.5v4v1v4q-1 1 -1 3.5t-1 3.5q-2 4 -4 6q-2 3 -5 5q-2 2 -6 4q-1 0 -3.5 1t-3.5 1h-4q-20 0 -30 18q-9 12 -4 27q0 1 1 2l27 78q-38 6 -76 27q-56 33 -88 86q-33 58 -33 122v2v1
q0 27 7 58q15 61 60 108t106 64q30 9 64 9q38 0 71 -10q70 -22 115 -76q5 -5 11 -19q0 -2 0.5 -5.5t0.5 -5.5q0 -16 -12 -30q-13 -13 -31 -13q-20 0 -30 13q-14 15 -29 29q-13 10 -34 20q-13 5 -39 11q-21 2 -42 0q-26 -6 -39 -11q-21 -10 -34 -20q-10 -8 -28 -28
q-14 -22 -19 -34q-8 -22 -11 -39q-1 -7 -1 -21v-1v-2q0 -14 1 -21q3 -17 11 -39q5 -12 19 -34q18 -20 28 -28q13 -10 34 -20q17 -7 39 -10q21 -3 42 0q22 3 39 10q21 10 34 20q13 11 29 30q10 12 30 12z" />
    <glyph glyph-name="egrave" unicode="&#xe8;" horiz-adv-x="510" 
d="M344 216l-120 -88q-14 -10 -20 -15q5 -4 27 -16q18 -7 40 -10q14 -2 21 -2h4h3q7 0 21 2q22 3 40 10q20 10 35 21q5 4 14 13q13 12 30.5 12t29.5 -12q13 -13 13 -31t-13 -30q-70 -70 -170 -70h-3h-4q-55 0 -108 25q-19 9 -45 30q-20 16 -31 30q-22 28 -34 52
q-15 32 -19 60q-7 37 -3 65q3 35 13 63q15 34 29 55q21 28 42 45q28 22 52 34q30 14 60 20q41 6 67 2q22 -2 40 -7q13 -3 37 -13q61 -26 102 -88q9 -14 4 -33q-3 -12 -11 -18q-2 -2 -4.5 -4t-3.5 -3l-27 -20zM137 262q-1 -21 0 -42q3 -20 11 -39v-1l1 -2q1 1 2 1l107 80
l120 88q3 2 8.5 6t8.5 6q-2 1 -4 3t-4 3q-19 14 -34 20q-21 8 -40 11q-21 3 -42 0q-18 -3 -40 -11q-19 -8 -34 -20q-11 -8 -29 -28q-8 -11 -20 -35q-8 -22 -11 -40zM243 598l-45 103q-5 10 -5 18q1 1 1 4t1 5q3 14 16 22q12 8 28 3q15 -4 21 -16q0 -1 1 -2l45 -103
q5 -10 5 -18q0 -2 -0.5 -5t-1.5 -5q-3 -15 -16 -21q-12 -7 -27 -4q-15 4 -22 17q0 1 -1 2z" />
    <glyph glyph-name="eacute" unicode="&#xe9;" horiz-adv-x="510" 
d="M392 461q61 -26 102 -88q9 -14 4 -33q-3 -12 -11 -18q-2 -3 -8 -7l-27 -20l-108 -79l-120 -88q-14 -10 -20 -15q5 -4 27 -16q18 -7 40 -10q14 -2 21 -2h4h3q7 0 21 2q22 3 40 10q20 10 35 21q5 4 14 13q13 12 30.5 12t30.5 -12q12 -13 12 -31t-12 -30q-72 -70 -171 -70
h-3h-4q-55 0 -108 25q-19 9 -45 30q-20 16 -31 30q-22 28 -34 52q-16 37 -19 60q-7 37 -3 65q3 36 14 63q12 32 28 55q26 32 42 45q28 22 52 34q30 14 60 20q41 6 67 2q22 -2 40 -7q13 -3 37 -13zM258 259l121 88q10 8 16 12q-2 1 -4 3t-4 3q-19 14 -34 20q-22 8 -40 11
q-21 3 -42 0q-18 -3 -40 -11q-15 -6 -34 -20q-11 -8 -29 -28q-8 -11 -20 -35q-5 -14 -11 -40q-1 -21 0 -42q7 -28 11 -39v-1l1 -2q1 1 2 1zM262 583q-12 6 -17 21q-2 10 0 19q1 1 2 4t2 5q0 1 1 2l45 103q4 12 21 16q14 5 28 -3q13 -8 16 -22q3 -9 0 -18q-2 -6 -4 -9v-2
q-9 -19 -46 -103q-5 -13 -21 -17q-15 -3 -27 4z" />
    <glyph glyph-name="ecircumflex" unicode="&#xea;" horiz-adv-x="510" 
d="M183 25q-16 8 -44 30q-17 13 -31 30q-23 27 -34 52q-14 30 -20 60q-5 39 -3 65q3 36 14 63q16 38 29 55q22 30 41 45q28 22 52 34q33 15 60 20q42 5 68 2q23 -2 40 -7q13 -3 37 -13q59 -25 102 -88q9 -14 4 -33q-3 -10 -11 -18q-3 -3 -9 -7l-27 -20l-107 -79l-121 -88
q-6 -5 -20 -15q12 -8 28 -16q18 -7 40 -10q12 -2 21 -2h3h4q7 0 21 2q23 4 40 10q16 8 34 21q10 8 15 13q12 12 29.5 12t30.5 -12q12 -13 12.5 -31t-12.5 -30q-70 -70 -170 -70h-4h-3q-56 0 -109 25zM137 262q-3 -21 0 -42q3 -20 11 -39q0 -2 1 -3l1 1l108 80l120 88
q2 2 7.5 6t8.5 6q-1 1 -3.5 3t-3.5 3q-17 13 -35 20q-22 8 -40 11q-20 3 -42 0q-17 -3 -39 -11q-18 -7 -35 -20q-16 -12 -28 -28q-13 -17 -20 -35q-8 -22 -11 -40zM215 590q-11 -10 -26 -10t-25 10t-10 25t10 25l24 22l86 81q10 10 25 10t25 -10q8 -7 23 -22l86 -81
q11 -10 11 -25t-11 -25t-25 -10t-25 10q-16 14 -23 22l-61 57z" />
    <glyph glyph-name="edieresis" unicode="&#xeb;" horiz-adv-x="510" 
d="M296 0h-4q-55 0 -108 25q-19 9 -45 30q-20 16 -31 30q-23 28 -33 52q-16 35 -20 60q-7 37 -3 65q3 36 14 63q12 33 29 55q22 30 41 45q28 22 52 34q30 14 60 20q41 6 68 2q22 -2 39 -7q13 -3 37 -13q61 -26 102 -88q9 -13 5 -33q-3 -10 -11 -18q-3 -3 -9 -7l-27 -20
l-108 -79l-120 -88l-20 -15q9 -6 27 -16q17 -6 40 -10q14 -2 21 -2h4h4q7 0 21 2q22 3 39 10q20 10 35 21q10 8 14 13q13 12 30.5 12t30.5 -12q12 -13 12 -31t-12 -30q-70 -70 -170 -70h-4zM137 262q-1 -21 0 -42q7 -28 11 -39q1 -1 1 -3q1 1 2 1l107 80l121 88q10 8 16 12
q-2 1 -4 3t-4 3q-15 12 -34 20q-22 8 -40 11q-21 3 -42 0q-19 -3 -40 -11q-15 -6 -34 -20q-16 -12 -28 -28q-11 -15 -21 -35q-5 -14 -11 -40zM186 661q-14 0 -24.5 10.5t-10.5 25.5q0 14 10.5 24.5t24.5 10.5q15 0 25.5 -10.5t10.5 -24.5q0 -15 -10.5 -25.5t-25.5 -10.5z
M364 661q-14 0 -24.5 10.5t-10.5 25.5q0 14 10.5 24.5t24.5 10.5q15 0 25.5 -10.5t10.5 -24.5q0 -15 -10.5 -25.5t-25.5 -10.5z" />
    <glyph glyph-name="igrave" unicode="&#xec;" horiz-adv-x="190" 
d="M132 487q19 0 33.5 -14t14.5 -33v-38v-135v-148v-71q0 -19 -14.5 -33t-33.5 -14t-33.5 14t-14.5 33v38v135v148v71q0 19 14.5 33t33.5 14zM101 601q0 2 -1 2l-45 104q-5 8 -5 18q0 1 1 4t1 5q3 15 16 21q12 7 27 4q16 -4 22 -16q0 -2 1 -2l45 -104q5 -8 5 -18q0 -1 -1 -4
t-1 -5q-3 -14 -16 -22q-14 -7 -27 -3q-16 3 -22 16z" />
    <glyph glyph-name="iacute" unicode="&#xed;" horiz-adv-x="189" 
d="M97 487q19 0 33.5 -14t14.5 -33v-38v-135v-148v-71q0 -19 -14.5 -33t-33.5 -14t-33 14t-14 33v38v135v148v71q0 19 14 33t33 14zM161 755q12 -6 17 -21q2 -10 0 -19q-1 -1 -1.5 -2.5t-1.5 -3t-1 -2.5l-1 -2l-45 -104q-4 -12 -21 -16q-13 -4 -28 3q-13 8 -16 22q-3 9 0 19
q1 2 3 8l1 2l46 104q4 12 21 16q15 3 27 -4z" />
    <glyph glyph-name="icircumflex" unicode="&#xee;" horiz-adv-x="351" 
d="M196 487q19 0 33 -14t14 -33v-38v-135v-148v-71q0 -19 -14 -33t-33 -14t-33.5 14t-14.5 33v38v135v148v71q0 19 14.5 33t33.5 14zM330 646q10 -10 10 -25t-10 -26q-11 -10 -25 -10t-25 10l-23 22l-61 57l-84 -79q-11 -10 -25.5 -10t-25.5 10q-10 11 -10 25.5t10 25.5
q16 14 24 22l86 81q11 10 25.5 10t24.5 -10l23 -22z" />
    <glyph glyph-name="idieresis" unicode="&#xef;" horiz-adv-x="309" 
d="M174 487q19 0 33.5 -14t14.5 -33v-38v-135v-148v-71q0 -19 -14.5 -33t-33.5 -14t-33 14t-14 33v38v135v148v71q0 19 14 33t33 14zM85 738q15 0 25.5 -11t10.5 -25q0 -15 -10.5 -25.5t-25.5 -10.5q-14 0 -24.5 10.5t-10.5 25.5q0 14 10.5 25t24.5 11zM263 738
q15 0 25.5 -11t10.5 -25q0 -15 -10.5 -25.5t-25.5 -10.5q-14 0 -24.5 10.5t-10.5 25.5q0 14 10.5 25t24.5 11z" />
    <glyph glyph-name="ntilde" unicode="&#xf1;" horiz-adv-x="623" 
d="M586 387q9 -17 15 -33q12 -32 12 -75v-129v-99q0 -19 -13.5 -32t-31.5 -13t-31 13t-13 32v13v137v64q0 24 -1 36q-3 12 -8 29q-7 15 -15 26q-10 12 -21 20q-13 10 -25 15q-9 4 -29 8q-8 1 -26 1q-17 0 -26 -1q-18 -4 -29 -8q-12 -5 -25 -15q-4 -3 -21 -20q-5 -8 -15 -26
q-5 -17 -8 -29v-15q0 -4 -1 -6v-148v-81q0 -18 -13 -31t-31 -13q-19 0 -32 13t-13 31v1v93v153v56v6.5v8.5v7t-2 7l-3 6l-5 5q-2 2 -6 4q-1 0 -4 1t-4 1h-9.5h-12h-9.5h-36q-18 0 -31 13t-13 31q0 19 13 32t31 13h19h36q27 0 43 -5q40 -14 62 -46q18 16 39 27q30 16 60 20
q24 4 36 4h15q64 0 114 -31q32 -23 47 -41q2 -3 6.5 -9t8 -11t6.5 -10zM216 645q7 35 40 58q30 22 73 13q25 -5 53 -28q3 -3 13 -12.5t16 -14.5l9 -6q1 0 3 -0.5t3 -0.5h6q2 0 8 2l6 3q4 4 5 6q2 2 4 6q1 1 1.5 4t0.5 4v4q0 14 10.5 24.5t25.5 10.5q14 0 25 -10.5t10 -24.5
q0 -7 -2 -23q-7 -36 -42 -61q-14 -9 -31 -14q-20 -4 -43 -1q-15 3 -28 10.5t-30 23.5t-22 20q-6 4 -11 7q-1 1 -3.5 1t-3.5 1h-8q-1 -1 -3 -1t-3 -1q-4 -2 -5 -2q-1 -2 -3 -4q0 -1 -1.5 -3t-2.5 -3q0 -1 -1 -4t-1 -5v-6q0 -14 -10.5 -25t-25.5 -11q-14 0 -25 11t-11 25
q0 9 4 27z" />
    <glyph glyph-name="ograve" unicode="&#xf2;" horiz-adv-x="538" 
d="M406 456q55 -32 89 -86q33 -56 33 -123q0 -60 -27 -111q-12 -23 -32 -46q-14 -17 -42 -38q-23 -16 -55 -29q-27 -11 -63 -14q-64 -6 -126 24q-55 27 -92 81t-40 120q-4 64 27 125q29 56 84 90q54 35 121 37t123 -30zM438 227q1 7 1 20q0 14 -1 20q-3 22 -10 38
q-10 21 -20 34q-12 15 -27 27q-8 6 -33 20q-26 8 -39 10q-19 1 -40 0q-15 -2 -38 -10q-21 -11 -33 -20q-13 -11 -28 -27q-14 -22 -19 -34t-11 -38q-2 -20 0 -40q6 -26 11 -38t19 -34q15 -16 28 -27q19 -13 33 -19q20 -8 38 -11q21 -1 40 0q17 3 39 11q17 8 33 19
q15 12 27 27q10 13 20 34q7 16 10 38zM262 750q0 -1 1 -2l45 -103q5 -8 5 -18q-1 -3 -1 -9q-5 -14 -17 -22q-13 -8 -27 -3q-16 4 -22 16q0 1 -1 2l-45 103q-5 10 -5 18q0 2 0.5 5t1.5 5q3 15 16 21q12 7 28 4q14 -4 21 -17z" />
    <glyph glyph-name="oacute" unicode="&#xf3;" horiz-adv-x="539" 
d="M78 359q29 56 84 90q55 35 121.5 37t123.5 -30q56 -33 88 -86q34 -57 34 -123q0 -58 -28 -111q-12 -23 -32 -46q-15 -19 -41 -38q-22 -15 -56 -29q-27 -11 -62 -14q-65 -6 -126 24q-54 25 -93 81q-35 51 -40 120q-4 64 27 125zM198 366q-15 -12 -27 -27q-10 -13 -20 -34
q-7 -16 -10 -38q-3 -20 0 -40q3 -22 10 -38q10 -21 20 -34q12 -15 27 -27q16 -11 33 -19q22 -9 38 -11q21 -1 41 0q18 3 38 11q14 6 33 19q13 11 28 27q14 22 19 34t11 38q0 3 0.5 10t0.5 10q0 4 -0.5 10.5t-0.5 9.5q-6 26 -11 38t-19 34q-15 16 -28 27q-12 9 -33 20
q-23 8 -38 10q-21 1 -41 0q-11 -2 -38 -10q-25 -14 -33 -20zM272 591q-12 6 -17 21q-2 10 0 19q1 1 2 4t2 5q0 1 1 2l45 103q4 12 21 16q14 5 28 -3q13 -8 16 -22q3 -9 0 -18q-2 -6 -4 -9v-2l-46 -103q-5 -13 -21 -17q-15 -3 -27 4z" />
    <glyph glyph-name="ocircumflex" unicode="&#xf4;" horiz-adv-x="539" 
d="M495 370q34 -57 34 -123q0 -58 -28 -111q-11 -23 -32 -46q-15 -19 -41 -38q-21 -14 -55 -29q-28 -11 -63 -14q-64 -6 -126 24q-54 25 -93 81q-35 51 -40 120q-4 61 27 125q32 57 84 90q55 35 122 37t123 -30q56 -33 88 -86zM439 227q0 3 0.5 10t0.5 10q0 4 -0.5 10.5
t-0.5 9.5q-3 18 -11 38q-5 12 -19 34q-8 10 -27 27q-13 10 -34 20q-23 8 -38 10q-20 2 -40 0q-15 -2 -38 -10q-21 -10 -34 -20q-15 -12 -27 -27q-10 -13 -20 -34q-8 -23 -10 -38q-2 -20 0 -40q2 -15 10 -38q10 -21 20 -34q12 -15 27 -27q22 -14 34 -19q20 -8 38 -11
q20 -2 40 0q18 3 38 11q12 5 34 19q19 17 27 27q14 22 19 34q8 20 11 38zM206 598q-10 -10 -25 -10t-26 10q-10 10 -10 25t10 25l24 22l86 81q10 10 25 10t25 -10q8 -7 23 -22l86 -81q10 -10 10 -25t-10 -25t-25 -10t-25 10q-16 14 -23 22l-61 57z" />
    <glyph glyph-name="otilde" unicode="&#xf5;" horiz-adv-x="539" 
d="M407 456q56 -33 88 -86q34 -57 34 -123q0 -58 -28 -111q-9 -19 -32 -46q-15 -19 -41 -38q-22 -15 -56 -29q-27 -11 -62 -14q-65 -6 -126 24q-54 25 -93 81q-35 51 -40 120q-4 64 27 125q29 56 84 90q55 35 121.5 37t123.5 -30zM439 227q0 3 0.5 10t0.5 10q0 4 -0.5 10.5
t-0.5 9.5q-6 26 -11 38t-19 34q-15 16 -28 27q-12 9 -33 20q-23 8 -38 10q-21 1 -40 0q-13 -2 -39 -10q-25 -14 -33 -20q-15 -12 -27 -27q-10 -13 -20 -34q-8 -23 -10 -38q-3 -20 0 -40q2 -15 10 -38q10 -21 20 -34q12 -15 27 -27q16 -11 33 -19q22 -8 39 -11q19 -1 40 0
q18 3 38 11q14 6 33 19q13 11 28 27q14 22 19 34t11 38zM203 618q0 -14 -10.5 -25t-25.5 -11q-14 0 -24.5 11t-10.5 25t3 27q9 36 40 58q30 22 73 13q27 -5 53 -28q3 -3 13 -12.5t16 -14.5q6 -4 10 -6l2 -1h3h6q4 0 8 2l6 3q4 4 5 6q2 2 4 6t2 8v4q1 14 11.5 24.5t24.5 10.5
t25 -10.5t11 -24.5q0 -11 -3 -23q-7 -36 -42 -61q-14 -9 -31 -14q-20 -4 -42 -1q-15 3 -28 10.5t-31 24t-22 19.5q-3 3 -11 7q-1 1 -3.5 1.5t-3.5 0.5h-7q-1 0 -3.5 -0.5t-3.5 -1.5q-2 -2 -4 -2l-4 -4l-3 -6l-3 -9v-6z" />
    <glyph glyph-name="odieresis" unicode="&#xf6;" horiz-adv-x="539" 
d="M407 456q56 -33 88 -86q34 -57 34 -123q0 -58 -28 -111q-12 -23 -32 -46q-15 -19 -41 -38q-22 -15 -56 -29q-27 -11 -63 -14q-64 -6 -125 24q-54 25 -93 81q-35 51 -40 120q-4 64 27 125q29 56 84 90q55 35 121.5 37t123.5 -30zM438 227q2 14 2 20q0 8 -2 20
q-3 22 -10 38q-5 12 -19 34q-15 16 -28 27q-12 9 -33 20q-23 8 -38 10q-21 1 -41 0q-11 -2 -38 -10q-25 -14 -33 -20q-15 -12 -27 -27q-10 -13 -20 -34q-7 -16 -10 -38q-3 -20 0 -40q3 -22 10 -38q10 -21 20 -34q12 -15 27 -27q16 -11 33 -19q22 -9 38 -11q21 -1 41 0
q18 3 38 11q14 6 33 19q13 11 28 27q14 22 19 34q7 16 10 38zM236 702q0 -14 -10.5 -25t-24.5 -11q-15 0 -25.5 11t-10.5 25q0 15 10.5 25.5t25.5 10.5q14 0 24.5 -10.5t10.5 -25.5zM414 702q0 -14 -10.5 -25t-24.5 -11q-15 0 -25.5 11t-10.5 25q0 15 10.5 25.5t25.5 10.5
q14 0 24.5 -10.5t10.5 -25.5z" />
    <glyph glyph-name="ugrave" unicode="&#xf9;" horiz-adv-x="469" 
d="M76 99q-9 17 -15 34q-11 28 -11 73v130v99q0 18 13 31t32 13q18 0 31 -13t13 -31v-15v-138v-64q0 -24 1 -35q4 -20 8 -29q7 -15 14 -24q8 -11 20 -21q16 -10 25 -14q8 -4 28 -8q3 0 8 -0.5t7 -0.5h4h4q2 0 7 0.5t8 0.5q18 4 29 8q8 4 24 14q10 7 20 21q7 8 15 24
q5 16 8 28v24v129v100q0 18 13.5 31t31.5 13t31.5 -13t13.5 -31v-23v-143v-59q0 -39 -7 -63q-7 -29 -25 -58q-21 -30 -41 -46q-25 -18 -30 -20q-17 -9 -34 -15q-31 -11 -64 -11h-4h-4q-59 0 -107 31q-32 23 -46 41q-12 15 -21 30zM243 742q0 -1 1 -2l45 -103q5 -10 5 -18
q0 -1 -1 -5t-1 -5q-3 -13 -16 -21q-12 -7 -27 -4q-15 4 -22 17q0 1 -1 2l-45 103q-5 10 -5 18q1 2 1.5 5t0.5 5q3 13 16 21q12 8 28 3q15 -4 21 -16z" />
    <glyph glyph-name="uacute" unicode="&#xfa;" horiz-adv-x="448" 
d="M395 479q18 0 30.5 -13t12.5 -30v-80v-142v-17q0 -17 -3 -34q-2 -25 -19 -60q-16 -28 -38 -49q-23 -23 -50 -35q-26 -11 -35 -13q-18 -5 -37 -6q-34 -2 -64 7q-36 11 -56 26q-17 12 -28 23q-9 8 -23 28q-17 23 -27 56q-8 28 -8 65v133v98q0 17 13 30t30 13t30 -13t13 -30
v-18v-140v-64q0 -23 1 -35q1 -9 7 -27q5 -12 14 -24q9 -11 20 -20q16 -10 24 -14q10 -4 28 -8q14 -2 29 0q18 4 27 8t25 14q7 6 19 20q7 8 14 24q4 9 8 27q1 9 1 26v133v98q0 17 12.5 30t29.5 13z" />
    <glyph glyph-name="ucircumflex" unicode="&#xfb;" horiz-adv-x="469" 
d="M322 8q-31 -11 -64 -11h-4h-3q-58 0 -108 31q-30 21 -46 41q-12 15 -21 30q-9 17 -15 34q-11 32 -11 73v130v99q0 18 13 31t32 13q18 0 31 -13t13 -31v-15v-138v-64q0 -24 1 -35q4 -20 8 -29q7 -15 14 -24q8 -11 20 -21q12 -8 25 -14q9 -4 29 -8q2 0 7 -0.5t8 -0.5h3h4
q2 0 7 0.5t8 0.5q18 4 29 8q15 7 24 14q8 6 21 21q7 9 14 24q4 8 8 28q0 4 0.5 12t0.5 12v129v100q0 18 13 31t31 13t31.5 -13t13.5 -31v-23v-143v-59q0 -39 -7 -63q-7 -29 -25 -58q-17 -27 -41 -46q-26 -18 -30 -20q-17 -9 -34 -15zM393 640q10 -11 10 -25.5t-10 -25.5
q-11 -10 -25.5 -10t-25.5 10q-7 8 -23 22l-61 57l-84 -79q-11 -10 -25 -10t-25 10q-10 11 -10 26t10 25q8 7 23 22l86 81q10 10 25 10t25 -10q8 -8 24 -22z" />
    <glyph glyph-name="udieresis" unicode="&#xfc;" horiz-adv-x="468" 
d="M385 43q-20 -15 -30 -20q-13 -8 -33 -15q-33 -11 -64 -11h-4h-4q-59 0 -107 31q-30 20 -47 41q-2 3 -6.5 9.5t-8 11.5t-6.5 9q-4 6 -15 34q-10 29 -10 73v130v99q0 18 13 31t31 13t31.5 -13t13.5 -31v-15v-138v-64v-35q3 -13 8 -29q8 -16 15 -24q8 -11 20 -21
q16 -10 25 -14q10 -4 28 -8q3 0 8 -0.5t7 -0.5h4h4q2 0 7 0.5t8 0.5q20 4 28 8q9 4 25 14q12 10 20 21l15 24q6 18 7 28q1 8 1 24v129v100q0 18 13 31t32 13q18 0 31 -13t13 -31v-23v-143v-59q0 -38 -6 -63q-8 -30 -26 -58q-19 -29 -41 -46zM133 694q0 14 10.5 24.5
t25.5 10.5q14 0 24.5 -10.5t10.5 -24.5q0 -15 -10.5 -25.5t-24.5 -10.5q-15 0 -25.5 10.5t-10.5 25.5zM311 694q0 14 10.5 24.5t25.5 10.5q14 0 24.5 -10.5t10.5 -24.5q0 -15 -10.5 -25.5t-24.5 -10.5q-15 0 -25.5 10.5t-10.5 25.5z" />
    <glyph glyph-name="yacute" unicode="&#xfd;" horiz-adv-x="463" 
d="M246 584q-13 8 -17 21q-3 10 0 19q1 2 2 5t2 4q0 1 1 2l45 103q4 11 21 17q15 3 28 -4q13 -8 16 -21q3 -10 0 -19q-2 -6 -4 -9q0 -1 -1 -2l-45 -103q-4 -11 -21 -17q-15 -3 -27 4zM451 446q3 -12 0 -24l-4 -11l-14 -31l-44 -101l-62 -139l-62 -142l-49 -111l-19 -45
q-7 -14 -27 -20q-20 -5 -35 4q-16 10 -21 27q-3 12 0 24l5 11q1 4 6 14.5t7 16.5l45 101l26 59l-3 7q-36 80 -53 121l-61 138q-20 44 -29 66q-7 10 -7 23l2 12q5 17 21 27q17 10 34 4q20 -4 27 -20l12 -27l53 -121l53 -119l49 111l48 111q3 5 9.5 20.5t10.5 23.5q5 14 27 21
q18 5 35 -4q15 -9 20 -27z" />
    <glyph glyph-name="thorn" unicode="&#xfe;" horiz-adv-x="597" 
d="M558 593q17 -31 22 -60q8 -32 6 -66q-4 -40 -12 -64q-23 -64 -69 -105q-31 -25 -52 -35q-31 -16 -61 -22q-28 -5 -51 -5h-19h-85v-20v-23h21h94q20 0 34 -14.5t14 -33.5t-14.5 -33t-33.5 -14h-20h-95v-47q0 -19 -13.5 -33t-33.5 -14t-34 14t-14 33v43v4h-44
q-19 0 -33.5 14t-14.5 33t14 33.5t34 14.5h20h24v15v28h-44q-19 0 -33.5 14t-14.5 33t14 33.5t34 14.5h43h1v29v152v118v47q0 19 14 33.5t34 14.5h79h65q47 0 83 -12q66 -23 105 -68q25 -28 36 -52zM490 460q3 21 0 41t-10 38q-12 22 -20 33q-12 15 -27 27q-12 9 -33 20
q-23 8 -38 10q-9 1 -55 1h-70v-110v-151v-38h2h75q40 0 48 1q15 2 38 10q21 11 33 20q15 12 27 27q6 8 20 33q7 16 10 38z" />
    <glyph glyph-name="ydieresis" unicode="&#xff;" horiz-adv-x="463" 
d="M198 692q0 -14 -10.5 -25t-25.5 -11q-14 0 -24.5 11t-10.5 25q0 15 10.5 25.5t24.5 10.5q15 0 25.5 -10.5t10.5 -25.5zM376 692q0 -14 -10.5 -25t-24.5 -11q-15 0 -25.5 11t-10.5 25q0 15 10.5 25.5t25.5 10.5q14 0 24.5 -10.5t10.5 -25.5zM451 448q3 -12 0 -24l-4 -11
l-14 -31l-44 -101l-62 -139l-62 -142l-49 -111l-19 -45q-7 -14 -27 -20q-20 -5 -35 4q-16 10 -21 27q-3 12 0 24l5 11q1 4 6 14.5t7 16.5l45 101l26 59l-3 7q-36 80 -53 121l-61 138q-20 44 -29 66q-7 10 -7 23l2 12q5 17 21 27q17 10 34 4q20 -4 27 -20l12 -27l53 -121
l53 -119l49 111l48 111q3 5 9.5 20.5t10.5 23.5q5 14 27 21q18 5 35 -4q15 -9 20 -27z" />
    <glyph glyph-name="Scaron" unicode="&#x160;" 
d="M460 200q0 -26 -6 -52q-10 -35 -26 -58q-19 -29 -42 -47q-20 -16 -30 -21q-14 -8 -34 -15q-33 -11 -65 -11q-3 0 -5 1q-2 -1 -5 -1q-108 2 -177 77q-14 17 -14 34q0 20 14 34q14 13 34 13.5t33 -13.5q17 -16 20 -19q15 -11 33 -19q13 -6 37 -11q3 0 10 -0.5t10 -0.5h5h5
q3 0 8 0.5t7 0.5q18 4 27 8q16 7 24 14q14 12 20 19q10 16 14 24q5 16 8 28v15v1v2v14q-2 10 -8 28q-4 8 -14 24q-9 11 -20 20q-12 9 -24 14q-9 3 -27 7q-8 1 -24 1t-46 6q-36 10 -58 26q-28 17 -47 42q-12 13 -21 30q-8 15 -15 34q-11 29 -11 65v2v2q0 28 7 52q9 35 25 58
q23 32 42 47l30 21q16 9 35 15q31 11 64 11q4 0 6 -1q103 -3 171 -77q14 -14 14 -33q0 -20 -14 -34t-34 -14t-33 14q-13 13 -20 19q-17 12 -33 19t-37 10q-7 1 -20 1q-3 0 -4 1q-3 -1 -10 -1q-18 -4 -28 -8q-16 -8 -24 -14q-14 -12 -20 -19q-10 -16 -14 -24q-6 -18 -7 -28
q-1 -5 -1 -15v-2v-2q0 -10 1 -14q1 -10 7 -28q5 -12 14 -24q9 -11 20 -20q16 -10 24 -14q18 -6 27 -7q8 -1 25 -1q26 -2 46 -7q29 -7 58 -25q33 -23 46 -42q18 -22 22 -30q9 -16 15 -35q10 -29 10 -64v-2v-1zM123 908q-11 10 -11 25t11 25q11 11 25 11t25 -11q16 -14 23 -22
l61 -57l84 79q11 11 25.5 11t25.5 -11q10 -10 10 -25t-10 -25l-24 -22l-86 -81q-10 -10 -25 -10t-25 10q-8 7 -23 22z" />
    <glyph glyph-name="scaron" unicode="&#x161;" horiz-adv-x="351" 
d="M61 689q-10 10 -10 25t10 25q11 10 25.5 10t25.5 -10q15 -15 23 -22l61 -57l84 79q11 10 25 10t25 -10q10 -10 10 -25t-10 -25q-15 -15 -23 -22l-86 -81q-11 -11 -25 -11q-15 0 -26 11l-23 22zM97 226q-47 41 -47 106v1v1q0 59 41 100q43 41 99 41h5h1q73 0 120 -52
q13 -15 13 -32q0 -18 -13 -31t-31.5 -13t-31.5 13q-3 4 -11 10q-2 2 -16 10q-15 4 -19 5t-11 1h-4h-2h-7q-10 -2 -13 -4q-8 -4 -11 -7q-4 -3 -10 -9l-6 -12q-2 -5 -4 -13v-7v-1v-1v-7q2 -8 4 -13l6 -12q6 -6 10 -9q3 -3 11 -7q12 -3 13 -3q4 -1 14 -1q15 0 33 -5
q31 -9 55 -30q48 -40 48 -105v-1v-1q0 -59 -41 -100q-43 -41 -99 -41h-4h-3q-71 0 -120 52q-13 15 -13 32q0 18 13 31t32 13t32 -13q4 -6 10 -10q9 -6 17 -10q11 -4 19 -5q3 -1 10 -1h3h4h6q3 0 7.5 2t6.5 2q5 2 11 7l9 9q3 4 7 12q2 5 4 13v7v1v1v6q-2 8 -4 14q-3 5 -7 11
q-2 3 -9 10q-2 1 -5.5 3t-5.5 3q-5 2 -13 4h-14q-23 2 -33 5q-30 9 -56 30z" />
    <glyph glyph-name="Ydieresis" unicode="&#x178;" horiz-adv-x="589" 
d="M232 912q15 0 25.5 -10.5t10.5 -24.5q0 -15 -10.5 -25.5t-25.5 -10.5q-14 0 -24.5 10.5t-10.5 25.5q0 14 10.5 24.5t24.5 10.5zM397 841q-15 0 -25.5 10.5t-10.5 25.5q0 14 10.5 24.5t25.5 10.5q14 0 24.5 -10.5t10.5 -24.5q0 -15 -10.5 -25.5t-24.5 -10.5zM555 721
q17 -10 22 -29.5t-5 -35.5q0 -2 -2 -4l-42 -77l-74 -131l-69 -124l-24 -43v-32v-108v-89q0 -19 -14.5 -33t-33.5 -14t-33 14t-14 33v50v109v69l-38 68l-72 132l-69 124l-30 56q-10 16 -5 35.5t22 29.5q16 9 35.5 4t29.5 -22q0 -1 2 -3l41 -76l73 -131l58 -106l4 6l73 132
l70 123l30 55q10 17 29.5 22t35.5 -4z" />
    <glyph glyph-name="Zcaron" unicode="&#x17d;" horiz-adv-x="475" 
d="M417 95q19 0 33.5 -14.5t14.5 -33.5t-14.5 -33t-33.5 -14h-85h-153h-81q-28 0 -41 23t0 48l9 18q13 27 41 81l62 123l71 140l67 132q22 42 32 63h-7h-152h-82q-19 0 -33 14t-14 34t14 34t33 14h85h152h82q26 0 41 -24q14 -23 0 -48l-9 -18q-28 -54 -41 -81l-63 -123
l-71 -140l-67 -131l-32 -64h8h152h82zM131 951q11 10 25.5 10t25.5 -10q6 -8 14 -14l61 -58l76 72q11 10 25.5 10t25.5 -10q10 -11 10 -25.5t-10 -25.5q-5 -4 -15 -14l-86 -81q-11 -11 -25.5 -11t-25.5 11q-2 2 -5 4.5t-5 5t-4 4.5l-87 81q-10 11 -10 25.5t10 25.5z" />
    <glyph glyph-name="zcaron" unicode="&#x17e;" horiz-adv-x="447" 
d="M392 89q18 0 31.5 -13t13.5 -31q0 -19 -13.5 -32t-31.5 -13h-60h-151h-86q-26 0 -39 22q-6 10 -6 23q0 12 6 22q4 5 17 22l70 92l93 124l67 88h-122h-86q-18 0 -31 13t-13 31q0 19 13 32t31 13h60h151h86q25 0 38 -22q6 -10 6 -23q0 -11 -6 -22q-1 -1 -7 -9t-9 -13
l-70 -92l-94 -124l-66 -88h122h86zM109 700q-10 10 -10 25t10 25q11 10 25 10t25 -10q16 -14 24 -22l61 -57l84 79q10 10 25 10t25 -10t10 -25t-10 -25q-8 -7 -23 -22l-86 -81q-10 -10 -25 -10q-16 0 -26 10q-15 15 -23 22z" />
    <glyph glyph-name="uni0401" unicode="&#x401;" horiz-adv-x="457" 
d="M130 831q-20 0 -34 14t-14 33q0 20 14 34t34 14q19 0 33 -14t14 -34t-13.5 -33.5t-33.5 -13.5zM349 831q-20 0 -34 14t-14 33q0 20 14.5 34t33.5 14t33.5 -14t14.5 -34q0 -19 -14 -33t-34 -14zM98 0q-20 0 -34 14t-14 34v43v116v153v153v118v47q0 20 14 34t34 14h64h152
h85q19 0 33.5 -14t14.5 -34q0 -19 -14 -33t-34 -14h-64h-151h-38v-113v-105h15h150h88q20 0 34 -14t14 -33q0 -20 -14.5 -34t-33.5 -14h-51h-150h-52v-105v-118h11h151h86q20 0 34 -14t14 -33q0 -20 -14 -34t-34 -14h-58h-152h-86z" />
    <glyph glyph-name="uni0410" unicode="&#x410;" horiz-adv-x="549" 
d="M144 33q-5 -19 -22 -28.5t-36 -4.5t-29 22.5t-4 36.5q0 2 1 3q3 11 9.5 32t9.5 31l38 121l46 148l45 144l34 109l14 44q5 15 17.5 25t28.5 10q34 0 46 -35q0 -2 1 -3q12 -42 19 -63l37 -121l46 -148l44 -144l34 -110q2 -7 6.5 -21.5t6.5 -21.5q6 -18 -4.5 -36t-28.5 -23
q-19 -5 -36 4.5t-23 28.5q0 2 -1 3q-3 11 -9.5 32t-9.5 31l-37 121q0 1 -1.5 5t-2.5 6h-100h-77q-4 -15 -14 -45l-34 -109zM237 330l-1 -1v-2h82h36q-1 4 -6 18.5t-7 22.5l-44 144q-1 1 -1 2.5t-1 2.5l-12 -39z" />
    <glyph glyph-name="uni0411" unicode="&#x411;" horiz-adv-x="488" 
d="M98 1q-20 0 -34 14t-14 33v41v115v152v153v119v48q0 19 14.5 33t33.5 14h15h137h96q19 0 33.5 -14t14.5 -33q0 -20 -14 -34t-34 -14h-15h-137h-49v-108v-75h12h74h22q14 0 44 -4q64 -11 112 -57q25 -25 39 -50q16 -26 24 -59q8 -35 5 -67q-4 -40 -13 -63q-8 -20 -16 -34
q-11 -17 -22 -31q-19 -23 -47 -42q-24 -17 -57 -27q-30 -10 -65 -10h-42h-117zM225 350h-80v-135v-119h9h75q29 0 44 1q17 3 32 9q10 4 28 16q12 9 24 23q6 9 16 29q6 15 9 32q2 17 0 34q-3 17 -9 32q-8 16 -16 28q-11 14 -24 24q-12 8 -28 16q-15 6 -32 9q-16 1 -48 1z" />
    <glyph glyph-name="uni0412" unicode="&#x412;" horiz-adv-x="490" 
d="M97 1q-19 0 -33 13.5t-14 33.5v41v115v152v153v119v47q0 20 14 34t33 14h3h5h50h76h23q20 0 39 -3q31 -4 60 -22q31 -19 48 -41q15 -18 21 -30q9 -16 15 -35q2 -7 7 -38q2 -14 0 -28q-2 -26 -6 -38q-4 -17 -14 -35q-4 -10 -13 -23q-14 -18 -23 -26q9 -7 25 -21
q24 -24 38 -51q18 -32 23 -60q15 -71 -10 -129q-10 -24 -17 -34q-7 -14 -22 -30q-17 -22 -47 -42q-52 -36 -122 -36h-42h-117zM374 174q6 18 9 33q1 16 0 34q-3 17 -9 32q-10 20 -17 29q-9 12 -23 23q-18 12 -28 17q-18 6 -33 9h-13h-1q-2 0 -3 1q-5 0 -15.5 -0.5
t-15.5 -0.5h-80v-137v-118h9h75q37 0 44 1q15 3 33 9q10 4 28 16q14 11 23 23q7 9 17 29zM223 628h-78v-108v-73h15h74h20h5h12q16 4 23 7q10 4 20 11q9 8 17 17q4 6 12 20q0 1 2.5 9.5t3.5 13.5q1 12 0 25q-1 4 -3.5 12.5t-2.5 10.5l-12 20q-5 6 -17 16q-8 7 -20 12
q-10 4 -23 6q-8 1 -48 1z" />
    <glyph glyph-name="uni0413" unicode="&#x413;" horiz-adv-x="413" 
d="M98 1q-20 0 -34 14t-14 33v42v114v152v153v119v47q0 19 14 33.5t34 14.5h22h141h95q19 0 33 -14t14 -34q0 -19 -13.5 -33t-33.5 -14h-22h-141h-47v-108v-152v-153v-119v-48q0 -19 -14 -33t-34 -14z" />
    <glyph glyph-name="uni0414" unicode="&#x414;" horiz-adv-x="636" 
d="M97 -155q-19 0 -33 14.5t-14 33.5v38v118q0 19 14 33.5t33 14.5h1l24 27q26 36 39 68q17 41 22 78q2 19 2 58v123v151v74q0 20 14.5 34t33.5 14h37h147h91q19 0 33 -14t14 -34v-38v-113v-151v-154v-119v-4h23q20 0 34 -14.5t14 -33.5v-38v-118q0 -19 -14 -33.5t-34 -14.5
q-19 0 -33 14t-14 34v38v71h-81h-155h-138h-12v-109q0 -19 -14.5 -33.5t-33.5 -14.5zM275 249q-9 -68 -43 -128q-2 -4 -6.5 -12t-6.5 -12h7h155h79v107v152v153v119v1h-136h-44v-123v-145v-42q0 -41 -5 -70z" />
    <glyph glyph-name="uni0415" unicode="&#x415;" horiz-adv-x="411" 
d="M50 49v3v3v36v111v152v153v120v48q0 20 14 34t33 14h30h133q16 0 47 -0.5t46 -0.5q20 0 34 -14t14 -33t-14.5 -33.5t-33.5 -14.5h-41h-99h-68v-99v-108h117q15 0 45.5 -0.5t45.5 -0.5q20 0 34 -14t14 -33q0 -20 -14.5 -34t-33.5 -14h-21h-100h-87v-101v-120v-6h113h95
q19 0 33.5 -14.5t14.5 -33.5t-14.5 -33.5t-33.5 -14.5h-20h-141q-15 0 -47 0.5t-48 0.5q-19 0 -33 14t-14 33z" />
    <glyph glyph-name="uni0416" unicode="&#x416;" horiz-adv-x="861" 
d="M827 6q-16 -9 -35.5 -4t-29.5 22q-16 30 -25 45l-71 128l-62 112h-21h-83v-95v-119v-47q0 -20 -14 -34t-34 -14q-19 0 -33 14t-14 34v41v115v105h-3h-104l-48 -87l-74 -133q-13 -21 -37 -65q-10 -17 -29.5 -22t-35.5 4q-17 10 -22 29.5t5 36.5q1 1 3 4.5t3 5.5l57 103
l73 133l24 42l-51 94l-73 133l-36 65q-10 17 -5 36.5t22 29.5q16 9 36 4t29 -21q21 -39 25 -46l70 -127l64 -118q2 -4 3 -5h17h87v104v119v47q0 20 14 34t33 14q20 0 34 -14.5t14 -33.5v-41v-115v-114h100l54 97l72 133l36 66q10 16 29.5 21t35.5 -4q17 -10 22 -29.5
t-4 -36.5q-3 -4 -7 -12l-58 -106l-73 -133q-3 -6 -23 -41l50 -89l74 -133q24 -44 37 -66q9 -17 4 -36.5t-22 -29.5z" />
    <glyph glyph-name="uni0417" unicode="&#x417;" horiz-adv-x="497" 
d="M161 25q-5 2 -31 21q-17 13 -43 47q-37 54 -37 122q0 19 14 33.5t33 14.5t33.5 -14.5t14.5 -33.5q0 -11 1 -16q1 -8 8 -32q10 -18 16 -27q12 -14 23 -22q13 -10 27 -16t31 -9q17 -2 34 0q17 3 31 9q12 5 27 16q11 8 23 22q6 9 16 27q7 24 8 32q2 17 0 33q-3 13 -8 31
q-8 16 -16 28q-7 8 -23 22q-10 7 -27 16q-16 7 -31 8q-6 1 -17 1q-13 0 -23 6q-26 14 -26 43q0 19 14 33t34 14q9 0 13 1q9 1 25 7q8 3 22 13q11 7 18 18q5 6 13 22q4 9 7 25q1 13 0 26q-3 16 -7 25q-6 13 -13 22q-7 11 -18 18q-9 7 -22 13q-9 4 -25 7q-14 1 -27 0
q-19 -5 -25 -7q-19 -11 -22 -13q-9 -7 -18 -18q-11 -19 -12 -22q-2 -3 -4 -9q-5 -19 -22 -29t-36 -5t-29 22.5t-5 36.5q1 4 12 31q17 32 38 53q26 24 54 37q25 11 36 13q19 4 40 6q20 0 39 -3q14 -2 26 -6q19 -6 35 -15q15 -8 31 -21q23 -19 41 -48q8 -12 16 -33
q4 -10 8 -26q3 -13 5 -39q0 -13 -4 -39q-4 -31 -22 -60q-15 -28 -37 -47q37 -26 60 -66q16 -30 23 -60q7 -41 4 -66q-1 -20 -6 -39q-4 -14 -13 -35q-9 -22 -34 -53q-44 -51 -107 -66q-33 -9 -66 -8q-36 2 -64 13q-20 7 -34 15z" />
    <glyph glyph-name="uni0418" unicode="&#x418;" horiz-adv-x="593" 
d="M478 510l-85 -121l-91 -129l-81 -117l-60 -85q-7 -11 -23 -33q-12 -17 -28 -22q-13 -3 -25 0q-16 4 -25.5 17t-9.5 29v40v113v152v154v118v48q0 20 14 34t33 14t33.5 -14t14.5 -34v-39v-114v-152v-153v-16q1 2 4.5 7.5t5.5 7.5l85 121l90 129l82 117q40 56 59 85
q21 29 23 32q13 18 29 22q13 3 25 0q15 -4 25 -17t10 -29v-40v-115v-152v-153v-119v-47q0 -19 -14.5 -33.5t-33.5 -14.5t-33 14t-14 34v40v115v152v153v15q-4 -4 -10 -14z" />
    <glyph glyph-name="uni0419" unicode="&#x419;" horiz-adv-x="595" 
d="M550 723q35 -10 35 -47v-40v-115v-153v-153v-119v-48q0 -20 -14 -34t-34 -14q-19 0 -33 14t-14 34v41v114v153v154v15q-6 -8 -10 -14l-86 -122l-90 -129l-82 -118l-60 -85l-23 -33q-12 -17 -28 -22q-13 -3 -26 0q-15 5 -25 18t-10 29v39v114v152v154v120v47q0 19 14 33.5
t34 14.5t34 -14.5t14 -33.5v-39v-114v-153v-153v-16q4 6 10 14l85 122l91 129l82 118l59 85q16 22 23 33q14 17 29 22q13 3 25 0zM128 880q-13 5 -17 21q-3 15 4 28q8 13 21 16q10 3 19 0q3 -1 7 -3q53 -21 102 -28q52 -6 106 0q60 9 110 31q12 6 28 -4q13 -6 16 -21
q4 -13 -4 -28q-4 -8 -12 -12q-3 -2 -9 -4q-37 -16 -70 -23q-72 -18 -147 -12q-39 3 -78 12q-38 10 -76 27z" />
    <glyph glyph-name="uni041A" unicode="&#x41a;" horiz-adv-x="549" 
d="M450 699q10 17 29 22t36 -5t22 -29t-5 -36q-2 -3 -5.5 -9t-5.5 -9l-65 -106l-79 -129l-24 -38l60 -96l80 -128l39 -63q10 -17 5 -36t-22 -29t-36 -5t-29 22q-1 3 -4.5 8t-5.5 7l-65 104l-80 129l-23 36h-38h-89v-94v-118v-48q0 -19 -14.5 -33.5t-33.5 -14.5t-33 14
t-14 34v40v113v152v153v119v48q0 20 14 33.5t33 13.5q20 0 34 -14t14 -33v-40v-113v-116h18h106l63 103l79 128z" />
    <glyph glyph-name="uni041B" unicode="&#x41b;" horiz-adv-x="545" 
d="M86 3q-19 5 -29 22t-5 36q0 1 0.5 1t0.5 1q12 40 19 60q24 80 37 119l46 148l45 145l34 109q2 6 6.5 21t7.5 23q5 15 17.5 25t28.5 10q35 0 46 -35v-2q15 -48 19 -59l36 -119l46 -148l44 -145l34 -110q6 -19 13 -44q6 -19 -4 -36t-29 -22q-19 -6 -36 4t-22 29q-1 0 -1 2
l-18 59l-37 119l-45 148l-45 145q0 1 -1 3v2q-2 -4 -5.5 -15t-5.5 -17l-46 -148l-45 -145l-34 -110q-2 -7 -6.5 -21.5t-7.5 -21.5q-6 -19 -23 -29t-35 -4z" />
    <glyph glyph-name="uni041C" unicode="&#x41c;" horiz-adv-x="660" 
d="M50 626v48q0 16 9.5 29t25.5 17q21 5 37 -5q8 -5 17 -17q2 -4 4 -6l52 -79l84 -127l71 -106l15 22l84 127l78 117q6 10 18.5 29t15.5 23q11 18 29 22q12 3 25 0q15 -5 25 -17.5t10 -28.5v-39v-113v-152v-154v-118v-48q0 -20 -14 -34t-34 -14q-19 0 -33 14t-14 34v39v113
v152v153v9l-52 -78l-78 -118l-30 -45l-3 -6q-14 -24 -42 -24h-1q-27 0 -41 24l-3 6l-52 79l-84 127l-24 35v-146v-154v-118v-48q0 -20 -14.5 -34t-33.5 -14t-33 14.5t-14 33.5v39v113v152v153v119z" />
    <glyph glyph-name="uni041D" unicode="&#x41d;" horiz-adv-x="523" 
d="M342 405h76v103v119v48q0 19 14 33t33 14q20 0 34 -14t14 -33v-40v-114v-152v-153v-119v-48q0 -19 -14.5 -33.5t-33.5 -14.5t-33 14t-14 34v40v114v107h-76h-153h-44v-94v-119v-48q0 -19 -14.5 -33.5t-33.5 -14.5t-33 14t-14 34v40v114v152v153v119v48q0 19 14 33t33 14
q20 0 34 -14t14 -33v-40v-114v-116h44h153z" />
    <glyph glyph-name="uni041E" unicode="&#x41e;" horiz-adv-x="499" 
d="M413 700q50 -42 67 -105q9 -33 9 -66v-110v-153v-76q0 -50 -24 -100q-8 -18 -28 -41q-12 -15 -27 -27q-16 -15 -30 -22q-14 -8 -34 -16q-28 -11 -64 -13q-31 -3 -66 5q-31 8 -59 25q-26 15 -49 39q-25 28 -36 52q-15 34 -19 62q-3 18 -3 37v96v153v94q0 59 29.5 110.5
t80.5 80.5q32 18 60 23q33 8 66 5q18 -1 38 -6q12 -3 36 -13t53 -34zM368 113q8 12 16 28q6 15 9 32v17v12v120v150v50v29q-3 17 -9 32q-13 24 -16 28q-7 8 -23 22q-18 12 -28 16q-15 6 -31 9q-16 1 -34 0q-17 -3 -31 -9q-10 -4 -28 -16q-16 -14 -22 -22q-5 -7 -17 -28
q-4 -10 -8 -32q-1 -9 -1 -28v-119v-151v-49q0 -21 1 -32q4 -22 8 -31q9 -17 17 -28q6 -8 22 -22q18 -12 28 -16q14 -6 31 -9q18 -1 34 0q16 3 31 9q14 6 28 16q16 14 23 22z" />
    <glyph glyph-name="uni041F" unicode="&#x41f;" horiz-adv-x="486" 
d="M146 46q0 -19 -14 -33t-34 -14t-34 14t-14 33v45v116v152v153v118v48q0 19 14 33t34 14h1h96h153h80q20 0 34 -14t14 -33v-43v-115v-153v-153v-118v-48q0 -20 -14 -34t-34 -14t-34 14t-14 34v43v115v152v154v118h-49h-153h-32v-113v-152v-153v-118v-48z" />
    <glyph glyph-name="uni0420" unicode="&#x420;" horiz-adv-x="504" 
d="M176 724h65q48 0 83 -12q65 -21 106 -68q46 -51 58 -112q7 -40 5 -66q-4 -41 -13 -65q-23 -64 -69 -104q-55 -46 -114 -56q-27 -5 -49 -5h-21h-81v-23v-118v-48q0 -19 -14 -33t-34 -14t-34 14t-14 33v43v115v153v153v118v47q0 20 14 34t34 14h78zM341 598q-16 11 -34 19
q-20 8 -37 11q-9 1 -54 1h-70v-110v-153v-35h1h75q32 0 48 1q24 5 37 11q12 5 34 19q13 12 27 27q14 22 19 33q7 16 10 38q3 20 0 40q-3 22 -10 38q-6 14 -19 33q-14 15 -27 27z" />
    <glyph glyph-name="uni0421" unicode="&#x421;" horiz-adv-x="469" 
d="M239 723q30 3 66 -6q30 -7 59 -25q30 -21 47 -42q12 -15 21 -30q9 -14 16 -35q11 -31 11 -65q0 -19 -14 -33t-34 -14q-19 0 -33 13.5t-14 33.5q0 2 -0.5 7t-0.5 7q-4 18 -8 27q-7 16 -14 25q-9 11 -20 20q-12 9 -24 14q-18 6 -28 7q-14 2 -29 0q-10 -1 -28 -7
q-8 -4 -24 -14q-11 -9 -20 -20q-10 -16 -14 -25q-6 -18 -8 -28v-13v-93v-152v-54v-31q3 -12 8 -28q4 -8 14 -24q9 -11 20 -20q16 -10 24 -14q18 -6 28 -7q15 -2 29 0q10 1 28 7q12 5 24 14q11 9 20 20q10 16 14 24t8 28q0 2 0.5 7t0.5 8q0 19 14 33t33 14q20 0 34 -14
t14 -33q0 -49 -24 -97q-10 -17 -28 -39q-13 -15 -36 -32q-23 -16 -57 -28q-15 -4 -26 -5q-26 -4 -39 -3q-34 0 -64 12q-26 11 -34 16q-14 7 -30 22q-22 18 -41 47q-3 6 -16 34q-5 14 -8 25q-6 30 -6 59v122v145v35q0 52 25 99q17 31 39 50q26 24 52 36q21 9 35 13q6 2 38 7z
" />
    <glyph glyph-name="uni0422" unicode="&#x422;" horiz-adv-x="527" 
d="M245 725h151h74q19 0 33 -14t14 -34q0 -19 -13.5 -33t-33.5 -14h-22h-117v-111v-151v-154v-119v-48q0 -19 -14.5 -33.5t-33.5 -14.5t-33 14t-14 34v36v111v152v153v120v11h-65h-74q-19 0 -33 14t-14 33q0 20 14 34t33 14h22h126z" />
    <glyph glyph-name="uni0423" unicode="&#x423;" horiz-adv-x="516" 
d="M50 674q0 2 0.5 6.5t0.5 6.5q5 19 22 28q16 10 37 5q22 -6 28 -22l30 -68l60 -135l49 -112q7 17 17 38l60 137l45 102q7 19 17 40q7 16 29 22q20 5 36 -5q17 -9 22 -28q4 -13 0 -26q0 -1 -1.5 -5t-2.5 -6q-1 -1 -2.5 -4.5t-2.5 -5.5q-26 -60 -32 -74l-54 -122l-63 -143
l-60 -137l-45 -102l-18 -40q-7 -16 -28 -22q-20 -6 -37 5q-17 9 -22 28q-3 13 0 25q1 2 2.5 6t2.5 6l2.5 5t1.5 5l33 74l48 110l-25 57l-60 135l-58 132q-8 20 -26 60q-6 10 -6 24z" />
    <glyph glyph-name="uni0424" unicode="&#x424;" horiz-adv-x="857" 
d="M400 234h-48h-54q-58 0 -112 26q-57 29 -93 83q-35 51 -42 121q-4 66 27 127q26 56 83 93q53 37 122 40q15 1 47 1h118h1h83q6 0 29 0.5t32.5 0t28 -1.5t32.5 -4.5t28 -8.5q64 -24 104 -70q45 -55 56 -114q12 -74 -10 -130q-14 -34 -29 -57q-20 -28 -42 -46
q-28 -23 -53 -35q-37 -17 -61 -20q-27 -5 -48 -5h-21h-83v-123v-65q0 -19 -14 -33t-34 -14q-19 0 -33 13.5t-14 33.5v60v128zM567 630h-71v-57q-1 -30 -1 -92v-78v-73h3h76q40 0 48 1q20 3 38 10q15 7 33 20q15 12 27 27q9 12 20 33q8 27 10 38q1 20 0 41q-2 15 -10 38
q-11 21 -20 33q-11 13 -27 28q-22 14 -33 19q-18 7 -38 10q-18 2 -55 2zM276 331q7 -1 43 -1h81v68v82v87q0 11 0.5 32t0.5 31h-4h-75q-31 0 -46 -2q-22 -3 -38 -10q-12 -5 -34 -19q-16 -15 -27 -28q-13 -19 -19 -33q-8 -20 -11 -38q-1 -21 0 -41q2 -16 11 -38
q10 -21 19 -33q12 -15 27 -27q19 -14 34 -20q16 -7 38 -10z" />
    <glyph glyph-name="uni0425" unicode="&#x425;" horiz-adv-x="561" 
d="M302 316l-52 -93l-74 -133q-24 -44 -37 -66q-9 -17 -29 -22t-36 5q-17 10 -22 29t5 36q1 1 3 4.5t3 5.5l57 103l74 133q7 14 23 42l-51 93l-73 133l-36 66q-9 17 -4.5 36t21.5 29q16 10 36 5t29 -22q11 -21 25 -44l69 -127l65 -119q1 -1 1 -2l52 93l74 133l36 66
q10 17 30 22t36 -5t21 -29t-4 -36q-1 -2 -3 -5.5t-3 -5.5l-57 -102l-74 -133q-7 -14 -23 -42l51 -93l73 -133l36 -66q9 -17 4.5 -36t-21.5 -29q-16 -10 -36 -5t-30 22l-24 44l-69 127l-65 119q-1 1 -1 2z" />
    <glyph glyph-name="uni0426" unicode="&#x426;" horiz-adv-x="563" 
d="M185 2h-76q-10 0 -22 5q-16 4 -26.5 17t-10.5 30v37v113v151v154v119v48q0 20 14 34t34 14q19 0 33 -14t14 -34v-37v-113v-152v-153v-119v-5h89h141v107v151v154v119v48q0 20 14.5 34t33.5 14t33 -14t14 -34v-37v-113v-152v-153v-105q15 15 35 15q19 0 33.5 -14.5
t14.5 -33.5v-21v-119q0 -19 -14.5 -33.5t-33.5 -14.5t-33.5 14.5t-14.5 33.5v21v38h-5h-115h-152z" />
    <glyph glyph-name="uni0427" unicode="&#x427;" horiz-adv-x="479" 
d="M257 263q-26 2 -39 5q-29 4 -60 22q-30 17 -50 38q-23 25 -36 52q-9 19 -14 35q-3 12 -7 38q-1 15 -1 44v70v108q0 19 14 33.5t34 14.5q19 0 33 -14t14 -34v-110v-69q0 -26 1 -39q1 -7 8 -29q5 -12 15 -25q6 -8 21 -21q16 -10 25 -15q17 -5 29 -8h31q13 3 29 8q9 5 25 15
q15 13 21 21q10 13 15 25q6 20 8 30q0 9 1 13v27v13v58v60v47q0 20 14 34t33 14t33.5 -14t14.5 -34v-12v-30v-109v-6v-43v-109v-154v-118v-48q0 -19 -14 -33t-34 -14q-19 0 -33 14t-14 33v43v115v92q-3 -1 -8.5 -4t-8.5 -5q-33 -17 -61 -21q-26 -4 -39 -4z" />
    <glyph glyph-name="uni0428" unicode="&#x428;" horiz-adv-x="805" 
d="M407 -2h-61h-152h-86q-12 0 -21 5q-16 3 -26.5 16t-10.5 30v43v115v153v153v118v48q0 19 14 33t33 14q20 0 34 -14t14 -33v-43v-115v-153v-153v-118v-4h24h152h54v114v153v153v118v48q0 19 14 33t34 14q19 0 33 -14t14 -33v-43v-115v-153v-153v-118v-4h32h152h46v114v153
v153v118v48q0 19 14 33t33 14q20 0 34 -14t14 -33v-43v-115v-153v-153v-118v-48q0 -16 -9.5 -28t-24.5 -17q-11 -6 -23 -6h-68h-152h-85q-9 0 -13 2q-4 -2 -13 -2z" />
    <glyph glyph-name="uni0429" unicode="&#x429;" horiz-adv-x="870" 
d="M50 630v47q0 19 14 33.5t34 14.5t34 -14.5t14 -33.5v-582v-1h230v583q0 20 14 34t33 14t33.5 -14.5t14.5 -33.5v-582v-1h230v583q0 20 14 34t33 14q20 0 34 -14.5t14 -33.5v-555q8 3 17 3q19 0 33 -14t14 -34v-22v-119q0 -20 -14 -33.5t-33 -13.5q-20 0 -34 14t-14 33v62
h-419q-240 0 -248 2q-20 0 -34 14t-14 33v583z" />
    <glyph glyph-name="uni042A" unicode="&#x42a;" horiz-adv-x="683" 
d="M630 382q35 -49 42 -121q6 -64 -25 -127q-27 -55 -83 -94q-53 -35 -122 -40q-10 -1 -63 -1h-102q-19 0 -33.5 14.5t-14.5 33.5v43v116v153v153v117h-17h-114q-20 0 -34 14.5t-14 33.5t14 33.5t34 14.5h65h114q19 0 33.5 -14.5t14.5 -33.5v-43v-116v-30h44h57q17 0 47 -4
q31 -6 61 -20q54 -25 96 -82zM576 224q3 19 0 40q-3 20 -10 38q-5 11 -19 33q-8 10 -27 27q-22 14 -34 19q-16 7 -37 10q-14 2 -43 2h-81v-27v-153v-118h18h45q51 0 61 1q21 3 37 10q12 5 34 19q23 23 27 28q13 19 19 33q7 16 10 38z" />
    <glyph glyph-name="uni042B" unicode="&#x42b;" horiz-adv-x="838" 
d="M793 717q15 -4 25 -17t10 -29v-44v-116v-152v-153v-118v-48q0 -19 -14 -33t-34 -14t-34 14t-14 33v45v116v152v153v9q-4 -7 -14 -21l-86 -128l-84 -126l-65 -96q-4 -6 -12.5 -19t-12.5 -19q-5 -9 -12 -13q-25 -34 -61 -59q-53 -35 -122 -40h-63h-102q-20 0 -34 14t-14 34
v52v120v154v152v117v47q0 19 14 33t34 14t33.5 -13.5t13.5 -33.5v-1v-52v-120v-27h48h55q57 0 111 -26q55 -26 94 -83q19 -26 30 -61l81 121l85 126l64 96q2 3 11.5 17t14.5 21q11 18 28 22q13 4 26 0zM341 120q5 4 28 27q14 22 19 34q7 16 10 38q3 20 0 40q-3 22 -10 38
q-6 14 -19 33q-18 20 -28 28q-19 13 -33 19q-12 5 -38 11q-14 1 -43 1h-82v-32v-152v-116h19h45q51 0 61 1q26 6 38 11q14 6 33 19z" />
    <glyph glyph-name="uni042C" unicode="&#x42c;" horiz-adv-x="503" 
d="M478 327q8 -20 14 -64q6 -62 -25 -127q-26 -56 -82 -94q-50 -36 -120 -41q-11 -1 -65 -1h-102q-20 0 -34 14t-14 34v42v115v152v154v118v48q0 19 14 33t34 14t34 -14t14 -33v-43v-115v-32h41h59q25 0 45 -4q28 -4 62 -19q22 -11 53 -34q23 -20 42 -47q16 -21 30 -56z
M396 224q3 19 0 40q-4 22 -10 37q-6 14 -19 33q-12 15 -27 27q-11 8 -33 20q-23 8 -38 10q-14 1 -42 1h-81v-25v-153v-119h17h45q51 0 61 1q26 6 38 11q18 8 33 19q15 12 27 27q13 19 19 33q7 16 10 38z" />
    <glyph glyph-name="uni042D" unicode="&#x42d;" 
d="M432 623q17 -30 23 -60q5 -24 5 -56v-124v-144v-34q0 -54 -26 -101q-9 -15 -21 -30q-7 -9 -18 -19q-25 -23 -52 -36q-21 -9 -35 -13q-20 -4 -39 -6q-33 -3 -66 6q-32 8 -58 25q-28 19 -47 42q-16 20 -22 31q-9 17 -15 34q-11 33 -11 65q0 19 14 33t34 14t33.5 -14
t13.5 -33q0 -3 0.5 -7t0.5 -7q4 -20 8 -28q8 -16 14 -24q9 -11 20 -20q16 -10 24 -14t28 -8q15 -1 30 0q20 4 28 8t24 14q11 9 20 20q6 8 14 24q4 11 8 29q0 2 0.5 6.5t0.5 6.5v94v16h-21h-115q-19 0 -33.5 14.5t-14.5 33.5t14 33t34 14h57h79v42v54q0 20 -1 31q-4 18 -8 27
t-14 25q-9 11 -20 20q-16 10 -24 14q-16 5 -28 8q-15 1 -30 0q-12 -3 -28 -8q-8 -4 -24 -14q-11 -9 -20 -20q-7 -9 -14 -25q-4 -10 -8 -28q0 -2 -0.5 -6.5t-0.5 -7.5q0 -20 -14 -34t-33 -14q-20 0 -34 14t-14 34q0 53 26 99q23 42 66 72q28 18 58 26q35 10 66 7q26 -2 38 -5
q11 -2 36 -13t53 -35q24 -21 39 -48z" />
    <glyph glyph-name="uni042E" unicode="&#x42e;" horiz-adv-x="752" 
d="M742 278v-79q0 -19 -5 -44q-3 -15 -9 -30q-6 -17 -15 -34q-14 -20 -22 -29q-18 -22 -47 -41q-28 -18 -58 -26q-30 -9 -65 -7q-36 2 -64 13q-31 14 -34 16q-9 5 -29 21q-19 15 -42 47q-18 29 -25 58q-8 28 -8 109v55h-110h-64v-93v-117v-47q0 -19 -14 -33t-33 -14
q-20 0 -34 14t-14 33v43v115v151v153v117v47q0 19 14 33t34 14q19 0 33 -14t14 -33v-43v-115v-116h97h77v116q0 32 5 55q5 29 22 60q15 26 39 49q26 24 51 36q19 9 35 14q6 2 38 7q28 4 66 -3q32 -6 59 -23q27 -15 50 -38q23 -24 36 -51q11 -25 13 -35q4 -14 8 -38
q1 -8 1 -23v-98v-152zM639 154q6 17 8 30q0 2 0.5 7t0.5 8v6v109v150v51q0 20 -1 30q-3 13 -8 29q-7 14 -16 26q-8 11 -21 22q-11 8 -26 15q-10 4 -30 8q-16 2 -31 0q-20 -4 -30 -8q-15 -7 -26 -15q-13 -11 -21 -22q-9 -12 -16 -26q-6 -16 -8 -29v-20v-109v-151v-51v-9.5
v-11.5v-10q2 -13 8 -29q10 -18 16 -26q8 -11 21 -22q19 -12 26 -15q20 -6 30 -8q15 -2 31 0q10 2 30 8q7 3 26 15q13 11 21 22q6 8 16 26z" />
    <glyph glyph-name="uni042F" unicode="&#x42f;" horiz-adv-x="695" 
d="M638 723q19 0 33 -14t14 -34v-45v-116v-152v-152v-117v-47q0 -19 -14 -33t-33 -14t-33 14t-14 33v46v116v25h-57h-30l-44 -73l-65 -106q-27 -43 -68 -65q-13 -8 -36 -16q-17 -5 -40 -7q-15 -2 -30 0q-23 2 -41 8q-36 12 -66 37q-10 9 -19 19q-19 26 -21 31
q-36 65 -17 138q5 19 22.5 28.5t36.5 4.5t28.5 -22t4.5 -36l-3 -12q-2 -12 0 -24l6 -23q8 -14 12 -20q8 -9 17 -17q10 -7 20 -11q7 -3 23 -7h24q16 4 24 7q10 4 20 11l16 16q1 2 4 6.5t4 6.5l70 114q2 4 16 26q-18 6 -32 15q-54 28 -91 84q-35 52 -38 122q-3 66 28 125
q31 57 85 91q51 34 122 39h45h117zM520 327h71v33v152v116h-6h-74q-39 0 -46 -1q-15 -2 -38 -10q-21 -10 -34 -20q-19 -17 -27 -27q-14 -22 -19 -34q-8 -20 -11 -38q-2 -20 0 -41q2 -16 11 -38q6 -14 19 -33q4 -5 27 -28q22 -14 34 -19t38 -11q18 -1 55 -1z" />
    <glyph glyph-name="uni0430" unicode="&#x430;" horiz-adv-x="590" 
d="M173 28q-56 33 -88 86q-34 56 -34 122q-2 66 32 122q31 56 86 88q56 32 122 32.5t122 -31.5q27 -17 44 -34v21q0 17 13 30t30 13q18 0 30.5 -13t12.5 -30v-22v-142v-89q2 -8 4 -12l31 -115q4 -16 -4.5 -31.5t-25.5 -20.5t-32.5 4t-20.5 26l-15 55q-28 -34 -63 -56
q-56 -33 -122 -34t-122 31zM137 259q-1 -21 0 -42q6 -26 11 -40q6 -12 20 -34q13 -16 29 -29q22 -14 34 -20q14 -5 40 -11q21 -1 42 0q28 7 39 11q13 6 35 20q20 18 28 29q14 19 20 34q8 22 11 40q1 7 1 21t-1 21q-3 20 -11 39q-6 16 -20 35q-12 16 -28 28q-19 14 -35 20
q-19 8 -39 11q-21 3 -42 0q-18 -3 -40 -11q-15 -6 -34 -20q-11 -8 -29 -28q-14 -22 -20 -35q-4 -11 -11 -39z" />
    <glyph glyph-name="uni0431" unicode="&#x431;" horiz-adv-x="560" 
d="M54 212q-6 39 -2 63v101v99q0 72 50 124q50 50 123 52h79l23 50q7 14 26 20q17 5 33 -5q16 -9 20 -25q3 -11 0 -23l-2.5 -5l-2.5 -5l-33 -72q-4 -8 -15 -15q-11 -6 -22 -6h-1h-63q-43 0 -52 -1q-11 -1 -23 -6t-20 -12q-6 -4 -16 -16q-7 -8 -12 -20q-4 -10 -6 -22
q-1 -7 -1 -20v-27q28 22 52 34q62 29 124 25q68 -3 120 -38q55 -35 85 -88q32 -58 32 -123q0 -30 -8 -62q-15 -61 -60 -109q-43 -46 -103 -66q-62 -21 -129 -8q-60 12 -111 55q-24 19 -42 45q-17 22 -30 55q-10 28 -13 51zM200 381q-16 -13 -30 -30q-15 -21 -21 -36
q-6 -13 -12 -41v-36v-6v-3q6 -28 12 -42q6 -15 21 -36q14 -17 30 -30q16 -12 36 -21q14 -6 42 -12q22 -1 44 0q28 6 42 12q20 9 36 21q16 13 30 30q15 21 21 36q6 14 12 42q1 7 1 22t-1 22q-6 28 -12 42q-6 15 -21 36q-14 17 -30 30q-15 12 -36 22q-23 8 -42 11q-22 1 -44 0
q-19 -3 -42 -11q-21 -10 -36 -22z" />
    <glyph glyph-name="uni0432" unicode="&#x432;" horiz-adv-x="453" 
d="M93 0q-18 0 -30.5 12.5t-12.5 30.5v11v89v144v156v125v51q0 17 12.5 30t30.5 13h4h3h81q30 0 53 -8q37 -13 62 -35q52 -45 57 -120q2 -60 -34 -108l6 -3q28 -12 52 -34t38 -48q35 -62 26 -124q-5 -30 -7 -37q-9 -25 -14 -34q-14 -28 -36 -50t-49 -37q-29 -15 -60 -21
q-19 -3 -40 -3h-24h-118zM332 276q-8 11 -21 22q-11 8 -26 15q-17 7 -30 8q-12 1 -35 1h-34h-3h-2h-46v-103v-125v-8h74q38 0 46 1q13 1 30 8q15 7 26 15q13 11 21 22q11 15 16 26q4 10 8 30q1 16 0 32q-4 20 -8 30q-5 11 -16 26zM194 576h-14.5h-17.5h-15h-12v-57v-111h50
h9l22 6q6 3 18 11q9 7 16 16q2 3 5.5 9t5.5 9q4 14 5 22q2 11 0 22q-1 8 -5 22q-2 3 -5.5 9.5t-5.5 9.5q-10 10 -16 15q-12 8 -18 11z" />
    <glyph glyph-name="uni0433" unicode="&#x433;" horiz-adv-x="355" 
d="M50 434q0 17 12.5 29.5t30.5 12.5h103h107q17 0 29.5 -12.5t12.5 -29.5q0 -18 -12.5 -30.5t-29.5 -12.5h-104h-64v-129v-149v-70q0 -18 -12.5 -30.5t-29.5 -12.5q-18 0 -30.5 12.5t-12.5 30.5v36v135v149v71z" />
    <glyph glyph-name="uni0434" unicode="&#x434;" horiz-adv-x="590" 
d="M537 87q17 0 30 -13t13 -30v-37v-117q0 -18 -13 -30.5t-30 -12.5t-30 12.5t-13 30.5v37v74h-46h-149h-143h-20v-111q0 -18 -13 -30.5t-30 -12.5t-30 12.5t-13 30.5v37v117q0 17 13 30t30 13h3h32q7 6 19 20q15 22 23 40q9 23 12 45q2 18 2 27v121v101v4v4q0 17 12.5 30
t30.5 13h10h133q32 -1 98 -1q17 0 29.5 -12.5t12.5 -29.5v-33v-132v-150v-47h27zM235 87h97h93v9v132v150v28h-101h-55v-50v-132q0 -50 -11 -83q-7 -27 -23 -54z" />
    <glyph glyph-name="uni0435" unicode="&#x435;" horiz-adv-x="511" 
d="M74 137q-15 33 -19 61q-7 35 -4 65q6 42 14 62q14 34 29 56q21 28 42 45q27 23 52 34q30 14 60 20q40 5 68 3q29 -4 40 -7q17 -6 37 -14q61 -26 102 -88q9 -14 4 -33q-3 -9 -11 -19l-9 -6q-18 -14 -27 -20l-107 -79l-121 -89q-14 -10 -20 -15q14 -9 27 -15q21 -8 40 -11
q7 -1 21 -1h4h4q14 0 21 1q19 3 40 11q15 6 34 20q10 8 15 13q12 12 30 12.5t30 -12.5q13 -13 13 -30.5t-13 -30.5q-72 -70 -170 -70h-4h-4q-56 0 -108 26q-22 11 -45 29q-20 16 -31 30q-25 32 -34 52zM137 263q-1 -21 0 -42q3 -18 11 -40q0 -1 0.5 -1t0.5 -1q1 0 1 0.5
t1 0.5l107 79l121 89q3 2 8 6t8 6q-1 1 -3.5 3t-3.5 3q-17 13 -35 20q-22 8 -40 11q-21 3 -42 0q-19 -3 -40 -11q-15 -6 -34 -20q-14 -12 -29 -28q-8 -11 -20 -35q-8 -22 -11 -40z" />
    <glyph glyph-name="uni0436" unicode="&#x436;" horiz-adv-x="731" 
d="M513 194h-83v-81v-70q0 -18 -12.5 -30.5t-30.5 -12.5q-17 0 -30 12.5t-13 30.5v38v113h-113h-4l-47 -83l-49 -90q-9 -15 -26.5 -19.5t-32.5 4.5q-16 9 -20 26t4 32l1 2l58 104l38 68l-48 88l-49 89q-8 16 -4 33t20 26q15 9 32.5 4t26.5 -20q1 -2 2 -5t2 -4l65 -118
q13 -23 28 -52l1 1h2h27h86v86v70q0 17 13 30t30 13q18 0 30.5 -13t12.5 -30v-38v-118h111q1 -1 2 -1l49 90q32 60 49 89q8 15 26 20t32 -4q16 -9 20 -26t-4 -33l-2 -2l-58 -107l-37 -68l47 -84l50 -90q8 -15 4 -32t-20 -26q-15 -9 -32.5 -4.5t-25.5 19.5q-4 6 -5 9l-66 119
q-9 15 -25 45h-4h-28z" />
    <glyph glyph-name="uni0437" unicode="&#x437;" horiz-adv-x="358" 
d="M308 48q-22 -25 -59 -40q-16 -5 -37 -7q-14 -1 -27 0q-22 2 -36 8q-19 6 -33 16q-34 25 -48 53q-18 36 -18 71q0 17 13 30t30 13t30 -13t13 -30v-9q0 -2 5 -16q1 -2 8 -14q5 -6 11 -11q10 -6 14 -9q3 -1 8.5 -2.5t8.5 -1.5h17q2 0 8 1.5t8 2.5q2 2 6.5 5t7.5 4q6 5 11 11
l5 7.5t4 6.5q1 3 2.5 8.5t1.5 7.5v17q0 3 -2 8.5t-2 8.5q-3 4 -9 14q-5 6 -11 11q-12 7 -14 8q-9 4 -16 5h-9q-9 0 -19 5q-25 13 -25 39q0 17 13 29.5t30 12.5q1 0 3.5 0.5t3.5 0.5l12 3q2 1 5.5 3t5.5 3l9 9q1 2 3 5.5t3 5.5l3 12q2 6 0 13l-3 12q-4 8 -6 11l-9 9
q-2 1 -5.5 3t-5.5 3q-4 2 -12 4h-13q-8 -2 -12 -4q-8 -4 -11 -6l-9 -9q-2 -3 -6 -11l-1 -2q-1 -1 -1 -2q-4 -17 -19.5 -26t-32.5 -4t-26 20.5t-4 32.5q9 35 38 61q31 27 64 33q20 3 37 2q27 -5 35 -8q20 -7 31 -16q18 -13 26 -24q10 -12 13 -19q4 -6 10 -20q3 -8 8 -36
q3 -36 -15 -72q-5 -10 -17 -26l10 -10q26 -30 34 -64q9 -41 -1 -74q-9 -35 -35 -63z" />
    <glyph glyph-name="uni0438" unicode="&#x438;" horiz-adv-x="515" 
d="M419 327l-62 -66l-108 -114l-89 -95l-37 -39q-10 -10 -25 -12t-27 5q-21 13 -21 37v37v135v149v70q0 18 12.5 30.5t29.5 12.5q18 0 30.5 -12.5t12.5 -30.5v-36v-135v-112l63 67l107 113l89 95l38 39q23 24 52 7q21 -11 21 -37v-37v-136v-149v-70q0 -18 -13 -30.5
t-30 -12.5t-30 12.5t-13 30.5v37v136v111z" />
    <glyph glyph-name="uni0439" unicode="&#x439;" horiz-adv-x="517" 
d="M485 476q22 -14 22 -38v-37v-136v-150v-70q0 -18 -13 -30.5t-30 -12.5q-18 0 -30.5 12.5t-12.5 30.5v37v136v112l-63 -66l-108 -115l-89 -95l-38 -39q-21 -23 -52 -7q-21 13 -21 37v37v135v150v71q0 17 13 30t30 13t30 -13t13 -30v-37v-135v-112l63 66l108 114l89 95
l37 40q10 10 25 12t27 -5zM141 618q-13 6 -16 22q-5 14 3 27q8 12 22 17q9 1 19 0q2 -2 4 -2q37 -14 69 -20q36 -3 71 0q35 5 75 22q11 4 28 -4q13 -8 16 -21q4 -15 -4 -28q-5 -9 -12 -13q-6 -2 -9 -4q-63 -25 -128 -25q-38 0 -70 7q-30 7 -68 22z" />
    <glyph glyph-name="uni043A" unicode="&#x43a;" horiz-adv-x="434" 
d="M92 0q-17 0 -29.5 12.5t-12.5 30.5v36v134v150v70q0 18 12.5 30.5t29.5 12.5q18 0 30.5 -12.5t12.5 -30.5v-36v-119h110h2l48 88l49 90q8 15 26 19.5t32 -4.5q16 -9 20 -26t-4 -33q-1 0 -1 -2l-58 -105l-37 -68q39 -70 46 -82l50 -91q8 -15 4 -32t-20 -26
q-14 -9 -32 -4.5t-26 19.5q-2 3 -4 7l-65 117q-18 32 -26 48q-2 -1 -4 -1h-27h-83v-79v-70q0 -18 -12.5 -30.5t-30.5 -12.5z" />
    <glyph glyph-name="uni043B" unicode="&#x43b;" horiz-adv-x="477" 
d="M56 64l26 62l57 134l58 133q8 21 26 61q5 13 25 20q12 3 23 0t19 -11t11 -19q5 -12 14.5 -34t11.5 -27l56 -134l56 -134q18 -40 26 -61q6 -15 -4 -33q-11 -16 -26 -20q-17 -5 -33 5q-9 6 -15 15l-5 10q-5 12 -13.5 33t-11.5 28l-56 134l-42 98l-46 -108l-57 -134
q-4 -10 -13 -30.5t-13 -30.5q-6 -14 -26 -20q-17 -5 -33 5q-14 8 -19 25q-3 12 0 23q1 2 2.5 5.5t1.5 4.5z" />
    <glyph glyph-name="uni043C" unicode="&#x43c;" horiz-adv-x="515" 
d="M136 114v-71q0 -18 -12.5 -30.5t-30.5 -12.5q-17 0 -30 12.5t-13 30.5v33v134v150v71q0 14 9 25.5t23 15.5q25 7 42 -11q3 -4 9.5 -11.5t9.5 -11.5l95 -110l39 -47l94 110l60 70q10 10 25.5 12t26.5 -5q22 -14 22 -37v-34v-134v-149v-71q0 -18 -13 -30.5t-30 -12.5
q-18 0 -30.5 12.5t-12.5 30.5v33v134v105q-1 -1 -16 -19l-81 -94q-6 -7 -13 -12q-11 -6 -34 -6q-26 0 -38 13l-20 23l-81 95v-52v-149z" />
    <glyph glyph-name="uni043D" unicode="&#x43d;" horiz-adv-x="440" 
d="M136 432v-35v-120h122h86v84v71q0 17 12.5 30t30.5 13q17 0 30 -13t13 -30v-35v-134v-149v-71q0 -18 -13 -30.5t-30 -12.5q-18 0 -30.5 12.5t-12.5 30.5v34v115h-9h-139h-60v-78v-71q0 -18 -13 -30.5t-30 -12.5t-30 12.5t-13 30.5v34v135v149v71q0 17 13 30t30 13t30 -13
t13 -30z" />
    <glyph glyph-name="uni043E" unicode="&#x43e;" horiz-adv-x="544" 
d="M500 363q32 -55 34 -122q-2 -66 -33 -120q-32 -56 -84 -87q-56 -33 -121.5 -34t-122.5 31q-56 33 -88 86q-34 57 -34 122q-2 66 32 122q30 55 86 88q55 33 122 33t122 -32q57 -33 87 -87zM447 220q0 4 0.5 11t0.5 10t-0.5 10t-0.5 11q-6 26 -11 40q-10 21 -20 34
q-13 16 -29 29q-22 14 -34 20q-14 5 -40 11q-21 2 -42 0q-28 -7 -39 -11q-13 -6 -35 -20q-20 -18 -28 -29q-13 -18 -21 -34q-7 -18 -10 -40q-3 -21 0 -42q4 -23 10 -40q8 -16 21 -34q11 -14 28 -29q22 -14 35 -20q11 -4 39 -11q21 -2 42 0q26 6 40 11q12 6 34 20q11 9 29 29
q10 13 20 34q4 12 11 40z" />
    <glyph glyph-name="uni043F" unicode="&#x43f;" horiz-adv-x="476" 
d="M135 43q0 -18 -12.5 -30.5t-29.5 -12.5q-18 0 -30.5 12.5t-12.5 30.5v39v137v149v69q0 18 12.5 30.5t30.5 12.5h1h96h153h80q17 0 30 -12.5t13 -30.5v-38v-136v-149v-70q0 -17 -13 -30t-30 -13q-18 0 -30.5 13t-12.5 30v38v137v148v28h-54h-153h-38v-133v-149v-70z" />
    <glyph glyph-name="uni0440" unicode="&#x440;" horiz-adv-x="438" 
d="M222 486q27 -4 61 -19q23 -9 53 -32q21 -16 37 -37q21 -26 32 -53q15 -32 19 -60q6 -40 2 -66q-5 -38 -15 -62q-15 -35 -30 -55q-20 -28 -42 -45q-28 -22 -52 -34q-37 -16 -60 -19q-21 -4 -49 -4h-42v-46v-116v-45q0 -18 -12.5 -30.5t-30.5 -12.5q-17 0 -30 12.5
t-13 30.5v1v61v124v155v151v116v46q0 17 13 29.5t30 12.5h54h31q23 0 44 -3zM309 342q-14 15 -29 29q-18 13 -36 20q-22 8 -40 11q-19 2 -56 2h-12v-20v-124v-155v-20h25q29 0 43 2q18 3 40 11q18 7 36 20q15 14 29 29q13 18 20 36q8 22 11 40q3 21 0 43q-3 18 -11 40
q-7 18 -20 36z" />
    <glyph glyph-name="uni0441" unicode="&#x441;" horiz-adv-x="505" 
d="M297 492q36 0 72 -11q70 -24 113 -77q8 -8 11 -19q2 -8 2 -12q0 -17 -13 -30q-12 -12 -30 -12q-20 0 -30 12q-14 17 -30 30q-16 12 -36 21q-22 8 -40 11q-21 3 -43 0q-19 -3 -40 -11q-24 -12 -35 -20q-11 -9 -29 -29q-12 -17 -21 -36q-5 -14 -11 -40q0 -3 -0.5 -10
t-0.5 -11v-2v-2q0 -4 0.5 -11t0.5 -10q6 -28 11 -41q10 -20 21 -35q13 -16 29 -29q17 -13 35 -20q21 -8 40 -11q22 -3 43 0q18 3 40 11q18 7 36 20q17 14 30 31q10 12 30 12q18 0 30 -12q13 -13 13 -31q0 -12 -6 -21q-4 -6 -7 -9q-22 -29 -57 -50q-57 -37 -127 -38t-129 34
q-55 34 -86 88q-31 55 -33 122v2v2q2 41 11 70q19 63 64 105q48 46 108 61q34 8 64 8z" />
    <glyph glyph-name="uni0442" unicode="&#x442;" horiz-adv-x="471" 
d="M93 394q-17 0 -30 12.5t-13 30.5q0 17 13 30t30 13h45h117h1h45h117q17 0 30 -13t13 -30q0 -18 -13 -30.5t-30 -12.5h-45h-74v-132v-149v-70q0 -18 -12.5 -30.5t-30.5 -12.5q-17 0 -30 12.5t-13 30.5v39v136v149v27h-3h-117z" />
    <glyph glyph-name="uni0443" unicode="&#x443;" horiz-adv-x="501" 
d="M173 -94l48 110l3 6q-2 3 -4 7q-19 43 -20 46l-57 128l-59 135l-28 63q-6 11 -6 22q1 2 1.5 5.5t0.5 5.5q5 17 20 26q17 8 33 4q20 -7 25 -20q14 -30 20 -45l57 -129l59 -135q2 -3 4 -9q2 5 6.5 15t6.5 15l62 140l47 106l18 43q7 14 26 20q16 4 33 -4q15 -9 20 -26
q3 -11 0 -23q-1 -1 -2.5 -5t-2.5 -5q-3 -6 -9.5 -22.5t-10.5 -24.5l-49 -110l-61 -140l-62 -140q-8 -20 -47 -107q-12 -28 -19 -43t-25 -19q-18 -5 -33 4t-20 26q-3 11 0 22q2 5 4 11z" />
    <glyph glyph-name="uni0444" unicode="&#x444;" horiz-adv-x="583" 
d="M231 147h-21q-39 1 -71 19q-64 34 -83 102q-5 20 -5 37q-1 17 2 38q3 15 7 26q12 26 16 32q19 31 50 51q13 9 32 16q10 4 26 8q20 3 39 3h33h55v0h74q53 0 78 -10q21 -9 33 -16q17 -12 28 -23q23 -23 38 -60q6 -19 7 -26q4 -26 3 -38q-2 -39 -19 -71q-31 -62 -102 -82
q-21 -6 -76 -6h-22v-13v-91q0 -18 -12.5 -30.5t-29.5 -12.5q-18 0 -30.5 12.5t-12.5 30.5v52v52h-37zM398 393h-34h-10v-40q-1 -24 -1 -73v-47h15h49q11 1 21 6q12 6 18 10q12 12 14 15q7 9 11 18q4 11 5 20q1 10 0 22q-1 5 -5 20q-3 6 -11 18q-6 8 -14 14q-12 8 -18 11
q-14 4 -21 5q-6 1 -19 1zM153 264q2 -3 14 -15q6 -4 18 -10q11 -5 21 -6h49h13v12v37q-1 38 0 38v73h-11l-25 1q-26 0 -26 -1l-21 -6q-6 -3 -18 -11q-8 -6 -14 -14q-8 -12 -11 -18q-4 -15 -5 -20q-1 -12 0 -22q1 -9 5 -20q4 -9 11 -18z" />
    <glyph glyph-name="uni0445" unicode="&#x445;" horiz-adv-x="401" 
d="M335 153l50 -90q8 -16 4 -33t-19 -26t-33 -4.5t-26 19.5l-3 6l-64 114q-1 2 -10 18.5t-13 24.5l-40 -72l-51 -91q-8 -15 -26 -19.5t-32 4.5q-16 9 -20 26t4 33q1 0 1 1l56 101q26 46 38 69l-45 84l-50 90q-8 15 -4 32t20 26q14 9 32 5t26 -20l3 -6l63 -114q16 -30 25 -45
q13 25 41 75l49 90q8 16 26 20t33 -5t19 -26t-4 -32l-1 -1v-1l-57 -104l-37 -68z" />
    <glyph glyph-name="uni0446" unicode="&#x446;" horiz-adv-x="447" 
d="M394 112q17 0 30 -12.5t13 -30.5v-108q0 -18 -13 -30.5t-30 -12.5q-18 0 -30.5 12.5t-12.5 30.5v39h-12h-147h-91q-8 0 -18 5q-14 3 -23.5 14.5t-9.5 26.5v37v135v149v71q0 17 13 29.5t30 12.5q18 0 30.5 -12.5t12.5 -29.5v-37v-135v-149v-31h1h147h17v131v149v71
q0 17 13 30t30 13t30 -13t13 -30v-36v-135v-149v-5h7z" />
    <glyph glyph-name="uni0447" unicode="&#x447;" horiz-adv-x="455" 
d="M248 137q-14 0 -38 4q-29 4 -59 21t-48 39q-23 24 -34 51q-11 26 -13 35q-4 23 -5 37q-1 0 -1 28l1 29v54q0 17 12.5 30t30.5 13q17 0 29.5 -13t12.5 -30v-1v-61q0 -45 1 -54q4 -18 8 -28q4 -9 14 -25q17 -17 21 -20q8 -7 24 -15q22 -7 29 -8h30q12 3 28 8q12 5 25 15
q11 9 20 20q4 6 15 25q6 18 7 28q1 3 1 8v5v34v17v53q0 18 13 30.5t30 12.5t30 -12.5t13 -30.5v-18v-20v-52v-13v-71v-149v-70q0 -18 -13 -30.5t-30 -12.5t-30 12.5t-13 30.5v38v90l-15 -9q-30 -17 -59 -21q-24 -4 -37 -4z" />
    <glyph glyph-name="uni0448" unicode="&#x448;" horiz-adv-x="650" 
d="M586 0h-133h-78h-20h-16h-147h-91q-9 0 -16 3q-15 3 -25 15t-10 27v32v133v150v71q0 17 13 30t30 13t30 -13t13 -30v-32v-132v-150v-31h1h147h19v124v150v71q0 17 13 30t30 13q18 0 30.5 -13t12.5 -30v-32v-132v-150v-31h108h57v124v150v71q0 17 13 30t30 13
q18 0 30.5 -13t12.5 -30v-32v-132v-150v-72q0 -15 -9 -26q-14 -19 -36 -19h-9z" />
    <glyph glyph-name="uni0449" unicode="&#x449;" horiz-adv-x="700" 
d="M604 0h-12h-146h-71h-20h-16h-147h-91q-11 0 -18 4q-33 9 -33 42v36v135v149v71q0 17 13 30t30 13t30 -13t13 -30v-36v-136v-149v-31h1h147h19v132v149v71q0 17 13 30t30 13q18 0 30.5 -13t12.5 -30v-36v-136v-149v-31h1h147h17v132v149v71q0 17 13 30t30 13
q18 0 30.5 -13t12.5 -30v-36v-136v-149v-5h7q17 0 30 -12.5t13 -29.5v-1v-108q0 -18 -13 -30.5t-30 -12.5q-18 0 -30.5 12.5t-12.5 30.5v40z" />
    <glyph glyph-name="uni044A" unicode="&#x44a;" horiz-adv-x="567" 
d="M523 289q17 -24 27 -56q9 -37 5 -65q-2 -19 -6 -37q-7 -18 -14 -33q-16 -30 -38 -49q-18 -16 -28 -22q-11 -6 -33 -16q-31 -11 -63 -11h-5h-6q-55 0 -96 38q-17 15 -28 36q-8 14 -12 27q-4 21 -5 29v7v8.5v7.5v34v55v3v81v60h-11h-74v-62q0 -17 -13 -30t-30 -13t-30 13
t-13 30v105q0 18 13 30.5t30 12.5h47h116h5h3q17 0 30 -13t13 -30v-1v-61h32q54 0 75 -5q32 -6 57 -24q13 -8 29 -22q9 -9 23 -27zM463 145q2 6 7 25q2 14 0 27q-4 16 -7 24q-6 13 -13 22t-17 18q-3 2 -22 13q-11 4 -25 6q-8 1 -52 1h-27v-74q0 -1 -0.5 -2t-0.5 -2v-16v-35
q0 -12 1 -18q2 -8 4 -14q6 -11 7 -13l10 -10q1 -1 5.5 -3.5t7.5 -3.5q4 -2 14 -4h7q4 0 6 -1q1 1 5 1h13q19 5 25 7q19 11 22 13q10 9 17 18q3 4 13 21z" />
    <glyph glyph-name="uni044B" unicode="&#x44b;" horiz-adv-x="677" 
d="M646 475q21 -13 21 -37v-39v-137v-149v-69q0 -18 -12.5 -30.5t-30.5 -12.5q-17 0 -30 12.5t-13 30.5v39v136v108l-97 -108l-94 -105l-42 -46q-4 -4 -6 -5q-8 -10 -14 -15q-15 -13 -28 -21q-11 -6 -33 -16q-31 -11 -63 -11h-6h-5q-44 0 -76 22q-20 13 -30 25
q-17 22 -22 32q-10 25 -12 35q0 1 -1.5 12t-1.5 17v9v49v150v87q0 17 13 30t30 13t30 -13t13 -30v-65v-3h36q55 0 77 -5q12 -3 34 -13q10 -4 23 -13q10 -6 28 -22q16 -18 23 -28q17 -25 25 -55l76 84l94 104l42 46q21 24 52 7zM264 106q7 6 19 18q10 18 12 22q5 12 7 26
t0 26q-2 14 -7 26q-2 4 -12 22q-12 12 -19 18q-9 7 -22 13q-9 4 -25 7h-16.5h-19.5h-17h-28v-63v-58v-28q1 -3 2.5 -8t1.5 -6q2 -5 8 -13q3 -4 10 -11q1 -1 5.5 -3.5t7.5 -3.5q6 -2 14 -4h8q4 0 5 -1q2 1 6 1h13q16 3 25 7q13 6 22 13z" />
    <glyph glyph-name="uni044C" unicode="&#x44c;" horiz-adv-x="398" 
d="M382 229q4 -24 5 -37q1 -12 -3 -38q-1 -12 -6 -26q-22 -68 -82 -103q-30 -17 -59 -21q-31 -6 -53 -3q-43 3 -69 23q-34 22 -48 52q-17 32 -17 67v8v47v151v87q0 17 13 30t30 13q18 0 30.5 -13t12.5 -30v-64v-4h53h23q26 -2 37 -5q12 -3 34 -13q29 -14 51 -36
q23 -23 35 -50q11 -25 13 -35zM294 146q2 6 7 25v26q-3 15 -7 26q-10 17 -13 21q-7 10 -18 18q-9 7 -22 13q-9 4 -25 7q-8 1 -51 1h-29v-62v-59v-27q0 -3 2 -8t2 -7q2 -4 8 -12q4 -6 10 -10q8 -6 13 -8q1 0 6 -1.5t8 -2.5q10 -1 31 1q14 2 25 6q13 6 22 13q11 9 18 18t13 22
z" />
    <glyph glyph-name="uni044D" unicode="&#x44d;" horiz-adv-x="493" 
d="M449 364q34 -57 34 -122v-2v-2q0 -28 -6 -55q-14 -61 -59 -108.5t-106 -64.5q-68 -20 -135 0q-71 21 -115 76q-8 8 -11 19q0 2 -0.5 5.5t-0.5 5.5q0 19 12 31t31 12q20 0 30 -12q11 -15 29 -30q15 -11 34 -20q23 -8 39 -10q20 -3 41 0q15 2 38 10q21 10 34 20
q15 13 28 28q10 13 20 34l6 18h-117q-17 0 -30 13t-13 30t13 30t30 13h16h101l-6 18q-10 21 -20 34t-28 27q-15 12 -34 20q-20 8 -38 11q-21 2 -41 0q-19 -3 -39 -11q-19 -8 -34 -20q-17 -12 -29 -29q-10 -12 -30 -12q-19 0 -31 12t-12 30q0 10 5 22q3 3 7 9q19 22 43 40
q58 43 132 46q66 2 125 -31q55 -31 87 -85z" />
    <glyph glyph-name="uni044E" unicode="&#x44e;" horiz-adv-x="768" 
d="M642 445q54 -35 84 -89q32 -56 32 -122q0 -34 -9 -67q-17 -61 -61 -107q-44 -45 -105 -65q-60 -21 -128 -6q-60 12 -111 55q-22 20 -41 46q-18 26 -29 55q-9 21 -14 53h-43h-81v-85v-70q0 -17 -13 -30t-30 -13q-18 0 -30.5 13t-12.5 30v41v137v148v70q0 18 12.5 30.5
t30.5 12.5q17 0 30 -12.5t13 -30.5v-41v-114h52h75q3 20 12 40q16 38 29 55q21 28 42 45q27 22 51 34q63 29 125 25q68 -5 120 -38zM671 211q1 8 1 23q0 14 -1 22q-3 19 -11 42q-12 23 -22 36q-14 16 -30 30q-21 15 -36 21q-21 9 -42 12q-23 2 -44 0q-22 -3 -42 -12
q-13 -5 -37 -21q-17 -14 -30 -30q-10 -13 -21 -36q-8 -21 -12 -42q-2 -22 0 -45q4 -21 12 -42q11 -23 21 -36q13 -17 30 -30q24 -16 37 -21q20 -9 42 -12q21 -2 44 0q21 3 42 12q15 6 36 21q16 13 30 30q10 13 22 36q8 23 11 42z" />
    <glyph glyph-name="uni044F" unicode="&#x44f;" horiz-adv-x="596" 
d="M542 482q18 0 31 -13t13 -30v-95v-73v-3v-32v-90v-103q0 -18 -13 -31t-31 -13q-17 0 -30 13t-13 31v2v63h-46q-6 0 -9 1l-54 -82q-6 -10 -9 -14q-28 -37 -57 -53q-69 -42 -145 -18q-71 23 -106 85q-35 67 -17 136q5 17 21 26t33 4t25.5 -20.5t4.5 -32.5l-3 -12
q-1 -12 0 -25q4 -16 7 -24q4 -8 12 -21q9 -10 17 -17q7 -5 21 -13q12 -4 25 -6q8 -1 25 -1q18 5 24 7q13 6 22 13q9 8 17 17q1 3 4.5 8t5.5 7l35 54q-51 23 -80 72q-16 25 -23 58q-4 26 -4 38q0 14 4 38q6 31 23 59q20 31 41 47q20 15 29 20q17 9 34 15q29 8 56 8h110z
M352 357q-5 -7 -13 -23q-2 -6 -7 -25q-2 -13 0 -27q4 -18 7 -26q6 -13 13 -22q9 -10 18 -18q13 -9 23 -13q10 -5 25 -7q5 -1 14 -1h67v41v35v59v66h-28q-44 0 -53 -1q-19 -5 -25 -7q-16 -8 -23 -13z" />
    <glyph glyph-name="uni0451" unicode="&#x451;" horiz-adv-x="509" 
d="M110 83q-45 54 -55 112q-12 72 10 127q25 65 70 102q55 44 111 54q41 5 68 3q29 -4 40 -7q17 -4 37 -14q61 -26 102 -87q9 -13 5 -33q-3 -11 -11 -19q-2 -1 -5 -3.5t-4 -3.5q-11 -7 -26 -19l-107 -78l-121 -89l-20 -15q14 -9 27 -15q22 -8 40 -11q25 -3 49 0q17 3 39 11
q18 7 35 20q10 8 14 13q13 12 30.5 12t30.5 -12q12 -13 12 -30.5t-12 -30.5q-30 -29 -61 -44q-24 -11 -40 -16q-13 -4 -43 -8t-51 -1q-40 4 -63 13q-65 25 -101 69zM137 262q-1 -21 0 -42q7 -28 11 -39l1 -2l107 78l121 89q3 2 8.5 6t8.5 6q-2 1 -4.5 3t-3.5 3
q-15 12 -34 20q-22 8 -40 11q-20 3 -41 0q-18 -3 -40 -11q-15 -6 -34 -20q-11 -8 -29 -28q-14 -22 -20 -34q-5 -14 -11 -40zM146 523q-17 0 -30 12.5t-13 30.5q0 17 13 29.5t30 12.5q18 0 30.5 -12.5t12.5 -29.5q0 -18 -12.5 -30.5t-30.5 -12.5zM404 523q-18 0 -30.5 12.5
t-12.5 30.5q0 17 12.5 29.5t30.5 12.5q17 0 29.5 -12.5t12.5 -29.5q0 -18 -12.5 -30.5t-29.5 -12.5z" />
    <glyph glyph-name="quotedblleft" unicode="&#x201c;" horiz-adv-x="350" 
d="M309 791q15 -5 25 -19q10 -18 4 -32l-37 -99q-7 -18 -19 -25q-17 -8 -33 -4q-15 5 -25 19q-10 18 -4 33q13 32 37 98q6 17 20 25q14 9 32 4zM141 791q17 -5 25 -19q10 -18 4 -32q-24 -66 -37 -99q-7 -18 -19 -25q-17 -8 -32 -4q-17 5 -25 19q-10 15 -5 33l38 98
q6 17 19 25q15 9 32 4z" />
    <glyph glyph-name="quotedblright" unicode="&#x201d;" horiz-adv-x="350" 
d="M81 791q18 5 32 -4q14 -8 20 -25q24 -66 37 -98q6 -15 -4 -33q-10 -14 -25 -19q-16 -4 -33 4q-12 7 -19 25l-37 99q-6 14 4 32q10 14 25 19zM249 791q17 5 32 -4q13 -8 19 -25l38 -98q5 -18 -5 -33q-8 -14 -25 -19q-15 -4 -32 4q-12 7 -19 25q-13 33 -37 99q-6 14 4 32
q8 14 25 19z" />
    <glyph glyph-name="quotedblbase" unicode="&#x201e;" horiz-adv-x="350" 
d="M309 25q16 -5 25 -20q10 -18 4 -32l-37 -98q-6 -17 -19 -25q-15 -9 -33 -4q-15 5 -25 19q-10 18 -4 32l37 98q7 18 20 25q15 10 32 5zM141 25q17 -5 25 -20q10 -18 4 -32l-37 -98q-6 -17 -19 -25q-15 -9 -32 -4t-25 19q-10 15 -5 32l38 98q7 19 19 25q16 9 32 5z" />
    <glyph glyph-name="guilsinglleft" unicode="&#x2039;" horiz-adv-x="253" 
d="M237 520l-52 -82l-44 -70l39 -61l57 -91q9 -14 4 -31.5t-19 -25.5q-15 -9 -31.5 -4.5t-25.5 19.5l-52 83l-57 90q-12 21 0 42l52 83l57 90q9 15 25.5 19.5t31.5 -4.5q14 -8 19 -25t-4 -32z" />
    <glyph glyph-name="guilsinglright" unicode="&#x203a;" horiz-adv-x="253" 
d="M56 520q-9 15 -4 32t19 25q15 9 31.5 4.5t25.5 -19.5l57 -90l52 -83q12 -21 0 -42l-57 -90l-52 -83q-9 -15 -25.5 -19.5t-31.5 4.5q-14 8 -19 25.5t4 31.5l57 91l39 61l-44 70z" />
    <glyph glyph-name="fraction" unicode="&#x2044;" horiz-adv-x="394" 
d="M136 31q-7 -19 -20 -26q-16 -10 -33 -5q-18 5 -26 20q-11 19 -5 34q0 1 1 3.5t2 3.5l27 72l48 124l57 149l54 142q24 61 41 107q6 14 16 42q9 19 20 26q15 9 34 4q17 -5 26 -20q10 -18 4 -33q0 -3 -2 -7l-28 -72q-38 -99 -47 -125l-57 -148l-55 -142q-8 -22 -41 -107
q-10 -28 -16 -42z" />
    <glyph glyph-name="Euro" unicode="&#x20ac;" horiz-adv-x="654" 
d="M630 136q14 -14 14 -33.5t-14 -33.5q-28 -27 -59 -42q-40 -18 -69 -23q-30 -4 -44 -4h-13q-25 0 -38 1q-39 5 -63 15q-35 14 -56 30q-28 20 -46 42q-23 31 -34 53q-15 33 -20 61q0 4 -1 10.5t-1.5 11.5t-0.5 10h-11h-76q-19 0 -33.5 14t-14.5 33t14 33.5t34 14.5h8h78v43
h-10h-76q-20 0 -34 14t-14 34q0 19 14 33t34 14h8h78v10q0 15 4 45q6 30 20 61q10 26 34 53q13 17 45 43q24 17 56 30q24 10 63 15q13 1 39 1q32 0 57 -4q70 -10 128 -65q14 -14 14 -33.5t-14 -33.5t-33.5 -14t-33.5 14q-2 2 -6 5.5t-6 4.5q-10 8 -34 20q-16 7 -38 10
q-12 2 -36 2q-11 0 -33 -2q-22 -3 -38 -10q-21 -10 -34 -20q-10 -8 -28 -28q-9 -13 -20 -33q-8 -26 -10 -39q-1 -10 -1 -32h92h76q19 0 33 -14t14 -33t-14 -33.5t-33 -14.5h-9h-113h-46v-43h92h76q19 0 33 -14.5t14 -33.5t-14 -33t-33 -14h-9h-113h-46q0 -2 0.5 -4t0.5 -4
q2 -15 10 -38q6 -12 20 -34q18 -20 28 -28q13 -10 34 -20q23 -8 38 -10q11 -1 33 -1q24 0 36 1q15 2 38 10q19 10 34 20q2 1 6 5t6 5q14 14 33.5 14t33.5 -14z" />
    <glyph glyph-name="question.001" horiz-adv-x="404" 
d="M231 44q0 -19 -14 -33t-33 -14t-33.5 14t-14.5 33q0 20 14 34t34 14q19 0 33 -14.5t14 -33.5zM375 649q17 -35 18 -71q1 -8 -1 -26q-5 -32 -7 -37q-8 -30 -27 -60q-20 -33 -44 -58q-9 -10 -31 -31.5t-32 -34.5l-9 -12l-8 -12l-3 -14q-2 -19 -2 -106q0 -19 -14.5 -33.5
t-33.5 -14.5t-33 14t-14 34q0 81 1 97q4 49 19 73q19 30 41 55l33 32q16 16 31 34q21 28 30 49q6 15 9 32q2 12 0 24t-4 16q-4 8 -7 11q-4 6 -10 10l-19 11q-9 4 -27 8h-26l-21 -6l-11 -7l-18 -17q-6 -10 -8 -15l-2 -4q0 -20 -13.5 -33.5t-33.5 -13.5t-34 14t-13 33
q0 34 22 66q10 15 23 29q9 8 27 22q8 5 31 16q8 3 26 7q24 4 38 4t38 -4q20 -4 30 -8q20 -8 37 -19q35 -24 52 -54z" />
    <glyph glyph-name="bracketright.001" horiz-adv-x="833" 
 />
    <glyph glyph-name="guillemotright.001" horiz-adv-x="833" 
 />
  </font>
</defs>
</svg>
